<mxfile host="65bd71144e" scale="5" border="0">
    <diagram id="KoX0e8cBVRLxRLjkJ-Fk" name="Page-1">
        <mxGraphModel dx="1101" dy="828" grid="0" gridSize="10" guides="1" tooltips="1" connect="1" arrows="1" fold="1" page="1" pageScale="1" pageWidth="850" pageHeight="1100" math="0" shadow="0">
            <root>
                <mxCell id="0"/>
                <mxCell id="1" parent="0"/>
                <mxCell id="2" value="" style="shape=image;verticalLabelPosition=bottom;labelBackgroundColor=default;verticalAlign=top;aspect=fixed;imageAspect=0;image=data:image/jpeg,/9j/4AAQSkZJRgABAQEAYABgAAD/2wBDAAMCAgMCAgMDAwMEAwMEBQgFBQQEBQoHBwYIDAoMDAsKCwsNDhIQDQ4RDgsLEBYQERMUFRUVDA8XGBYUGBIUFRT/2wBDAQMEBAUEBQkFBQkUDQsNFBQUFBQUFBQUFBQUFBQUFBQUFBQUFBQUFBQUFBQUFBQUFBQUFBQUFBQUFBQUFBQUFBT/wAARCAQoAygDASIAAhEBAxEB/8QAHwAAAQUBAQEBAQEAAAAAAAAAAAECAwQFBgcICQoL/8QAtRAAAgEDAwIEAwUFBAQAAAF9AQIDAAQRBRIhMUEGE1FhByJxFDKBkaEII0KxwRVS0fAkM2JyggkKFhcYGRolJicoKSo0NTY3ODk6Q0RFRkdISUpTVFVWV1hZWmNkZWZnaGlqc3R1dnd4eXqDhIWGh4iJipKTlJWWl5iZmqKjpKWmp6ipqrKztLW2t7i5usLDxMXGx8jJytLT1NXW19jZ2uHi4+Tl5ufo6erx8vP09fb3+Pn6/8QAHwEAAwEBAQEBAQEBAQAAAAAAAAECAwQFBgcICQoL/8QAtREAAgECBAQDBAcFBAQAAQJ3AAECAxEEBSExBhJBUQdhcRMiMoEIFEKRobHBCSMzUvAVYnLRChYkNOEl8RcYGRomJygpKjU2Nzg5OkNERUZHSElKU1RVVldYWVpjZGVmZ2hpanN0dXZ3eHl6goOEhYaHiImKkpOUlZaXmJmaoqOkpaanqKmqsrO0tba3uLm6wsPExcbHyMnK0tPU1dbX2Nna4uPk5ebn6Onq8vP09fb3+Pn6/9oADAMBAAIRAxEAPwD9JaKKKACiiigAooooAKKKKACiiigAooooADRRSUALRRSfhQAtFJzRQAUtH4Un4UALRSUv4UAFFFFABRSfhS/hQAUetFHegAooooAKKSloAKKKKACiiigAooooAKKKKACiiigAooooAKKKSgBaPwopKAF/Cijmk5oAWik5ooAWik5o5oAWjim596PxoAUim0tJ+FABRR+FJQAtBpOaSgQUUlHNAxTTKWkpiCkNBptMA5pGpc02mAUhxSUn0oELTT7UUmaAA02g/nSGgAbFNoNN5qhAaSjJpuaAFprUmTSUAFJ/Kimk0wFpvrRTc0wFY03NGabTAUkUlJSUAKTTaT8KSgBSaSkpuT60APzTKTmjdTAWkJptJmgQ6kzSZNJupiFoplFAHb0UUVymoUUUUAFFFFABRRRQAUUUUAFFFFABSUtFACUvFJRQAYFLSUtABRRRQAnSjiiloAKKKSgBaKSloAMUmKWigAooooASlxRR/KgAooo4oAKKKPegAooooAKKKKACiiigAoopPegBaMUUc0AJxRRRQAdqKKKACij9aT3oAWko70UAFFJRQAUHHeiigBKKKSgAoopKAD6UlFJQIKTjtRSGmAUlBpDTADTaWm0xAaaaWk5/GgBDTeKVqaaADim8UtNqhBTaX+dNNABmmnFFJQAme1IaDTaAA0hoppqgFptHNNoAKQ0En0ppb2pgBpKKSgAptLTaACkNFJmmAGkoptMkXikoptMBaSkzSUALxRTaKAO5paKK5DUKKKKACiikoAWiiigAooooAKKKKACiiigAooooAKKKKACiiigAooooAKKKKACiiigAooooAKKKKACiiigAooooAKKKSgBaKKKACiiigAooooAKKKP50AFFGfekoAWk/Cj8aPxoAKKPxo565oAKSl/Gjn1oASiiigAzSUUUAFBpPxo57UABpKWkoAKSj8aOaBCZpKWk/GmAlJS80lMBKSik/SmISkJpf1ptACUhpabQAU0mlNNzTEITSGikPPtTASmk4pTn60h+tACE000p+tNOaAEak/GlpufWmAjUhoNIaoBOO1IaKT8aAEpM/hRmkP6UAIxpM0tNOaACm0v40nPrTAQ4pKPxo5piEpKKSmIKSik/GgApKKTr3oATNFHPrRQB3dFFFchqFFFFABRRRQAlLRRQAUUUUAHaij8aP5UAFFFFABRRRQAUUUUAFFFFABRRRQAUUUUAFH0oooAKKKKACiiigAooooAKKKKACkpaKAEpaKKACiiigAooooAKT60tFACUZpaKAE3UcUvak2igA4pOKXbRtoATijijbSUALRSUtACZ/CkzS0YoATik4pcUlABSbqWkK0CE4pKKKYBmk4oYUlMPQTNJxSmm0CDPrSGlYfjTaYCbhSGhqSgBKQkUp9aacUwEyKT60UjUxCGm8UtJQAmaafalakoAQ4NN9qOKQ+tMBOKTiikpgJmmtjtStSUwEyKb/KlbrSUAJxTc0tFACGm5ooNMQnWm5paQ0wBsU3NFFAhODSUUfWmAmRSfSg0UAJuFIcUpWm0AGaKKKYHeUlLRXGahRRRQAUUUUAFFFFABRRRQAUe1FFABRRRQAUUUUAFFFFABRiij+dABRRRQAUUUUAFFFFABRRRQAUUUUAFFFFABRR6UUAFFFFABRRRQAUUUUAFJilooAT8aMGlooAbyKKdSbaAEzRmkpaACjJpKKAFzSUUUAJzSZNOptAhcmkoooGGTTTTqa3WgXUOaKSuc8efEfwx8MNBl1nxVrlloWmxdZ7yUICfRR1Y+wyaYHRMarX+o2ul2slze3MNpbRjc808gRFHqSeBX52/Gz/gqpcXk02kfCHw411yU/t7WIyI/96OEHJ+rH8K+UvFXiD4kfHC++2ePvFeparExyLSSQx26/wC7CuFH5UmNH6jePP28fgt4Dkmt5PF0et30Wc2uhxNeMT/d3INgP1YV5Br3/BVDwlY7n07wF4mvYB92a4MNup/8eY18TaX4QtNGgCWUEUTjjzJF3Gn3HhW1vGzfTzXX+zu2r+QpcwH1p/w948MW8wF18Otcjj7tHeQufy4rtvB//BVT4M+Im2akNb8NuBkm+sw6fnGzE/l3r4Xi8L6HB002Bj6uu4/rUraDozKQ2mWpB/6ZLRzAfrN4A/aI+GvxSEQ8L+NtG1aeRd620d0qz4942IYflXoW73r8R7j4f+HbqRZU0+O2mU5WW3JjZT6grXsPwp/aX+JnwRlt4rPW5vF3huLh9F1uQyOFz/yynPzqfQEsPaq5hWP1WJ4puTXmvwN/aC8K/H7w22oeH7hob23wt9pN1hbm0c9nXuD2YcGvSqoQjUnNDUhqhDdxpDS01utABmm7qWm0AIzUlK1NoATPNI3SimtTAKac5pabVABNNyaVqbQAMabz60ppKAGnNGaKSgOglJmiiqEN5oopKAY2jJoNFMQhpOaDSUADZpvPrTu1N/lQAfjSNn1xS009aYBRRRSA76iiiuQ1CiiigAooooAKKKKACiiigAooooAKKKKAD3ooooAKO1FFABRRRQAUUUUAFFHNFABRSUtABRRRQAUUUUAFFFFABRRRQAUUdaKACiij2oAKKKKACiiigAo6UUUAFFFFADWpKc1NoAKKWkoAWkoooAKaaVqSgQUUUUDCmSOsaszMFVRkljgAVBqepWuj6fcX19cR2lnbxtLNPMwVI0AyWJPAAFfmR+1V+2bqfxovrvwx4KvZNP8AAKfu5ryMGOfU2DHPzcFYuOAPvd+OKTYI9n/aS/4KFWvhe4vPDXwvht9d1mPMc2vTHdY2zdwgH+uYfgoI6npXwrrkeu/FTWZNd8ca/feJb6Zt+68kyi4zwiD5UX2Aqjp+nq7LGq7Il67RjAro0kEUYVeFHFTcodY6TZaagW3t44gP7q8/nV+NC0MrpsCxjLbnAPpwCeevasp7rPQ1E0xPekI0WuAe9QNMfWqnmn1pRcOsbID8rYJH0oGTGam+b71Bu96ATQBY840vnk8HmolRiCQCQOvtQ1AmXfCfjzX/AIR+MLPxh4UmWHV7X5ZIX/1V3EfvQyDup9eoOCK/VL4B/HTQv2gPh5Z+JtFbyZf9Vfae7Zls7gfejf8Aoe4wa/JW6YbSDXX/ALNfx2f9nL426dqVzKyeEfEDLp2sRg/LGSf3U+PVT1PoTWsWSfsDSNTY5kmhSWJ1kjcBlZTkEHoRS1oSGeKb70GkNACNSUUjUwG9aRqWm0AFMNONNpgIxpKKQ0wEJ/KkpaaTQAlI1LTTQAlI1LTaYgpGpaZ1piFpCaKSmAlFFI1ACUUlBoARutJRRQAU2lpKpAJRRRSA7+iiiuM1Ciig0AFFFFABRRRQAUUUUAFFFFABRRRQAUUUUAH6UUUUAFFFFABRRRQAUUUUAFFFFABRRRQAUUUUAFFFFABRRRQAUUUUAFFFFABRRRQAUUfhRQAUfhRRQAUmaWm9aAEopaSgAooooAWmtRmkoEFFFFAwpCaDSUCPzb/4KC/HrVvGnji6+FukzTWHhvRyh1h42Km/nZVdYjx/q0BBIzyT7V8pbRHGqKMKowq+gr9D/wBsz4O+E9WvoNUvJDot7dK8jatFEXSFhjJuFHJjPXcoLJhjgrnb8VeOfgv4q8B2sN/eWAvNEuRvtta02QXNlOueCsyZUfQ4PtUSTKRwXnPHwrFfpxUcl1K4wZGI+tPaMsMryPbmomib0qShsczw4ZJMMTyKtxawekiZ/wBpaqNC64JU4PI96jkCwrmR1jX1dgKANpNSgm/i2H0PFWVYNyDkVkC4j1LQWkt4hNFpuXubi2h3hEdgFMjKP72QCfUCn2kJ+xx3MFwTG4yBgj9DQI2Ex34444pyrWbaXzmQRyfNno1Wbq/W1i3npQMu5298VVmvEXIU5PtXNXniIyMV37Vz2qGPWo+m7NOxJuzTbuTXIePrdb7w7eoeqp5g+o5rZ/tDzF68Vi+JJg2j3ueR5L/yNWhH6hf8E5fjg3xi/Z7sLO+nafXPDLDS7ppCMugGYX/74wv1Q19TE4r8e/8AglP8Vv8AhC/j1deFbmbZY+KLNokUnA+0RZeP8SvmD8RX7B5rVbEiUhNDUlMQhPFJSUNTARqbmlprUwEpGpTTaYBTaU02gBCaSikoADTaKQmmIGpKKQ0wEPNJS0jUAI1JRRTEIfypKM0lAC01jSk000AHpRRSMaYCGkzS0lMAopCaKQj0Cij60VxmwUUUUAFFFFABRRRQAUUUUAFFFFABRRRQAUUUUAFFFFABRRSZoAWiiigAooooAKKKKACiiigAoo4ooAKKKKACiiigAooooAKKKKACiiigAooooAKQ0FqSgAopKKACiiigApM0E0lAgooooGFIaCabQIWkoozTAwdL0lNd+KQkmRJbfTrEEqy7hucsMH8Dn8K3vE3wa8HeKPA+teE7jQbO10XVtzXUFjEtuWdv+WgKAYfODu68Uvw5tN02vakTuNzeGNT/ALMahf57q7ORtsbMegBNNyUrWC1tz86/hP8AsR+D/hP4pvb+TSfEl1BHduqaf/bscwaNWwu5dsanOMkEnHTmvXNY/Zv+EfiDTNVjfwtrEMklu3lRmWJSrk5yjq2Q2QOpx+teiyXXn3MshOS7lifqatW84FdbpxMlJnwj8Uv2GPtXwvuLrwNpGuweKoJT/o+s6zG4lhGckCMFS2AMDIr4ej+FF+JLm21e4IfzMSxyJ86MDyu5vmHuBiv3gXylgdyi5Ck9PavFtQ/Zn+G+vTSy3PhW1EsrF3khd4ySeSflYV4+OxVPCNXW56OGws8Qm09j8w/B9mvge1vrfTJJEivrdrW5jB+SaMkHay/xcgHnuAamaGSbAA47AV+hHiH9gvwNq1s76Te6hoU/VW8wTxj6q3P/AI9Xxf8AtHfCXxn8BLxEntY5dFuG2W+tW43JIf7pB+42Ox/AmuajjqWIfLF6mlXCVaKu1ocFcac1rEZndYQozudgP5143408cySXz29rdNJGjclG4zVvVr+e+dnuJpJ3PeRia86v12Xco969FROG5abxDf79wuZB9WzXS+HfEhvMRTNidf8Ax6uQ0/T7nVr63srKCS6u7hxFFBCpZ3YnAAA6kmv0G+Av/BLuS80+01n4k6xcWE0qrKuj6WQJI8jOJJCDg+oUfjWGIxVLDK9RnRRw9TEO0EfLFrqXy8msvxhrC2+iTjd88o8tR9ev6V+mPir/AIJ3/DPVNBlt9DOpaFqiqTDefamnUt23o3UfTBr8r/jB4T134f8AxA1fwx4gj8m/0udoSq52MvVXX1DDBB9DWWFxtLFXVPdF4jCVcPZz2E+DPjaT4c/Fbwl4miKhtL1OC5O/ptDjcD/wHNf0Q2l1HfWcFzC6yQzRrIjKchlIBBH4V/NYpr+gf9l/xU3jb9nn4e6w7+ZJPo1usjZz86IEb9VNelE4meoU00p4GKbVkhTaWkzQA0mkopM0wENIxopKYBTSaD6UlABTaCaSgANNoJopiEPFJRSGmAZpCaSimIKbSmm0AFB4ozTaACiikzigAzSfjRRVAFBPFJTaQgzRRRTGeg0UUVxGoUUUUAFFFFABmiiigAooooAKKKKACiik70ALRRRQAUUUUAFFFFABRR70UAFFFH0oAPrRRRQAUUUUAFFFHegAooooAKKKKACiiigAooooAKMUUnSgBaQtSUlAC0UlFABRRQaACkLUmaKBBRRRQMKQmgmm0CCiikY0wDNNZsKSe1LVXVZDDpd445KwuRj/AHTQ9hrc3fhzHt8H2EhHM++c/wDA3Zv61qeIpPJ0HUHBxtgc/wDjpqHwjCLfwrpEajAW0iH/AI4KPFwLeGdTA6/Z3/ka55e7Sb8jVe9U+Z4Vb3Q2rk8nitCGUhlHrWFb/wCsX61sc8V4v9rVuWzXY9n+z6d7lq3vJGllXcdjAjFX7GDdis21jJYVvWyiCEu3YV4FetKs/eZ69KlGmvdGXkm5hCvQcmuT+J3w50r4qeBdW8L6xEJLO/hKb8AtE/VZF9CpwR9K6aPLMWPVjmpa4OdxlzLodnKnHlZ+Cnj7wre+BfGWteHdRRkvNMupLWTcpXJViAwHoRgj2NeY6p/x+SH3r7x/4KeeBE8O/GLS/EcEJSHXdPBlcDCtNEdh/HYY6+DdRbdcMfev0XC1vb0Y1O58NXp+yqyh2Pub/glz8DbfxH461Tx9qccVzBosKR2Khg4W4k3AkjsyoDx/tg1+ojR18w/8E2PBf/CLfst6PdvFsm1m7uL9zjkqX2L/AOOoPzr6kxXwuZVnVxMuy0PscBSVOhHz1KkkIr80/wDgrB8OIbHXfB/jW2g2SXscmnXcirgMyYeMk+uGYfRfav0ykr5k/wCChXgU+N/2ZfEMkYX7To7x6nGSuThGw4Hp8jN+VGX1fZYmL76BjqftKEkfjKK/bn/gm5rjax+yP4SV23NZy3Vp9AszED8mFfiPX6//APBJvUDc/s3albk7vs2uzqBnoGjib+tfo0dz4Vn2r3pD6UE0laEgabQabTAGNJRTSaYBnNJRTaACkJoNNoAKQmhjSUxBTSfwoY0lMQUhOaDSUwCkNDGkoAKSikJoAQmiiigAzTeaDR71QCUUUjUhATmko5opgFFFFAj0GiiiuI3CiiigAooooAKKKBQAUUUUAFFFFABRRRQAUUUe9ABRRRQAelFFFABRRRQAUUUUAFFFFABRRRQAUUUUAFFFFABRRRQAUUUcUAFFITSc0ABak/GiigApaSigApaToKQtQIUmm0UUDCiikoAWm5opKBBRRSHn6VQBmkopKAFqK4jE8MkTfddSp/EU+koDY3PAt79r8M2aPgXFsv2aZQc7XT5T+eAfxq/4ghNxod/GBktA4H/fJrzjWtYvvBs51ywhN1bLgX9mvWSMf8tF/wBpf1H0Fei6bqtn4k0WK9tpPMs7mLcrHjgjv6VztPkcWa395SR88wqQw9jWvDOGAypq/N4ft4Nca0W+gMGTtn5IHoDgda24/A6s2yLULaWTGVXkBvxr4z2U5XsfV+0hFK5i2bIrAkED1q9cXHnKET7veoZreTTbgwXFu8Tj1GR9Qe9TRtGfu/yrzqmjszup2augUEU+ul0Lwg98omut0MRHyr0Y/wCFdDbeEtNt8Ew+af8Apoc13UcrxFZKVrJ9ziq5jRpNx3Z8Kf8ABQz4M678XPg3Yf8ACMaPPrOvabqcTw29rEXldJAY3C49ypPstfMnwe/4JAfEzxhJbX3jW8sfCdlIQz27Sedchf8AdXgH6mv2bht44FCxxqg9FGKlr6zB4aWFpezcrnzeKxCxFTnSseb/AAq+B+i/Cf4Z6F4OsGe6ttJtVtknk4Z8ZJYgdMkmsi+064tJ3R4XTaf7pr1+mtGrfeUH8K48XldPEe9B8rOjC5hUw976o8UZD361z3jvw3F4s8G65osy5i1CymtWGAeHQr3+tdz4pRI9dulQBVDDgfQVhzn5TXxUoujUcb7M+vjJVaalbdH87OtaXPoesX2nXKNHcWk7wSI3VWVipB/EV+rX/BIlyfgf4sUkkDXTgen7iOvg39tvwEfh9+0p4xtI7f7PZ3twNRtwOhSYbyR/wIsPwr9A/wDgkvprWv7O+s3bLgXWuzFTjqFiiX8ec1+nUJqpCM11R8BWh7Obi+h9t01j6UrU2uowCm0vNNJpgBNNopCaAA0nSim0AFNY0tNpiCkY9qCaSmAU00pPam0xBRSHgU2gBc0lLTSaAELZooooAPWm9aD19qKYCfWlpKDQIT2pO9HvRTAKKOaRqAEPtRRRQM9DoooriNQooooAP50UlLQAUelFFABRRRQAUUUUAFFFFABRRRQAUUUUAFFFFABRRRQAUUUUAFFFFABRRRQAUUUUAFFFFABRSZpCaAF3UmaSigAooooAKKWkzigAo3U3NFAgzRRRQMKKQmkzQIXdTaKKYbBRmkzSUw9QooppagBc02igmmL0Cmk0ZpM0AV9ShFxp91ERkPEy4PuDUWm6n9j+GE9uAEe1XyVA6mIuVVvyB/Kp7qQx20zjqqEj8q4W8unj8N6Y5lYyXlrErgN2UsxyPcv+lc9ST5lG11qdFOKtzX1NvRdPS8eSS3ja7hjA3MVwRn2zWxBa2ZJcEhc4yDgAkcVx1hGfsyMONwqSTxJfWm6Nb2ZRHgKu/j2GOlcNPCYWnT56kd9dWd1TEV6k+SD2OpvbGNcPuEi/3gRx7GmWU0Wn3EcxRW2t91xx9awbXxlctbmKSC1miYjdmEKQfXK4/wAmtnxBqseqDTREgiVIjlV9yPX6V5dTKpTXt8NtukdkMco/ua/zPSdP1mz1LAt51dsfd6H8qu15lpEKR31vgshLgFg2CK3NL8Ryvdag9xceZFAh2AYAbBxnHr0r1PrE6CjHEJXfY810I1HJ0HdLudTcalbWv+tnjj/3mFFvqFtdcQzpIf8AZYGvILiZpGJJJyc0lveSWkyyROVZTnrXh/23Pm+DQ9b+yFy/Hqe00h6GqGhagdT0yGdhhiOatzSAxSBSCwB/OvqI1ozpqouqPn5QcZOL6Hkmt3BuNWu3znMh/nisyc/KasXGVmfd13HNZ15dbFIHJr8zk3Obfc/QIJRgl2Pi/wD4KFfs033xg0PTvEvhm0W58S6QDFJbIAHurcnO0E9WU5IHua9r/wCCffgPUPh5+y/4c0/VbOSw1Kee5up7eVdroWlYAEeuFFdt4kLLZzSPwNpIr0Xw3ZjTvD+nW6jb5cCA8d8c/rmvu8pjXjS5aisuh8jmToyqc0Hr1NKkJopDX0B4wmaSkpCaAAmkoppNAATSGim0wCkNFJk0xBSHj3oJptMQc0UU3rQAUUlIWoACaSiigApp9qCe1J+NUAtJRRmkIKbz3oopgFFFBoAQ0lFJQAtFJRQB6JRRRXEbBRRRQAUUUUAFFFFABRRRQAUUUUAFFFH40AFFFFABRRRQAZoopKAFooooAKKKKACk/nS0UAFFFFABRSbqTNAC5xSbqSigAooooAKKKKAFpKQtSUCF3UlFFAwoopN1AhelN3UUlABRRSbqYC5pvWiimAUZppb0pKA9RSc0lFIW/CmIUtTaOntTS3pQAtJSUhNACSqJInQ9GBBryGZpYJILR23G3QRn6ivVtQYrZzEAsdpJA9Mc/pmvMLO1a4uncjqc14eZ1pUrKL1PYy+kql3LY6XTcfYoPXB/nWDdbZppSzYJY10MMQt7dS3GBgD6mufurf8A0lx715dfFKrRhHt/wD0aOHdOpKXcbbqY2xncDW7abnkTJyqrx9KzLe3CrliFHvWla3UUeAmXP0rOlmFXDwcIdfwNKmDp1pqUjTkmZmyOBjFEcbscKrHPpV3w3YnW9USLYRCPmc+1epRW0UKhUjVQBgYFZ0MHVzC9Wc7Dr4ungrU4RueVW/h3Ub9h5Vq+P7zDaP1ro9J+HgRhJfSg9/Lj6fnXbYx0Fct4gt9cvpnWKaOysR1ffg49Sa7/AOzaGFXPJObPPePrYh8qaijR1LVrLRLNoo5oYpFXCRk/0Febt4gvVeYpcuvmkltpxmodQggjuPLt52um/ilIwCfaq1wgjRcduDXm4idbFRlUiuWMOx6GHpUcO1GT5nLuRySF+M8mqtxGqnOMn3q1GAuWP4VRvpflJr18pwMY0/bVY3b2OLMsW3P2VN6Lc5nXl+1TW9tjImmSLA92ANepfdAA6DivNLBTeeLtLjA3KrtK3sFUnP54r0uvqD55hTaM000xCk02imk0ABNJRSZpgIeaDxRTTTEBpDxRTaBC84pM4opppgGaSiigBCaSiigApCaCaSmAlLRSUCCm5zSsaSmAUlLRQAU0tSk9qbigAopaKACikJooFZnolHpRRXEbhRRRQAUUUUAFFFFABRRRQAUUUUAFFFFABRRRQAlLRRQAUUUUAFFFFABRRRQAUUhakzQAuRSZpKWgBKKKKACiiigAopC3pSZoAXdSUUUAFFFJmgQtJmkzSUALmkoozTAKM03NFP0D1CikpN1AC5pKKQtTEFJmjNJxQAUZppakoAU8+1JQeKbQApNJR9abTENmjSaKRHzhkdQV7EqVz+tcZDZfYZtijb3BcEE/gRXaMan0WWG38RWsk+0JJHJAC/8AeJVgP/HDXmY3BLFJO9rHo4XFPD3VrnIyWqx+U5mWbI+ZcHI/Oq62VtJrEH2qQxWrMDIyjJ21J4q16VPF96luiRQwv5Sp5YxwMZx9aqSXS+UGkwp7KteBUhQo03Ti7yTv/wAA9qEqtWSm1ZNf0z0Hf4Nj0+W2QwOCMkZO9iOnPXNcRDDB58nlxFY85VS2SB/WqMMkl1IOFRBzzzW3Y6dtQM8gOeS2aVSnUxlFOFLW/TRWCnKGFqNTqaeZ2Hw7ZFF6gjw4K/OPT0/z612frxXJ+B7yMC4tP+Wm7eDjjHArra+hwVGdChGnPc8LFVI1a0px2OW1TxPfWzMsdk0IH8UgJ/lxXOaxqmo6pbmKaTKHB2LgCvSmUNwQDXFeJtFOmrJdow+zE5bP8OT/ACrJ4H2zft6r5fuNIYlU7ezpq/3nH+SIVI/jxyarTRmaENk9TkfTH+Nai2M9/FNNAhljiGXZecCqtnAHkkBHVcV6aw9KNP2UV7pzOtUlP2jepkSXGFIzwKzNUuNsYwaZLdbJnUnkHBrL1a8xGcntWnuxXkZayfmWvAm688X3s2Pkt7bb+LMP6Ka9F5ry74Ral52u6/bt12xSL6kZYH+n516hmqjJSV0TJOLsxDSUUhNUSBNNopCaYgNJRTaYBSUUhoEBNJRTTTAGNHNJQT2oAC1NoooAKQ0E02mAtJRS0CEpCaUmm0wCiiigApD+tL79KbQIKT3opaBiUGikNAgopOlFMo9GooorhNQooooAKP1oooASloooAP5UUUUAFFFFABRRRQAUUUUAFFFFABRRSfWgApelNzSUAO3dMUh5pKKACiiigBaSlpKACik3UlAhd1JRRQMKKKSgVxaTOKTNJQAuaSiinYAopu6imAu6kopN1AegtJmkpKYgoo3U3mgBc+lJRTS1AC0maDSZoAWm7vSk70hNMQtIT6UhpKYBQTTSaKACmtObZkmEZl8t1YoBkkA8gDvxmlz6VHMN0TgdwRSewzhfGtte2HiJbq1me80hwDbzFc7f9gN/s+hrSt75tS2yThZHxjcyjNesaha2Gq+G/Mu22WzRCZpFPT5c7vevHbXWvOXyDtkRHJjkZcOB0x9PavJtClWvU5bPuempSqU7Qvddi5dW3lnzUGF7ipbW8MYCnlc5IpWu41XDfd7k1RaaJS3lvuHbiu6WYYWF1zrQ51g8RPXl3NzT9Yk0+/juogFKnlR0I7ivV7G8jv7WK4iOUkUMP8K8bsdJvdRiEyhLe37zTuFX/wCvXU6d4w07wrpa2iTNqNxkkmMYXPoM9q53j6M3pt3L+p1V69j0KsnxNdQW+i3Pn7GRkI2u2Aa8+1D4hatqGRAFsoj3HX8zXO3N3NeSFpbtpXP/AD0Oawq1pVaUvZR+/Q2p4dQqL2kvu1Oo+Fd8/wDal1ZvyjRlx6cEf41s+IvDMWlxy30EoWPdkxN7ntVL4caNdR3zXssBji8sqrOuCSSOlO+I2uK9zHp8b/6sb5MH+I9B+X86rLfaKglP+kTjuT27cDyHxFC1rqtw6E7Wbf8AnzXP6lKzN857V1XiRgzJJ3YbT+FclqjZQN+Fc2Mwfs4SqU27b2OnC4nnlGE1rtcT4b3H2P4lGPPy3NpIn4gqw/QGvaq+fdCvPsfxA8P3GcBp/KP/AANSv8yK+gGNe9TkpQTWx4004yaYE0lFITmtTMCaSg4puaYB1pDRTTzTEGaKKaTQAZo9aSj6UABam0UUAFIx/OjNN9KYBR2paSgAoag8U2mIKKKO9ABRRSMaRIhopKKZQUUtJQIDSUUlAxaKSigD0aiiiuI2CiiigAooooAKKKKACiiigAooooAKKKKACikyKTdQA6kyKbRQAtJRRQAUUUUAFFFG6gAopu6igQu6koooGFFFJuoELSZpM0lAC5pKKM07AFFJupKYC5pKKTdQHoLSZpKSgQtJSbqQmmApNJ1opN1AC0m70pKT3oAKM0m6k+tAgzRSZpKYBmko3UlMAJpO9H1pu78qAFJpKSk3UABakopM+lAFuO6iutBuNCu3NvBIhWG5HRe4Vv6eo4rzywtbWG1mlM7+anAXy+Cc8c56Y/nXbfXpVCfQ9PuS2+zhJJySFAJ/KvLxWB+sNNOx6OGxfsLpq5yctxEQrTybvUA4qGTxJZW64DKpxjrzXVf8ItpIbP2CFj/tLkVNoPgnw/retajpl3p0AWa3juI3jXa6lWKtg9uq1wRyWO85HoPNeiicGfEn2n5RJsi9c/yqWG8UYYPk+mea7/UPgBYyXm+w1GW0tyP9VIvmEH2ORXI6z8Pb3wxqkVrcyRmxuH8uG96Lk9m9DXS8uo0481722Wxj9fnUdkrXKNxqLeXvdyiegre03xnZaPEPsekRy3OP+Pq6fcc+oXHFcT4gt5NJ1Caylfe0MmC394YyD+INT28okjUj0rxquOmpPlVvxPRp4WMormdztLn4pa3cB085IUbvGgBH0NYU19JPM00krSO/LMxySayn+6WHSo/PKRnuK9LLsXVqT9nVW+qPPxuGpwhz0+mhZ1xvM08sOqMDXI3VwJoHA6+ldNJN9os3A5yMVxV3J5c3s3Fd+NqumlF7S0ZyYWmpttbrU5+9vTZ31ldZx9nuY5c/Rwf6V9O7gVB7V8o+Ism3mXvtNfTHhfURq3hvS71TkT2scnT1UU8uqKdFRe6FjqfLVclszUNFITSV6x5wHmkJoNNoEFFJSGmAZpKKCaABjTaKKADtSE4opKYCUuKSigAoJx3pM0lMQUUUUDCiiikSFNpWNJTGJRS0lAgpDSmm0DQUUUUAFFJRQI9HoooriNwooooAKKKKACiiigAopN1JuoAdSbqSkoAXd6UZNJRQAUUtJQAtJRRmgAoo3UmaBC0m6kooAKKKKBhRRmm5oEOpM02igBc0lFJup2D0FozTc0U/QBdxpKKTdQAtJmkpKBC5NJSbqSmA7dSUlIWoAWk3DpSUhoAWkNG6m0ALupKM02mAuaTNJSZ9KYh2cU3NJSbvTmgBfem7vSjr1pKACj9aTJpv40wFzSZpKT8aAFpMjikJ9K57xV4/8OeB7fztd1mz01cZCzygO30XqfwFaQpzqPlgrsUpKKu2dBk96TIHWvnDxR+254Z0+4kg0LSb3WivAmkIgjP0zlv0ryX4g/tTeLPHWntYWscfh6yk4kFm7GVx/dLnGB9AK+kwnDuPxUlePKu7PNrZjh6Set2e8fGT9p/R/h+JtM0Xy9a15flKq2YID/tsOp/2R+OK8/8A2SPjRqerfHhn8T6o00usQPbRGQhY0YfMqKOijjgDvXzFszn1oWWS1lSWF2iljYMjoSCpHIIPrX6HDhrC08JOgvikvi8z5x5pVlWVR7Lofs/XF/FqAz+GIgu3zFu4du7pktj+tfD/AMIf25vFng2/trPxczeJNDAEbSFVW6iH94MMb/o3J9a+qPiF8SdD8ffD7TtR8N6pDqNpPcKWaBwWjIUna46qwyODX5VjsoxOXVEqyvHutj6vD4yniI3g9TkPFloL7TdN1cSK7Ogs5kUco6DAz7kfyrMtVMMSqeoFVoNYuJY5bORg8M0qzOWHIYZwc/QmrrNlmr4DMHRq01OmtU2j63BqrTm4z2aJo5BtYE1FGgnmSAH7zYqBpfLb271Nokq/2lIx5IHy1WHxcKVKGmq0+Qq2GlUqS10evzILzOl3bRHlO1cdrjeVO4B43ZFdZ4uvoYcvKwjI7sQBXm3iLxVpNqqNcalawGRSy+ZMozj05r0sVF4vD3oq5xYZ/V61qmhQ1iTzFfnrXtvwJ1b+0Ph3aRE5ezlktm49GJH/AI6wr5svvHWg3CL5esWbE/8ATYV6z+zL4igurrX9MinilV/LvI9j5z/C+PyX86xwOHr0KjdWDV+6NcZUp1Ie407HvVITSFqSvoDxAopKSgA3UUU0mgAJ9KSjrmkoAWkNDNTaYB0opf50lAhaQtRmm07CD60UUUDCij9KKQgpGNKeKaaACij6UmKYw6UtJQaBDaPpS0lMoKKKRqCROaKKKRR6RRSbqTJriNR1GabmkoAdupN1FJQAtJRRQAUUUUAFFFG4UAFFJupKBDs0m6kooAM0UUUDCikzRuoELRTc0lADt1JmkopgFFJmjNAC0m6kopgFFJmkJoAdSbqbRn1piCik3GkoGLupM0mfWjd6UCFpCwpM0lAC0lJupKAFLfhSZpM0hPamAvApCc0n8qTd7UxC0m70pKCaADrSbsUhNJQAtJSbqTNAC7qTpSZ9KSmApPpTaMim5oAXdWH4x8aaP4D0SbVtbvEs7SPjLcs7Y4VR1JPpWpe3kGm2k1zcSLDbwoZJJGPCqBkmvgT9oL4sXPxS8VMYnaPRLItHZwdj6yEercfQYr6LJsonmlXtBbv9DzsbjI4WH957HT/Ez9sfxF4ikns/C0I0HTzlRcsA9y49c9E/DJ968Bv7q81m8ku7+6mvLmQ5aady7t9SajKbTTlcCv13CZdhsHHlpQsfH1sTVrO82PgjEf1q0pyKqBgalWTFexFpHG9SxUMjZpd+RUbVcpCSK8y5rU8M+LdX8H3guNKvZLYk5eMHMcn+8vQ1mSVH3rgrU4VYuFRXTN6cpQalF2Z794f/AGmLJYVGraVOkwHLWjBlPvhiMfrSeIv2ppFbboWkLt28zX7c5/3VPT8a8C96Xbla+NXCGUKq6nst+l3Y9557juTl5/wO11r9oLxvqM0jJqS2MbcCK2hUBfoSCf1rk7n4leLLqYySeItSDnglLllH5Ais+aIGqUkfXivSjk+Bw+lOjFfJHFLHYmp8dR/eSX+s6hqjFr2+ubtuu6eZnP6mqLKW7kj3qRlphyK6Y0oQVoxSMHOUndshK+1anhPxZq/gXXbfWNEvJLK+gOQyHhh3Vh3U9waobaYyCpnShUXLJXQ4zlF3TPvz4K/tS+H/AIlQW2narJHoviMja0ErYhnb1jY+v908/Wvb88cV+SO0qwYEgjkEdq98+Dv7W2v+BfI03xF5mv6ICFEjtm5gX/ZY/eHsfzr4fH5C1ephvu/yPew+YJ+7V+8+8aSue8E/EDQfiHo6anoOoR31ucblU4eNsfddeqn61v596+MnCVOTjJWZ7aakroDRRR71IwpuaC35UlMBaSilpCEpCaCaSqAPeiiigAooopEhRQTTTQMM0n40UUxhR9KWkoEBptLSd6Bi9zSUUUwA02l60lABRRRQGh6LS0lFcJsFFFGaAClpu6jNAC0dKbmigBd1GaSigQUUUUAFFJkUbqAFpM0maSgB26kyaSinYAopN1G6gBaN1NopgLupKKTdQHoLRTc0lAhc+lFJSbqYxaTdSZooEG40Um6kzQApak3UlJuoAdSZpC1JQIXPpSUm6kPNMBSwpMk0mfekz6UwF4pN1JScUALSZFJmkoAWjNNJ9KQ5oAXdSUm6kzTAXNJSZ70maAFNNJopufSgBc0m6ivI/ip8Um09JtO0yXaeVlnU8/RT/WuevXhh480jejRlWlyxKX7R3xKsdJ8EajotrOJdQvAIGEfIRc5YE+uAR+NfEt58zk13vjrVZL6VQ7ljkscmuAuG3NX7twlRdPKIVZKznd/5fgfB51JfXZU47R0M+VagIq3Iu6oWWvppI8hMizinq9Jt9qTFRqMl3UjNUfIprMarmCwrHmo2pd2aQ1i2UG6nK4qLNJu96i4yZuaqzKOtTbj61FJUy1Q0VGXHFRMvWppKhauKRshtNPNKabWYxhpCM0/rRtoGbPg3xvrfgDWI9T0K/lsbpDztOUkH9116MPrX2d8H/wBrbQfHHkab4iEegay2FEjt/o0zf7LH7pPofzr4WK0hWvIxuW0MavfVn3O2hip0HpsfrQrhlDKQykZBB4pK+C/gZ+07qvw3kh0nW2l1Xw4TgBmzNa57oT1X/ZP4V9v+GfFGl+MdHt9U0e9ivrGYbkkib9COoPsea/Osdl9XAytJXXc+loYmGIWm5qUvrR060hryjqFpufek60CmAUUUUAFFFFIkKDSZ7UlMYUUlFAC0UUlAgpCaM0UygpKKKACkJoNJQAUUUUAFFJmiiwj0XdSZoorhNwooooAKKSjdQIWim7qMmgBd1G6m0UBoLuNJRRkU7AFFJupM0AOpN1JRTEKTSUmaN1AxaSkyaSgQ7dSbqSjNMAopM0lAC7qTJopN3pQAtJupKSgBd1JSbqTNADs0m6kpM0xC0U0tSUwHbvSkpu6kNADs0mTSUmaAFpM0n1pM80ALmk+tITSetAC7qSkLUmc0wFzSZ/KkzSFqAFpM0lJmmAtJupKbuoAd1pM0mainnS2heWRtqIpZj7CjRK7Ha+hynxG8UHRtMa2hfFxMp3MOqJ/ien518v8AinUjNK+TXp/xB15r65mlY8uc49B2H5V4lr90TI3POa+PrVXiq+m2yPpqVNYelbr1OM8RTlrg57CuZmbk1r6xNumc571hyNzX9f4Kh9UwVHD/AMsUvwPxDE1PbYipU7tjWNRkU80ytmZDcUm2n0lSBGVpjCpqjIqWikRYpjA1OV7daYy1k0UQHioy3ep2WomWsWi0JupCaCtM21IyNx1qJlzU7KajKnPSsJItEG2jFSFfak2Gs7FEeKKk2Gk8s0rARlabtqbyjThGKOUCHyxXe/CP4uaz8I9fS8sZGn0+RgLvT2Y+XMvr7MOxri1jz7VIIc1FTDwrwdOorplRqOnLmi9T9M/AvjrSPiJ4dt9Z0a4E9tKMMp4eJ+6MOxFb9fnp8D/i5efCPxQsxLzaLdEJe2oOcj++o/vD9RxX6A6Xqlrrmm2uoWMy3FpcxrLFKvRlIyDX5XmmWyy+rb7L2Z9bhMTHEQv1Ra/nRRRXhncFFFJkUCFpN1JuzSUxhRS0meaBC0UUnagAzSGg80lAwpaSimAUE0ZxTTQAUUUUDCkopKYhKKWilcZ6JuFG6m0Vwmgu6jNJRTsAUUm6jdQGotFNopgLmgtSUm6jUQtFITSZNFhjqTNJSUCF3UlGaTdTGLRTc0UCF3UbqaTigt6UALRxTc0lADt1ISaTIpCTQIWjIptJTsA7dSUm6kzzQAueKQtSUm6mAv60U2jpQAu72pOtJupKAF3UmaTcKQtQAv1pNwpKTdQA7NJTcmkzTAdu9KTPrTd1JQA7dTc0m6kyaYC/Wgt6Umfem7qAFozTc0maYDs5pKbupKAF3VzHjzUvsel+SDgy/e/3RXSlq8p+JWseZdSIrfKnyjn0rysyreyo8q3kejgaXtKt3sjyvxZfGSRzmvLNZn/eHmu28RXW5m5rz7WJN2459a83JaKr5hQpPrKP5npZhU9nh6k+yZyGpSZkIrNart426U1Tb86/sGpvY/DIkbHP0pKU4FJ9KxLCilFO2iiwDCO1M21KwptS0BGwxTdtSN0qOoZSI2WmMtSNTTWTLISopNlSGgVFhkXlmlMNTqvfrT9oPajlC5SMHtSfZz6VoiIU4Ril7O4cxmfZye1L9nPpWk6qvtVWeQLUSgojUrlYxAdRUbFV61BeagsXetbwv4J1fxkwkgT7NZ97iUcH/dHevJxmPw2Bg6leSSOzD4ariZctNXZnfaEU43Cnx3kbdDXr2jfAfSIVVrx7i9k77nKr+QrWn+BXh+dP3VvNbt/ejmb+ua+KfHOXxny2lbvY+iXDeKcb3VzxaNFlHFfUn7InxMlDTeCtQkZ1CtPp7MegHLx/T+IfjXj2rfCG+0T57OT7ZAP4WGHH+NU/CWr3PgfxZpmswJtnspw7I3GV6Mp+oJFfTyrYPiDAy+rTUna/mn6HjuliMsxCVaNkfofRUcFwlzbxzRnckih1I7gjNOzX5Nazsz6xa6hn3pKWkpDFpKKKCQoopM0DD+dFJS0DCikopgFJmg0lABRRR/KgYUlH1pM0xAaSlopAJRRRQI9C3UmaKTNcZsLRSbqTdQA6kzTaKBDt1JmkzSbqYC0Um6kz60AO4pN1JRmgBc0lJupMmgB1JuFJSZoAXNJSbqMmgBTRuptJn3piHbqSk3UmaAFozTaTcKYDsmim5zSZoAdupu6k3Um78KAHU3dR+NJn86AFyaTNJuNJmgB26m5pN1JmmA6m7qSjdQAGjNISaTigBd1JTc0c0wFzSbs0h4pN1AC9KN1N+tJupgLSZpM0maAFzSUm6koAUn0pM0maTcaAK2p3YsrGaUnBC8fWvAvF2oGaaQ5zzXrPj/Uvs1iIQcFuTXg3iG63M/NfH5jV9pX5VtE+lwVP2dG73Zxmuz7i1cTqUwYuM9q6fWJvvVxV9ITIfyr08gmqWZ4ectlOP5nPmUXPC1YrszAuvvGqhqzc/eOaqM1f1tU3PxOI2ikZqTdWJQ8fnUi/rUWactMB9MNPpGpgR0xuKkpCKhgQNTKmYVGy1jJGiI2HtQop23NOVcVAxRUir60iipAtWiRVFDttXNL0qhd3O2lKXKhpXFnuAM1jX2obVOOT+dQ6lqghRjmvSPgn8N5dYaPxDq0f7nObS3cdf+mh/p+dfJ5znNLLaDqzevRd2ezl+AnjKqhET4dfCCfVPK1LXY9sTYaKzYdfd/8ACvdtL0eO3jSOOMIigAKowBV+zsBkADArptN0kNjK1/OGZ5riMyqupWl6Loj9ZweBpYSHJTRQ0/R9wBIrbt9DUqPlrYs9KKgYGRW1a6eMAY/Svn5VD14wONuPDIdfu15942+F8WpwvJEnk3IHEijg+xr6Dj00MOlVL7QVlQ/LXdgc0xGX1lXw8+WSOfE4Oliqbp1Y3Ro+Cbj7T4R0cswaVbWNJMHOHCgMPzrbrhvDnm+HdU8hjizuTgqeiv2I+vT8q7mvu8LjFjoe169T47E4d4WfJ06BRS0ldhxhRupKKCrCUtFJTGLSUUE0CCkzSUUAFFFFAwopKSgQfyooooASiikoAXNFNoqgPQaKbmkriNB26k3UlJuoAdupDSbqTdQA6jim5ooAXdSbqTNJk+lAC80U3Jop2EO3Um6m5o3UAL/Oim7qSmA6k3Um4Um70oAcTSZx3puaKAHbvxpuaTNJmgB2aTNNo3UALu79KKbmkoAdxSbqbkfWk3UwHfWk3fnTc80Z/GgB26m00tRQA7dSbqbxSbjTAdSbqQmk3UwFLGkJpM0lAC7qTNJupMmgBc0m6kpN1AC0FqbRmgBd1JSbvSkoAXdSZpM0maYhaQtSVT1e8Fnp80mcHbgVlWmqVNzfQ0pxdSagup5l8QdW+0XUgDZUcCvINauNzGuz8UX5lmc56mvPNVmyzc18Fdyk5PqfYWUVyrocxq77g3pXG6hJtkz2Brq9Ubg1x+pN8xrvw9R0qkZrdO5yVYqcXF9TKuyNx9aot1qxcSfyqkzGv67wuKjjMNTxENpJM/Ea9F0KsqT6MG60lMZz60B/WtrozsTKxqQNVfdmnLIadxWLCtT6gEgqRWrRMkUim0/rTW4oYDGFM21LTSvpWbQyPZTljpwFSKtRYdxqrTuMUcKKrXE+1TzgUpPlGtRl1dBV4NYWoX21TzT9QvsZwa5jUr6SaRIIVaSaRgiKoyWYnAArx8ViVTi23sdlKk5NJHWfDXwbJ8QvFiQyBjptqRJct2Pon4/yzX19punR2tvHDEioigKFUYAFcX8IvAcfgnwxbWpAa7k/e3EndpD1/AdPwr03T7XzHHFfzZxBmssyxTafux0X+Z+uZXgVhKKX2nuXtJ0zJBxXX6bpuAuRVTSLP7vFdfYWY2rkV8XOR9HCJHa2OFHGK0I7QcHFXYLUACra24HauVyOhIpwwDoRUr2oZcYqz5A7U9VK8HmpuVoc3q2liSNiBg9Qa1IH8yGNz/EoJq3dQho247VStxthQegr6/h+b5pxPms5iuWMiT6UUUV9sfLiUUUUCCik9OaKADNJRRQAUUUUAHSkoLUlACUtJRQMKKKCRQSBptFFUMKKSigVzvt1ISabmk3VxGo7rRSfjSUAO3Um6m7qN2KYhc0U3dRTAXIo3U2kzQA7dRTc0maAHUm6kz70maAHbu1JTd1FADv1pN2KbSE0AOpKbmjNAC7hRupu6k3UAO5pKaaNwpgLuopufakoAduxSbqbn86TNMB3NJkU2jNAC7qKbupKAHZpN2abmkLUwHUm4UhNJuoAXdSe9JupKAHZpM03NJuoAdSbqSk3UwFzRTd1JQAu6kzRmk3UxC5pN1JScUCFzXI/EDUvs9ksIPJ5NdZuxXkXj/V/tF5Lg/KDgV4ea1eWkqa3Z6+XU+ao5voefa5dbpGya43UZuprb1a6yx5rl9Ql4NfMxPdkYepSZzXKah95q6S+brzXOXx+Y10xOeRgXYO0mqTNV3VJBHGf1rFhuhISM9K/c+Cs2VSg8BUesdV6H53n+DcaixMVo9yyW9KM5qJjQsn4V+m3PkibdTg3vUO6l307iJw9SrJ71UDVIsgq1IVi4r07dmqyt71JurXmIJaTFNVs0vpSYhyr3pxbbxTPM6VBLcbelQ5WGlcW4uAi+9Y19fYzzipL65wp5rnNRuupzXl4itZHXThch1G+255rtP2efCf/AAlfjCTVZow9npeCpYcNMfu/kMn8q8o1O8PTOc+lfZ/wR8EL4L8B6dbOm27uF+03BxzvfnH4DA/Cvy7inMnQwrpxestP8z7DJcH7WspS2ieh2VvtCjFdPpNp0OKytPt9zDiuw0m06cV+F1JH6ZCJsaTaYxxXUWdvhRxVDTLXgcV0NrDtxxXnykdsVZD4YuBVhI6kjhq1HDxWZlKoVRDSmGrnk0GKixj7Qy7mHCN9Kyo1wij2rd1D93C59qw+1fZ8P0379TpseFm1RNQiFFFJmvsT5wKN1JRTAKKKKBhRRSE0CCkzmiimAUUUlIYtJRSE0CAmkooqgCkpaSgQUUE0UCsdzuo3UzcOlG6uQ1HZNJTcn1ooAdxSZpuRRmgBd1FN3UfWgB1Jupufek3UAOLUZpuaTNADs0m70pKQsKYDt1Jmm7jSbqQDs0bqbu9aTdTAduNJmkyfpTfrQA7dRupu6k3GmA6kLU2k3CgB26im7qSmAvFG6m5FJuoAdSZpKSgBd3pRk03dSUAO4pN1NzRuoAWjNNzSUwHbqTNJupuaBDqTdSUmaLALRTd1JTAdupKTIpN1AhaTdRSUwFzSUm4Um6gCjrt6LHTJpM4YjArwbxNqHmSOc9TXpnxE1jy0FurfdGTXiWu3m9m5r4nH1vbV3bZaH1WDp+yoruzC1G43MawLyTg81fvJsseax7p85rkR0MybxutYN7yxNbl593FYOpNtUit4mMjltYm+96Vx1xqRtboPn5c4NdLrkn3sGuC1q42hua9nA4iphK0a9J2aPNxFONaDpz2Z2VtfrMgOeDU/mBu9Q+Afhr4n1r4Z6p40itDJoVhdC3L87yMfM4HdVJUE+/saqJMeCDX9E5dmMMfh41Y79T8wxWGeHqODNISFfpTw4as9bjOKkWbpXrKZxuJeDYpyvVUTZxTt/vWnMTylpZKkEvoapq+ad5gFVzCsXlm4p4l45NUFkpfO21XOTylqSYetULi72/Smz3Az1rMurgDJJzXJUqmsYkOoXxwQPzrl9SvjzzV/Ub0FTiuY1K44xmvncVW31PSpQOw+DfhVvHfxL0uzdd9pbv8AarjjjYmDg/U4H41942sQyABxXzx+yL4ONj4d1HxFPHiW/k8mAkf8s06kfVs/9819JWMJZhX4NxHjPrGLcU9I6f5n6ZlGH9jQT6vU2dJts4NdrpNr93isHSbX7vFdrpNrjbxXxNSR9PBGxp9uFUVtW8XSqlpFtAFacMdce5VSVlYmijqysYHakjWpqo86UhmwUwoMVMaguJBFEzMcACmk27Ii5h61ONwjB9zWUW9KkuJjcTM57moq/UMvw/1XDxh16ny+Kq+2quXQKKKK9I5QoopKBC0maTNJQApNJRS0DCkpaSgQUUZptMW4u6koopjCikpaBCfWj3opM0ABNFJRQFzttw7Um72pM0m6uQ0HZpPrTc+tFADs0m6m5o3UwHbqOaZk0UgHE0m6m0m6mA7dRTd1JQA7ikLU0mgmgBd1FN3UlMB2RRupuaTdQA7NJ+NNoyKAHbhSbqbupN1MB1JupKTNAC7qSk3UmaAHZpN1JTd1ADqM03JpKAHbvSkpu6jdTFcWk3UlJmgB2TSU3dRmmIXNJuJpKN1AC0lJSUALupM0ZpN2OlMBf1ozTc0lAC7qSlpuaAFqO6uFtYHlY4VBk07d+Vcl8QNaFjp/kK3zvyfpXHi63sKLn1OnDUvbVVE848Za0bq6mfdnJrzPVLsszc1t69qG5m5rj7ubexr4eOurPrH5FW4k3E1nXDVambqazrmStUZMp3TdTXMavcbVbB5rd1CcJGa4vWbz7xrogtTGTOa1y6GGGeK53w34S1L4j+MNM8OaTH5t9qEwiX0QdWY+wGSfpVrW7oYbnivtP9iP4FnwjoD+ONattms6tHtso5BzBbHndjsX6/QD1NevhqTqSseZXqcqufQHgf4d6R4F8A6f4RtLdZNLtrb7O6SDPnZB3s3ruJJP1r89/jt8OW+FPxK1LSI0ZdNkP2myY5OYW6DPcqcj8K/S/dXz1+2Z8Mz4u+Hi+ILOLfqWhEyttGWa3P8ArB+HDfga/QMlxf1XEKDfuy0PmMbR9tTb6o+GN35U7fVSGcNxmpd3pX6ipXPlbFlZiKnWaqKmpVarUibFxZB607fVUNTg1a8xFix5p7Go5Lg+tRliahkzUym7DUSO5u2/Gsm6uTyd2av3Ck5z0rMmh9q82rJs6YJGPeXBdjms6206fWdStrK3QvcXMqxRqO7McD+dat3a8EjivTf2Z/BI17x22q3Ee620lPMGRwZWyF/Lk/gK+XzSv9Vw860uiPXwdL29WNOPU+p/Bvh2Dwn4a0zR7cDyrOBYsgY3EDk/icn8a7XSbfcRkViWq75BXYaNb/d4r+ea9Rzk5S3Z+r0oqKUV0Oi0e1+7xXZabb4A4rD0e24HFdXYw7VHavLmz0I6Iv28fFaEKdKgt4+lXolxzWaOGpLUeo4p4oUUrUzkGtWDr170gU+7Vq310trAzt26VyM0rTSM7dW5r6TJsF7ar7aa92P5nn4yt7OHIt2NopKK+/PnhaTNJmkoAXNJS0lAwooooAWkopM0WELSZ9KSiqAKKKKACkoooELRSUhoACaSiigAooooEdjuo3UzdQTXKajsmkpKSgB26k3U3dRu/CmAuTRTaSgB+6k3U3dSbqAHZopu7NJxQA7IpN1NyKN3pTAdmkptJQA7Io3U3dSZoAdk0nFNooAXdSZpN1JuoAdSbqbmjNAC7qM1R1TWrLRbcz3twlvH/tHk/Qd68q8WfHRYw8OlJsHTz5MFvwHb8a56uIhRXvM2p0Z1Nkeg+IfHGn+H5TA4kubkDJihHT6k8D+dcXqHxX1Vt32W0tbZe3m7pD/MV5lb/Eqw1LWLrz/LtZ2wWEjllJxyTgZyTk9O9ZWoeO1LMTNDFECeVOc/Svn6uPrSk1HRHsU8JSjG8tWdrqXxX8SrIcazbwMP4Et0x+uTWZL+01rfhiSFdV0+z1S1d8faoC0Tgd8ryCfpivGdS8URXNzIEm8znrnrWTdapDJG0U486OTqu7kH1FWsRViuZSE6NKTtY+3fBfxU0PxtBAbabyLiVQVhlI+f/dPQ/Tr7V2G70r4N+HusS6XpdzGWZ0jnDRMpxsJ569jxmvo3wd8eYJNDWDUYZbrVITtLR4CyL2YnseoOB2z3r06GM5o/vdDhrYVxfuanstJXm0fxqtM/vdNmVf8ApnIrH9cVs2PxV8OXn37xrRvS4jKj8+R+tdkcRRntI5ZUakd0dhupMmqVjrFhqShrS8t7kf8ATKVW/kat7q6E09jCzQtFN3UUwF3UmaT60ZoAKWm7qTk0AO3Ck3UlFABRRkUm6mAkkixRs7HCqMmvDvH3iA319M27jOAPavSvHuuDS9IZA2JJePwr561/UvMkb5snNfKZpW56ipLZH0OX0uSDqPdmNql55jHmsiRupNTTSF29qqXD7RXkHosq3Eu2sy4l2gmpbqbk81jajd7VIzWsUZtmdq15nIzxXD61fdea2davtisM81n+BfAer/FvxlaeHtIQ+ZM26e4KkpbxA/M7Y7D9TgV3Uqbk7I46k7K7O2/Zh+B8nxh8bLqWpQMfCukyB7hmHy3EowVhHqOhb2471+i8caxRqiKERRhVA4AHauf+H/gTSvht4TsPD+jw+VZ2qY3HlpGPLOx7knmuir6mjSVKNup4VSp7SVwqC+s4dRs57W5jWa3nRopI2GQykYIP4VPR+NdCdndGG5+U3xM8ISfD/wCIWvaC6lVs7p0iz3jJyh/FSKwVmr6d/bq8D/YfFWj+J4I8RahAbWdgOPMj5Un3Kn/x2vlxeOK/VsDX9th4VO58niKfs6jiXFkHHNSK1UVfmpkb3r04zOVouq1PBqsslSrIDWykRYnWmuvy0sZFSbc1W5JTkTiqUsGcjFarQn0qNrcuc4rGULlqRhzWxI6V9Y/BPwePB/ga1V02Xl7/AKVPxyNw+UfguP1rxL4a+C/+Ep8WWkMqbrWA+fPnoVU9PxOB+dfVUChmAA4HQV+Q8a41Q5MFB+b/AEPu+HsM3zYiXojV0u33MK7nR7b7vFczo9t93iu80a16cV+OVJH6BTR0Gl2+NvFdLax8CszTbfCjit21jrherNakuVFmGPpVtVpka7QKlFM8uTuwpjMFBJ6U5u9eRftBfE8eC/DbadYy41e/Uom08xR9C/8AQf8A1q9bKstr5vjKeDw6vKT+5dX8jjxWIp4SjKtVeiI7P4kDxn8Rta0uyffpekwLGXXpJMWO4/QbcD8a6avAv2YY/wDS/Ekh+9tgX9XNe91+w5ll1HKa/wBSo7QSXq7as+Pw+JnjKft57u4uaSiivLOoKWkooEFFFJmgBc0maSimAUUUUxhRRSUCFoopKBBRRQTQAE02iigAooooEFFFFAHWZpN1N3UbjXMajvxpKbzRkUwHbqTdTd1Ju9qAH80lNpM0AOyPxo3U3dSbqAHbqSkzSZoAdmk3U3dRuoAdmkpuTSUAOzRupuRSbqYDqVV3sqjqTio81LbyLHcRs/3VYE0Cb0OY8UJ4isFuZrC7tWgjDEK8WGwPxrxHxd8cvF3hq3ucy6ejRrlGuU8stlcjgA88dO9fRWveWli+6WORZCF27hk5IB4PPevLfiBoOj61rFmrrbnVFj5XA8wxZ4z7bhxXm1ueLdSM7cvQ68ClUiqdWF3J6M+e/C/xu+IWpaxLIPEVncEDzmhiYyfKOvyYGAM16k37QWsWNqPt9xYxSuuUAUbsevXFdl4L8E6edSnU2yxlItpdBgnJHB9ar6h+zrZ3U1zNa30jeaxdkuGJAz2GOgrWOMq4mgk0l5rceKjQwldw1b/A8A8VfGCfXLhpnuHu5HOFYnI+g9q46917Vr5iFjZFbsSFr6C1X9nS6CsIooJh7bSf1FcbrnwB1BI5B/ZbdDhkQkg+vBrz3hYS+1qaRx0ei0PHLixvrhvMdow3TcH5/Snr4ZvbxBmYHHQFia2fEnwl1rT5VNlBcWjKMAsJCv49as+F7LxBpELDxBFayQlsQzWrHcf94ECuaph3BXR108RGo7HFyeB9ZtJswD7Qmc7d/I/OtOz8G63fYDWxi/6aSvgCvSo7izkUMX2H0YUy48Q2FimXvoF9AzjP5VxczOzlRBbaBFoXh17dW3yffeTGNzVT8P6h5OsQxno+R+n/ANYVi698RLGRTGszOo/55qefzqnDfFdUsyudxkXABraHvQaYn7rPYW2yR53EN6isK81q4sLpoiqug6HBBIrAuNav4ZiolQeik0yTW5bhQLmHeR0ZOTWEJRi9UW05I6WPxJA+GlhYODxgA/rW5p/jSe2IFrrF3bhRwq3Dqo/AnFcH5YdVZG4Izg9aj3FeorsjKD+CVjKUP5keu2fxM8QxrmLXJJl/6aJG/wCu3NacPxg8TRqo82wmx1Mlscn8nFeHCb3xU0d9LGuEmdR6A4roUqq2mYunTf2T3iP42a0o/eafYTH/AGWdP8asx/HO9GBJocB9dl4f6x14EupXKsCJ39eScVMNcu8f6z9BWiq4hfaM/q9LsfQEfx1X/lpoco/653Kn+YFTJ8drH/lpot+v+40Tf+zCvnpdeulYFmDD0IqX/hJJv7qfkav22I7on6tS7H0RH8ctFYfPYalF9YkP8nqxH8bfDLf6x72HnHzWjn/0EGvnNPEbY+eME+oOKafET7uYht+tP6ziI9EyfqtJ9T6ah+LvhGYAnWI4v+u8bx/+hKK2rHxdoeqY+yaxY3Oe0dwjH8s18kN4jTHzxkVWudWtLgYeGJj23gVDzCcfiiH1GL2kesfE3xmmoatMiPmNDtXB9K8xurrz2JzWHdX0kj71c5+vFSWN8JG2P8r+nrXz0rybk92ezGySii7JhQazL6XCnmrtxJwaw76bOaSGyjdXHU56VzeqXmAzE1pX9xgHn61xXiDUwoZQa6oRuzmnKyKMkN94k1a20vTLeS91C7kEUFvEMs7HtX6Dfs+/A+x+DPhNYWEdzr94BJf3oXkt1Ean+6v68muD/ZP+AA8F6ani/wAQ2w/4SC+TNtBKoJs4j3Ho7A8+g49a+j8+hr6bC4f2a5nueDiK3tHyrYXtRmm5NH616Jx2F3Z7UhOaSigZ5H+1R4Tj8V/BnWTs3XGnbb6EgZIKH5v/AB0tX5xyrtav1r1vTI9a0a+0+YborqB4GGccMpB/nX5Ta9pkuk6peWMy7ZrWZ4XHoysQf5V95w/U5qM6T6O/3ngZjG04y7mTmpY2qE05WFfT9Tyy0rVIrVVVvmqaNq1izMtxsauRsGUVRj5q3DXRFmbLar8vrS7fakjFdJ4F8NnxN4ktrUrm3U+ZMfRB1H49PxpYnEQwtGVepooq46VKVapGnDdnrXwh8LjQfDou5VxdX2JDnqE/hH9fxr0vT4d0g4rOhjC7UUBUUYUDpiui0e1yy8V/K2Z42ePxM8RPeT/4Y/asHh44ajGlHodJotr93iu70e14HFc5otr93iu50m14BxXztSR7EEa9jDhQMVsW8eMVVs4cYrTjXaKwOKtO7FAwKU0Uxm2qT0FPfRHKZXirxJaeE9Du9UvpNlvboWPqx7Ae5PFfDHjfxZd+NvEF5q16f3kzfJHniNB91R9BXpP7Q/xN/wCEq1z+xLCXdplg/wA7KeJZehP0HT868ak+6a/rPw94Y/snCfX8TH97UX3R/wCD1PyPiTNfrdb6tSfuR/Fntv7MMY+yeIZPWWJfyVv8a9xrxf8AZjQDQNbk/vXirn6IP8a9n/Svk+I5c2aVn5/oexlumEgFFJ0or5w9MWkzSUUwDNFFFAwooooEFJ1oooEFFLSUAFLzSUhNABmkoo/WgAooooAKKP50jUCEJooooA6ndSZpu6jJrnNRaMim0cUAO3Um6m7qTNADsmjNNpM0AO3Ubqbmk3UwHUlJmkoEOzSZpuaN1MBdxopuTR9aAHUm6m0bqBDsmkpuaTNAHn/xr159J8IzQ2kYk1KYfuGIyIyP4uteD6L4/wBTsxY3CNL9vgP725YRs8/ylecp05/n619BfEp9DW3iFxfQLd7GMkbONyZ4AIznpz+NfK/iHxVpOmX0qK8l02T8kKYX8z/SvksZVdSvKPY+owkXSpRkj6B+Hfxf0q4a7XVoXtb5wX3RjhlUE8A8Z9siuv0v42eBr2GX/iorazcHbtvsw/juPy/rXw9q3xCvJI2jsbOGzXGNzfO3+H6V51rl3e6llJ7iSQE/dzx+Va0a84R5Ohx4rB08RJ1JfEfqNpusafrsJm0zULTUov8AnpZ3CSj81JqeVSvUEV+e/hvV3+G/wjvsM0WoaiSkAU4O49W+gGK88+HfxU8WeE/FNslt4j1NYc58hruQxnGDgrnGOMV6+Hj7eoqSdmzwqmFcIuaeiP05ukV1IZVYe4zWHeaPYXWRLZwyZ9YxXyD/AMNC+PrO5lzrO9d5OyeFGwM9ORnFTab+194tt2KXljpt4Bwf3bRt+jY/SujGYWWDs6j3OejSnWvydD6O1r4d+GtSVhcaRbSZ/wBnFcbqHwF8HXWdunvbk94ZWFcFb/tgK4X7f4cx6tb3P9Cv9a1IP2svCU3/AB8Wmo2vqTGrgfk1ebzU5HV7LE09rjdW/Zm8O3CsYb++tvT5lYD8xVVvgjHY3cc41PzljzhJYyOxAOQexwfwrsPB/wAZfDXxH1RNL0Ca5vb9hnyVtZPlGOpOMD8TXX6h4f1JVIexuMeyE/yrRUYyWiJ9vXi7NniN58PZ7i+CrqEDeiljkAdeCKmf4W3Ww7dZsk46Org/mFNd5NoJs743MkDpMF2ZZSOKpXjVj9Vh1Rv9eqrZnEXHw91izjLRXVhcjp8txsP1+fFWvDvhm4kJlvxhVOFj3BskHqSOMVc1XcQFXqxwK9HsPDi29ukSrkKoHSvMxlOFFLl6mdbMavLy7XONuNHtZVYSW0eMZJ2gYrmL7RrHzD9nklT9V/Wus8eNNa5srRkSfZuzICV3HpkDnFc1J061wRlJapnDTxFWGqkc1fK+nyBZGyrfdbHBpkd0G6MD+NdLoug6Vq15ZadrOqSabpzOFl1GQeY0XX5iO/NdXqn7Mt7NZy33g/xPpPjK0jySlk588Y9UGf512wdWSvE+lwuKjVh7+55qrlvQ0vzelULxbvRbx7S+tpbW5jO1o5FIYH6GrFvqglwANx9utP21SO56HLFk7KV6giomb3q7m4mUgWs7H0WMk1TuLO+wSunXWPaFv8K0jiX1QnTXRleSTb3qtJJnvUVw1xDkSWsye7IR/SoWmDRkj8RW6qKZm4tDZmUHjIPtVNrqWNsrKeDkZ5ptxcEZ5xWTeX+zPNUqcZPUlzaOttta+2W53HEinDe/vVW+uQFzmuS0/XFivNpbAYEGnan4gjGfnGPrXHVo8k7I1jU5ojda1IQxtzXrn7KvwMPjTVo/GuvQZ0ezl/0C3kHFzMp++QRyi/qR7V5p8I/hxefGrx3BpSeZFpcOJr+5Xjy4s9B/tN0H59q/RPRtHs/D+lWum6fbpa2VrGIoYYxhVUDAGK9bBYe/vyPMxVb7MS77dqKKSvdPKClpKWgQlFGaTJoAXNfnL+1B4aHhv4ya/GiBIbqRbxAoIH7xQT/49ur9Ga+L/wBubRvI8Y6DqQH/AB9WTQk47o5P8nFfTcP1OXFcn8yPNzCN6N+x8qSDDU0cYqSZcMair7yW58+tiTdyDUyNVbd0qWNqaYmXYWq5CxqhCauRnpXTBmUjRir3v4SeG/7G0D7bKm25vfn56hP4R+PX8a8g8B+H28TeIra02/uAfMmPog6/n0/GvpeFFXbGgwqjAUdAK/NON819nSjgKb1lrL06I+v4dwXNN4ma20ResYfMcV2ei2f3eKwtFszIwOK73RbD7pxX4ZUkfpUIm7otjjbxXaafbbVAxWVpFltUHFdRZwbQK8+TuzapLkiWreLAqf2oVdooNB5bd2NY147+0D8VB4R0c6Pp8uNXvUILKeYYzwW9ieg/Gu4+I3jyy+H/AIbn1G6YNLjZBBnDSuegH8z7V8SeINevfE+sXWp6hKZrq4cux7D0A9AK/YvD/hR5riVmGKj+5g9P7z/yR8bxDmywVL6vSfvy/BGd15pkv3DT6ZN/qzX9Y6JaH5Bu9T3/APZnQL4P1J+7X7foiV67mvKv2cY9vgGVv717If0Uf0r1Sv5tzx82ZVn5n6hl6thoegUUUV4Z3hRRSUALRSUtAgpKWkoAWkoNGaAFpu6kzRQAUUUUAFFFFABRRRQIQ02lpKACiiigDpN1Gabuo3VgajqSm0UCF3Ubqbuo3UwFzRTcmkoEOzRuptJmgB26jmm7qM0AOpKbRTAXdSZNJmjdQAtFN3GkoAdmjdTaOKAPLPjN4PkvFXWraMy7I/LuEUc4Gdrfh3/Cvk/xPYgajIQOM1+gTYZSCMg8EHpXmHjH9n/w94pmeeFpdMuHOSYcMn/fJ/oa8PFYGVSftKfU9nDY2MIezqHxRdW+3PHNYs0bQSrIowynIyAa+s7n9kUTMSniMBfe05/9Dqr/AMMaRSZ83xMcf7Fn/wDZ1yRwddfZOqWKoPqfKGvaneeIJlmu5d5jQJGigKqKOwA4ArmtCsjd+MLZUwxVuR+BNfcNt+xd4f8A+XrXtQl55EMaJ/MGtXTPgr4G+BuzUD8PbrxvY3MhW81KS6V7qy4wCkZ2qQRnOCG44zXsYClPD11VqrRHnYmtTnTcIHx9rUjyalIflXDAMMegx+ea5yTTb++1ZodPsbi+lbBEdrC0jc+wFdV41kT/AISzUmWwvbG1lu5XtluLWSMeXuO3kqB0xX1J+xfceZ4O11MKQt8rA455jH+FfVZlThisPdPZniYWpKjU2PkTV/hn4w0dIG1PRbjSkm+4bweWT+HX9K9b/Zx/Z78LfEC/v/8AhKby5vLq1CyJp8DmKKRDwSWHzHB7AjqK+nPjz4NHijwdNJHGGubX96mOvHX9P5V80fC/xU/gbxvp+oksIA/lXC5xmNuGz9Ov4V8lGhClPVXPelOVSF0fZXhXwboXgfTF0/QNKtdKs1/5Z20YXJ9WPUn3NbOabHIs0ayIwdGAZWU5BB5yKd+Nel6HlPzEYBuoB/CsjVvCOi66pW/0y2uDgjc0YDDPow5FbFJnvRa4jyTXv2b9EviJdJ1G/wBIuFO4DzjPGTnurnP5EV0smnixmMMmC6jBPY+9drurmvGt4LazQLp11ezN92S2QERdOWYkYFeTjsHGrT5o6NHNiKbqx80eDfFIrpfiK7nmcR2/lrJvboFA5P6GuULhlz1BqXx18Rp7jVprG/skla2bYk8Zw2PQg9a7nw38G9Y8SafZX4uLW2s7qJJkdmLNtYZHy468+tfOU8PUqaQVzCEJWWh474m1j7LowMsbQTTHaIyQSBnrx/nmmfDfTdZ8Ta0V0S5ktprZfNkuYnZDEucdR3rqfiJ8BPG2k3j3MdsuuWmOJbD7yD0MZ5/LNYfwj+JzfCDxNepq2kyT2F6iw3cLKUlTacq2CM8ZP5+1dnsKlJWasz6TCQhCCT1Pcrq81W80c6d4g1STXFKhS2oxxu4A9GK7h+dYTX+j6SoRDbw46LGo/pXl/jr4wfbmkayuJJ1ZvlAbBx9OK8wvPGupzNhE8pM8l2/wrl5KlTWTPW5oQ0ifSFx4ytBNshni/wCBNilj8TGTlWRh0+U5r5iuNY1H5JQqOwHPkyEE89eabD461GzmALSR45CtV+wZPtkfUq+IkZcOgNQyf2frGY/sMVxIwxtMYP61578ONO8WeNJI5JLdrXTuCbi4XBYf7I6n+Ve5WPh230G1CIPm6ljyTXPJqDtc2jeSOKsPhvpMcn2mayhaRgCIyDsX22n+tc34x+HNjqizRmLyn/gmiXbivULq6VO9VftEFx+6lK/NwCaccRKnruX7JS0Z8T+JPD+raB4ik03yZZ7gfNH5Slt6noRUdr4F1SadZdWn+xwD5jBG26VvY9lr6l8aeG0tby3umR2iJ8p9hwSD0B/H+db2g/DvSNUtVP8AZcLAjqyZP612/WKduY4J4eq5OKdjZ/Y/t7O3+Huq3MVvHbyHUGjeQDkqsabQT3AyfzNema38RINOYpbQfaCONzNtH4Vw2j+Crzwzpc9jokzadaTOZXhjUFWcgDOCPQDp6VxPiT4Ya/fSCSPV5kkDbmYjO4emD2+lelTzGlyqKdjhlgaq1ep67Z/Fy3EgW+s2hT/npC24D6iu6sb+31K1jubaVZoJBlXU5Br5Vt/C/ijScpI/2uP05xj05JxXafDDxde+C7q+tdWtrptOlAeMRpv2Pnnv0I/lXZSxcJOzkjnnhai+ye+E0Vw6/GPw3kiSa6gPpJbP/QGrcfxW8LSY/wCJsiZ/vxuv81ruVSD2Zh7Oa6HWUtc3H8SPDEmNuuWYJ/vSY/nUq+PPDjDI1yw/8CF/xq+ZdyeWXY3q+av249H+0eCdB1IKSbW9aEnHRXQn+aCvfP8AhNNAxka1p/P/AE8p/jXlf7T1xpnij4N6vDZ39rd3ULw3EUUMyu7EOAcAcngnpXp5bWVLF05t9TkxNOU6MlY/Pi4HzGqprautD1DdxY3B/wC2Tf4VTbQ9R/58Ln/vy3+FfplStSv8S+8+XjSqW+FlGpY2qZtF1Betjcj6xN/hSf2deR/etJh9YzUKtT/mRXs59iSE/NV6M9KpRRujfMjL9QRXReD9DfxFr1pZAfIzbpD6IOT/AJ962niKdGlKrJ6RVzONKdSahFas9p+Dnhz+ydBbUJlxc3vK56iMdPz6/lXp+mwGWQcVj6fEqxxxRrsjQBVUdABXaaBYbmU4r+Zs0x08fiqmIn1f4dD9gwWGjhqMaUeh0Oh2H3eK9B0XT/u8Vi6Dp3Ckiu70uz2qvFfNVJHsxVlc0NPtdoHFbUMe0VXtIcKKu/drE4K0+ZhVLWNWttE024vryVYLW3QySSN0AAq3JII1LMcKBkk18kftAfGA+L9TfQdKl/4k9q/72RelxIO4P90frX2HDHDtfiLHRoQ0gtZPsv8AN9DwczzGnltB1Zb9F3ZyvxV+JFz8SPET3RLR6fDlLWA/wrn7xH949/wFcVSL0pwr+1sDgqGXYeGFw8bQirI/DcRiKmKqyq1HdsKim+4alqKb7ldxzo+hP2bJvM8B3KdfLv5B/wCOqf616xXjP7MUwbwzrMXdL7d+ca/4V7LX8357HlzKsvM/UMBK+Gh6C0lFLXgncJRiiigYtFNzQSaAFzSZpKKAFpKKKACiiigQUUUUAFFFFABTSaUmm0ALSUtJQAtFFFAzf3UbqbmkzWJQ6kpM0lADqN1NpM0wHZpOaTcKTNADvxpKSj8aAF3Um6kooAXNFJupNxoAWimkmigB24UmaSigAoopNwoAWik3UmaYDqTdTaKAF3VqaLrUWnpcW11aR31jdAJNDIAQV78EYPXoay6KHqB8Y+Pfgb428R/ETxBp2iafdR+HftsptGnl8q3SFmJUKCegBxgDtX0B8A/hPc/CfwvdWd9dR3V9dz+dJ5GfLQAABQSATXptFdVTESnD2eyMlBJ3Irq3W6t5InG5XUgiviz4peE28J+ML22CbYJGMkfHY9q+1y1eN/tDeDhqmjx6nCmZrfrtHb/9f8686tG6uj0MPL7LNn4A+Mf+En8DQ2s77rzTcWz56lMfIfy4/CvS91fIfwL8X/8ACJ+OreOZ9llfj7NNubAUk/K34Hj8TX13V05c0TGrDlkGaKKK1MQ/WqOtSLHpswY4LDaKvfWvIfjl8RI/Cvh+5kRx5xBihXPVj1NROVkbUY80vJHzt8RLq3bxlqO2RW3S4GDyT6V9l+B7GXS/Buh2lwuyeGyhjdfRggBFfJP7NPw/k8feOpdf1JPN07S3E7M/SSc8ov0H3j9B617z4w+PFlos2uadBazPd2sbLDPGC6O+QBjA/wBrP/ATXIpxox5pHTKEq8uSCPVpJkiBLuqD/aOK5fxPB4N1yMJrkWl36ryPtCpIR9O9fNPhzXdV8TR3c82oXUkSzFWFxu352qeM9uadeWnlsd1zvIOCWzUxxCqRvY5atKdGbguhU+PXw38LRR2cngVYI7iSUm8SS6YRxRAfeRW5z7A44ryVfBhvJBGL5Ynzj5AZN34Yr6D8P/DGw8b6adUurowJbTrabYmCuxKls+uODzXo/hv4d+H/AA6oa2tIhJ3kI3N+ZrznjsNTUlVp3fQ9Onha80mp6HzV4b/ZlvdaUSSardQxsc/8ewQ/qx/lXsXgX9nDQPCvlzzRNqV6vPn3fz4PsvQV6+slvbLhUX2qKXWPKHAQV89WxMqjfLoj26eHjTWruzOmtYNBtHm2YUDtXDa14n85iEOBXSeK9dkvLVbXCbXYBmUYOK831DarYUY5POeSO1c0b7s3lbZD5L6W4/i2j2p9mhLA1Xt49/0rSs4eQAKGwSN37LHrWm4kUb4yu7PsetdV4ftYbOMFZI24+6pya5nTR5dhcknIPGK9Z8N/BvVLjR7LULW5tZo7iJZNpJUrkdOnalTp1Kqapq4TqU6bTm7GTHqmOPL4+lWVvrebAkiHuaZeaHNY3klsz28s8ZIaOGdHYEdQQDmo/srwttkjZD6MuK5pRqU37yaOiMqc17ruWWstPuD90CoZPDFjcfdK0gQU5QV6Ej6GpVWSK9nFlKbwHbTcgKRWfcfDOCTrBG/plQa6NZZF4Dmp1vJhjnIq1iJrqS6MThZvhfb8/wCjJ/3zVKb4V2zHJth+GRXpq6hJ3FSLqCkcr+YrVYua6kPDx7HkrfCu2H/Lt+pqFvhbbf8APqPzNeyLdQt1C/yqQGB+qD8K0WNqfzEfVo9jw+b4WW0i4EGw+q//AF6rN8J4P7r/AKf4V7z5Nux+5ilNnansPyrRY+r/ADMj6rHsfP0/wniZfkDKf9oA1Tk+EQb+L/xz/wCvX0Z/Z9qw/hFNOkWzjjaatZhV/mJ+qx7HzHc/B+Vt2VRhnj5ap23wrk0m6aeGBVlK7SY0AOM+1fUMmhw9gKqTaDD2Aqnj60k487syfqsE78p896bpM9vcBJVwe3FekeHdN4TitzxF4ZjW0M6IN8ZByB2zj+tWvD9kNq8V51Weh2U4nQ6NY7QvFdZY2/TjFZ2nW4VRW/aoAtefuyq0uVWLEahFFOJpK8s+PHxgg+Gfh8wWsiSa7eKVtos/6sdDIfYdvU16WX5fXzPEwwuHjeUmeLiMRDDU5Varskcb+0h8aBpcMvhXRbj/AEyVcXs8bA+Wh/5Zj/aPf0H1r5kjNVZL2bULqW5uZWnuJmLySOcszE5JPvViOv7U4byKhkGCjhqS977T7v8ArY/EM0zCpmFd1ZbdF2RaTpTqYlPr6/oeKKaim+7UvFRTfdqegI9l/ZduwY/Edr3WSGX8ww/pXu9fNX7M+pC38a6vZE4+0WYkA90cf0avpMmv584mp8mZ1POz/A/ScrlzYWItJupKK+VPWFpM0UUAFFFFABRRRQIKKKKBhRRRQIKKKKACkJxS02gBKKKKACiiigYtFJRQI3KTIpKKyLF3Um6ko4oAWim7qN1ADqSm0UALuo3UnpRQAUUZpN3FMBfbpRSZpKAHZpN1NooAXdRRSUALSdKKKBB1ooyKTdQA6g03caSmA7NJupKKADNH0oo/lSAKoa7pseraVc2si7lkUjH4VfooeqsOMnFpo+HvGOhy+G/EVzbMChR8qR9etfWnwt8Wjxn4JsL9m3XSr5Nxnj94vBP49fxryj9ojwmEdNUhT2fH+f8AOKx/2b/GA0nxNPos7hbfUFzHuPSVegH1GfyFccPcnY9CtHnhzI+nKKTdTWfaCTwBzXYedYz/ABBqi6ZYO5bYzA4PoO5r4a+L3i66+InjiLTNPDXCLKLeCJed7k4/nXtn7R3xSGg6LNBbyYubrMcSg8hfWuN/Y/8Ahq2s6vc+NNRj3QWjGKy3j78x++//AAEHH1J9K5pe/KyO9JUYH0R8N/h/B8PPh/baJAA06ws9xIvWSZh8x/PgewFcha/BPVPFvh9pbaBQq3TCRfM2ScAYGe4wa9jrpfCE1vbWV1E0wSR5vM2u2B90DjP0orUlNLTY4nXnThJwerPmnwt8B/EPg+TU/O06S8iupxKgiA/drtC7evtSeIPh5eyRk/8ACPTpJnJJgr63TEnKEMP9k5pdpxyK5vZqOxxfWqnU+I/7K1vw/Cgh0i6Pz8qqEYHrUC+PPENhcFZtEv8AygcbhFn+tfcflq3VQfqKX7DbSfet4m/3kBriqYOnN3Z2080qwVrHxHcfFK8hIB029Of+mDZFVLj4m3TL/wAeN4M+sDf4V9zroemyZ36fbN9YVP8ASkbwrosn3tKsz/2wX/Cuf6hT7nQs4qfynwTJ4yu9QYf6LcqeoLRMBmpljmmVSytzz0r7sbwXoLddHsv+/K/4Uz/hBvD3/QGsv+/K1Ly+L2Zcc4kt4nxba2pCjIrZ0+KFLedpP9ZjZGvTk9T/AJ9a+tZPBOgqvGj2Y/7Yis288I6NHESul2oPtEKy/s2P8xp/bUv5D5ltb46a8bwtskEiyBiM4wc9DXsHhLWvHWteH103QY1S3LMxvmQJs3HJAY8dT2Gea1p/AdlrmoW9qlpDFHI4DlIwCF7/AKZr1KHS7vT77TYdPe1ttDghkSa1MRMjN8vllWBwAMNnIOcjpXXQwccPLmixSx0sVG0o2Pny/wD2efEsMUs6LZ3UrEuyRyYdiTknkDJrz+STxb4d1+2sY727sgtzGtxZ3XzKELAMQG9Fz7V9rzeYYZBEVEu07C4yA2OM+1cD488DyeJPB8U+pC2k1+zgDvcWsZRHYDLhQSSFPOAScV1yimtTKMmnocDcWb27Mq3mm35Vct5y+Syn5sjKkDPynt2rH1DXNN05Ga9tLy0AyQ8LrOhwP+Akdq4az8TNd6Zcxok089vqkdrMuMsS0cwB9wSR+dX9Dji8ZfESbw7dSf6nUNksJPJhfa6n6FSBXlfV4VJJTp7nqe2nTi3GZ03h/wAP+J/H8LXelWjWmlk4huLg+WZR/e+n0qLXfBHjHwapu7iNprVTlpI381B9R1FfTlvbx2dvHDCixRRqFRFGAAOgFOkjWaNkdQ6MMFWGQRXdHCUYR5VHQ4ZYqrKXM5Hzhpd0dQskn2Fc8NxwDVrFej6ff6D4A1TUNLuX8mOZxNGpQsqqR04/zxW7CnhbXseX9hnZuy7Q3+NeDUyyE5tU6i9D3IZjOMU6kH6njmPal4r164+HOiXHMcTxZ7xyH+uazbj4T2rZMN7Kn++ob/CueWU4mO1mdEczoS3ujzUMR0Y0vmH+9XcTfCm7X/VXsT/7yEf41Rl+GOsJnb9nk+khH8xXLLAYmO8GdCx2HltM5QyH+9UUlyV/iro5vh7r65xZK3+7KtZ8/gHxEucaax+jr/jWX1Wut4P7jX6zRe0195jSalKvR+nvVaXX5IeGO6r914L8RxZP9kzt9AD/AFrhvEdzd6PP5V1btBIOquMGl7KpH4lYPawl8LudNNrkd1ayRsMFhirWikKorzO58XQWcSb8B3PyjNbuleMk8tDuGKmUZNFRkrnr+nybsVvwttXFeZaX44tFGGlUY5PNdDaePtK4M17DAu1mzJIFyFGTj6AZrnjTk3ypEVrNc1y58RPH2nfDrwvdaxqEgCRjEcQI3SyHoqj1/pmvgDxZ4x1Hx34iu9Z1OXzLi4bIXJ2xr2RfQCug+O3xim+Knixvs7smh2TGO0i6bvWQj1P8sVwFu3QV/VfA/DUcnw31muv30/wXb/M/GM+zR4yr7Gm/cj+LNSE9KvRnis6E9KvQmv12DPjJFxD0qWoENT10mLFqKb7lS1HN92joJGv8H9U/sn4saG5bak7vbNzjO9SB+uK+wa+EI9QOj63p1+vDWtzHOP8AgLA/0r7tikWaJJFOVdQw/GvxPjKjy4qFXuvyPvMlnejKHZjqKO1Ffnp9EFFFFAwooooEFFFFABRRRQAUUUUAFFFFAxGpKDRQIKKSloAKSlpKAFooooA191Jk0UVkWFFJmjd3pgLRTd1FAC5FGabRQAuaOtJ/KigBaKKSgQUtJkUbulABmlpu6k5pgOyKN1NooCwu40lFFIAooooAKP5UUUCuFFFFABRRUbXMSyrG0qCRzhV3DJPoBQBJSUHK8Gkpgcr8StLg1LwremdGdI4yxCLub8BXyLGp0a+W+tpJIJLeQSxsM7lIORX23qFsbyzmhUgM64BNfM3jrVNM0vWbmyvRFHdRMQwMef1ArmqU5Sd4o644mjSharJL1JF/aH8Vm28yQ2UQAydsBPFdP4S+L2veJdE1C71ZLW2sIlx5kalWbue/p7d68E8QeMNMs92y4hjPb5Mf0qr8QvitbWvgW20rT7uHddAGQwuOBjnp3zWfv9TSNXDPWMk/mYXiK/1H41/FK302w+c3VwLe3HZVzyx9gAT9BX3/AODvCtl4J8MadomnrstrOIRg92Pdj7k5P414D+yP8ErzwrHceK9etPIv7mMR2EbkMVhYBjJwTgtkD1wD619L1vTjZXZz1p8z0ClprMFUkkAepNY+oeM9B0vd9q1iygK9Vadcj8M5ra6MLG0CR0OKlS8ni+5PIv0YivOL746eB4TLb3N/fzROhUy6XFiRD2KlsD+dfJnxMn1XV/FLXXhz4k+MV0xW3+TqVwqyo3bHlELj8KxlUiilC57n8av2oNb+E/xK02zt7mSbTYZrd723yXZoiwL4Bb+6TwB2r6L1vx7Hrmm6VrXhnW0uLK8izsi2t06NjHGfSvzQ8ReZqniLTta1u+m1nU4GQtc3SoTJ5YGzeAoB6c56961L74qat8/kXrWSsCCtki26/kgFedilLERtGVmdlDkpSvKN0fobD418QquTecDqWiT/AAob4sS2cgjuvEGlwSHOI5JIgxwMnjPYCvy817xxql2SslxdXSngmSZm/ma5X7a9vrkOqRQpHeQurLImFPAx29R19a8yngavMues7HbPE0Le7RR+sE/7SGh6a4M+vWNwB95YYy5/8dFeWfEL/goFofgmVoo7W8v5sZRYrTCt+LEV82y3UamETXAtJQFlaF2UNgrnDA9Bg5rA8caDB4q0GSS1ZZ7i3BeMxfNux1HHtX3ceHKCp3VaUn6o8GWYXf8ACivkdv4s/wCCnnjrUJvL8P6Jp2mW7Die5iM7j3xkDj05pni39vL4gWtjZy6N4m0/WTJH/pMcfh4xNC/HALsQw9/0r5tt/C93NPC5NvBAeSoQu5H1JAH5Vtf8IvaCIxL90tvJzXz7Xs7wtsdHJGWtj6g/Z1/bV8Y618WfC9t401Syh0LUJfs8gW0ii2s6lYySBkfOVzg1+jV1rllZ6pY6dNPsvL4SNbx7Sd4QAtzjAwCOtfi/4f0xNHvIrixt4zcqPlke3WUj3G5Tivu39mv9rDWNYu9P8JeLLB9RviCtvqMLosvlqOTKpIzgD7wOT6Gskm9y7JbI+v5HEaM7HCqMk1zPiDxppUHw/vPEUV3HJpj2jSwz8hX3DC8YzySO1dB/aEBUHeDmvkj9pT4h6nrXiq68M7lt9I0+RcRRf8tW2g7m+meB2qdDWFNydmS+GdF8I+KNY8VC2vtRvbTU0t5JLeIfZ0gkjIIeOTh924A5xxz616Lp9np2k6pHqNlpltDfLHHEbopumZE+6rOeTivK/gZAFj1J+nCD9Wr1au2lTjy3aIre7KyPY9G8QWmtW6PDKokx80THDKfpUmra1a6PavLPKoIHypn5mPoBXjKsVOQcGkZyx5JJqvYq5jzHm3jTxB4juvEN5qN/pU6pNISn2cGZFQdBlfQDuBWRY+OIWYZfaR+Y/wAK9erM1Lw1pWsBvtmn287MMF2Qbv8AvrrXi18nhUblCVmz1qWZTppRktEYOi/Em+sQBaalLGvZQ+V/I8V2Wm/GzVocea0F0O+9MH9K8V8f/wDCvvBayNd+I20q5C4FrDL9of8A745b9RXid1+0FZWOovFZG8urLPyzyRiN/wDvncf51xf2Zj6KvSehjUz3KubkrySk/wCuh972vx1h4+06cR6mKTP6EVpf8Lu0T7OziK4DjGI2CjP45r8/7f8AaQtnXBnYD/aB/XFLN+0BbTqdtwpb2cVj7bH0/dl+R6CjgKqUovT1Pvr/AIXz4eRcypcxn02qf61iat+0lpcKsunWEtzJ2MzhR+Qya+Cbr41NdZVGNZ7fEy4c5SbB+tX9Yxklb9A9jhb3WvzPrTxh8WfFXiaR40S7jhPS3s4mA+hwMn8a8n16HxR5dxdy6JqqWsSmSSd7SQKqjqSSOBXlsPxM1+NQbXVLuBj18uZ1H6NVvUviJ411rSZNNu9e1S4sLnCvayXUjrIMggFSfXFczgpO9Vts6VJxVoJJFS68XS3Vy7yMxTooz0FdB4cvfE/iaUWmgaXd6tOeP3MZIX6npXs/wF/Y9/ti3t9d8aB4rdwHh01eGYernsPavr7QfDOleF7FLPSrCCwt0GAkKBf/ANdNUovc46mMa0gfIvg79mf4h65HFJrFxb6HG3zOrSb3/IV2PxN+Cul+Avg/4nuRLJqeqR6bKFuZuNmV52jtn1619N145+1NrVvofwW8UT3LbVltDboPV3wqj8z+lell1NLG0VBa8y/M8jGYipOlLmelj80bZq07dvmFYlvJWrat8w5r+t6MtEflM0bFuelX4TyKzIWrQhavUps5JF2Op0PFVkb8KnjNdkTFklRzfdqSo5ulV0JMDV03K1faPwx1b+3fh94fvSwZ5LONXI/vKNp/UGvjTUUyDX0r+zDrH2/4ctZlsvYXckWM9FbDj/0I/lX5hxlQ5sNCqvsv8z6zJKlqjj3R67RRRX4+fZBRRRQAUUfpRQAUUUUDCiiigAooooAKKKKBCN1ptOIpOlABSUUUAFFFFABRRRQBq84oopP51mWFFFH6UCFpKMik3UAOopmfyo/nRYBxNJupKKYBupaSikMKKKKBB/KiijmgVwooooAKKOaKBBRRRQAUfhR3ooGFaXh3TYtY1SO0mZljkVvmjOGHBwRWbW14NkWPxFas7BVywy3A+6aT2GtzC8Y/APW7zfJpHiWaZT0trwlPw3Lx+lfNvxH8LfEr4ea/FcR2c9tDEVeO7EBmi3DrmQAj35r9A6RlV1IYBlPUEZFcjuzU/MiD9onxjZXDz6lcXWEO1nZRs4OPukY6+lekeFv2qLO82pqVvG7ZwWhbYw/4C3X8DX1V46/Z88B/EG3mXU9Chimk63Fl+4kznIOV4Jz6g183/Ez/AIJ/3Mhub7wdrkcsm3K2N+gjJI7B146eoH1oUpR6jsmaviT9o7wd4T0uO91B9RVZF3LHHYSuSCMjkDb+tfK/xW+I1r4w8TPrenmSO2voknhSdQHCEcBh2PHSoPGHwx+Ifwrmkh1jR9S0+KRfLaRQXhkHTG9cqfpmue+w2eoW8RuokWQDB7EfjXZh67jLVHy+f4N4rDRhF2dzkdcuftm95G3MRXKSaerTl88kA16LfeDIC26C4YD+4/P61z95obWYcmNnOMDbzWtbGU1pys+Zy/I8W5puaS9T650X9ozU7LwxpFnZaZbILeziiMk7tIWwgGeMelZWqfHLxbqTFf7TWzVv4LaNU/I9f1ryDQrg2um26O7s2xcrIR8vA4FacF15p3SRqrqflOc8flxXlOpJ9T9OjFRVjpNR8U6vq3/H5ql5dDpiWZiPyzWWzE96rGQtIrCQqo6rgYNTqrNjClvoKi5Q1iagkTd1qzIqwrmaSOHj/lo4BqlLq2nw533QYj/nmpb/AOtSAzdQ0iK5/ePuGzsOhzWa3h22bsPzq3qXjbQ7GOQzXCxr/wBN5lj6VxOq/HjwxprNturWQjtEGlP+FNJjOkn8K2twu3A/CoE8FrE2Vtg467mHH615hq37VVnBuWztLqb6KsQ/TmuJ1j9p7Xb1j9k023gHZpXaQ/0quViufXml61eutvFd3dnJLbhVg+0QW0zKoHA3OhJxgcEmoZta0rSJbue5vTfXNw++UkqFzjGAAAqj2Ar4d1T4u+LdXmfy9QltYmPypCqggfUCqV9p3i7bHfagdWVM7lln8wL9cnivYo5hOhT5YxV+5ySoqbu2fZOl2unatMy2Ft54BwN0wKrz0J4H613Gg/DW/wBWYKr6Hp69mutRgH6BmP6V8S+FfF3iW4YQeWupAdRJhWH416JYyXlxb+bLbtbsRzGzg140pSvdq51WilrKx9xaL+zVdalsM/irThGRkrZKZj+ByterfDP4E6B8PdW/tGCSa/1Vx5Yurkj92p6hVAwM+vJr8zYdaubCYGKea2lU/ejcqRXongf9pjx54HuIltfEFxeWisN1rfnz0xntu5H4EURxEVvEv2XVM/YWLQZ1jTJU8DvXyF8eLE2nxS1pWH3mRx+KLX2Z4b1RNY8P6bfIwZbm3jmBHoyg/wBa+W/2n9O+z/ERLgDAuLRG+pBI/wAKJRS2O2nVlUlaRD8F4Qmm3rdyyD/0L/GvSK4P4QR7dCuWxjMoH/jo/wAa7yu6l8CPPrfxGIaYzBVJJAA5JNct8QfidoPw2003Or3QWVgfKtY8NLKfZfT3PFfIHxQ/aG8RfEJ5bWKU6Vo5OBaW7YLj/bbqfp0rtp0ZVNeh8vmWeYbLvdb5p9l+vY+jfiJ+0t4W8DtJa2sn9uakvHk2jDy1P+0/T8s181+PP2kfGPjTzYVvv7HsG4+zWPyHHoX+8a8ukf3qrIxNd0aUIeZ+b4zPMZjW05cseyEubp5HLMxZ2OSzHJNa3gXSLfX9ea0u9xiaCQ/K2CCB1BrCfvXR/DO4jt/FkTSusamKQbmIA+7WOJv7GVuxGVJPGUr90Q65pscaW6RRhEUEYUY9K5O8jFvOS/ygH+dbfibxQZGMNooUL/y2Ycn6e1ea60t1JqFvdebJIyyLuUk+vWvHw+BlO0qjsj9QqZ1ho1/q0fi28rnukf7OvxQ1S1R7Pw+1tE65HmTxq5BHpniuY1r4FfE/wy2brwzq4Gfv26mUfmhNfpHpMu6ztj6xIf8Ax0V2ektuNRQzyeFXJGlFr0PTnh/aauTPzR+Fvwq+KeqaxHDb+FNUuYHOGa8QxKnvl6+9Pgj+y/H4fuLbWPFRhur+PDx2cfMcberHua9h009cV0lm3Irwcdi1jKvtVBR9DupTqU6fsua6NBcKoAGBUlRL0ryr40ftQ+APgXbMuv6us+qlcx6TY4luX9MrnCD3YgVlh6NSvLkpxuzSUoxV5M9ar4O/b6+NFlqt9ZeA9LnWc2coutRkQ5Cybfkjz7BiT9RXlfxW/wCCh3jj4gfabHw6kfhDSZMqDbt5l0y+8p+7/wABA+tfO0WpPcSNJK7SSMdzMxyST3Jr9Q4f4flh68cXinqtl5+Z85j8aqkHTpnT2twPXtWxZzDdnNcdb3w9a17W+HHNfr9Gsj5ScDsYJBWlBJ71y9rfdOeta1pdZxzXs06qZxSibyOMVPG3NZkM+cc1bikzXoRkczRfXpSSfdpiP8tOJ3Ka6DMy79flNet/sp6sYdZ8Q6UzcSxR3KLnupKt/wChLXlN4vymuk+A+q/2R8WtMBOEvEktm691yP1UV8jxFQ9tgKseyv8AcezltTkxEWfYdFFFfz8fooUUUUAFFFFAgooooAKKKKACiiigYUUUUCCkIpaKAG0UtIQaAEpaKSgBaKSigDUzSbjSUVBYEmjmiigA9KKKKACig0UAFFFFSAfjRRRTJYUUUUAFFFFAgooooAKKKP0oAKKKKACiiigYUUUUAX7DxBqOmY8i5dVH8DHcv5Gun0z4jHIW/t+P+ekP+BriCKbScUyrnsNj4g07UgPIuoy39xjtb8jWhnPQ18Y/Hqz1G8isRbarc2VsFO+3hfYHbOQxI64xjHTmvMdL+MvxR+H8xOm+J/tFspz9mvoVljI9McY/DFcc3yuyL17H6MzQx3EbRyxrLGwwUdQQR9DXknjv9lP4c+PFkeXRF0m7fJ+06WfIOfXaPlP4ivF/CP8AwUDis/Lt/G3hxoTwGvdIfcv1MTHI/BjXSS/8FBvAV27JpGm6pqLqcfvFSDP5sT+lClbqEoKatJXPOPiB+wD4is2afwp4ht9TiUcWt8nky/8AfQ+Un64r538ffBjxt8Otja7pN3Zx5AaYx5jz7OMg/nX1/dft6RxtmLwZJs9ZdQUcfghqBv289PuIzFfeDhJC3Dp9uVwR9DHzUuSfUmNGEdonxPY6jDCgSQMT3bH6VorrsEEZMcEcjf8ATRzj8hX0X4i8dfs/fFCQrq/hHUPC95McG+0sKqoT/EQpwf8Avk1iWf7MvhnxQ1wPAXjjTfEb5zFp+oH7LcgDt/t/Xiosbny94s+MFx4WjLtpt06DndZ2u8f99HOK8p1r9qy8uCy22n3Ddv8ASpyP/HRX0B448Nw+DdYudLuZlW6gl8qZGO4I3Pylhxng/pXnnijwf4Q1S2lm1CCzL5KLMCYySOuGA5pqwaniN98fPFepFhAbezX/AKZxZI/E5rnrzxp4p1dW+0atduD2V9o/IYr27xD+znd+CdP0DV7jRS+n69bm70+Q3qOHiBA3HByvXoRms22+FMV1IzTTLYp18uEGX9TirViDw82t5cbmlLMf9piT9aWHSpJMEPn1xivfY/hnplmAXiur3jqxCJ+g/rWvb+H/AA/YSKV021hbj5psv/MmquiTxPwPoGgS6qy+IYLua0K/L9kbbtbPU8dPbivUJv2ffDeuWpvPDfiAR5GRa6ghU/TcP/r10j3mniMKvyx9AIUCioGMP2hjGjbRjln/ADqG+xZxFr+z7rfnMGNrGiH/AFiy7hx34r2rwhpfiDR7dI9S1m1vrUDaYZrfzCR9TWdpeq6hDEgt22RMpUgruyMk1qxreXGd4l24IHUCh3kZSqRiZninwf4P1SYXMukQWlyjbjLbEw5P0B/nUOnaZoV5dSG7ivvLTGyKxQEuO+WbgflXTWXg+6u4lYpFEpJO5zT20t7O+cBlkA43LwtNNx2Zy1JRq/FG5kfGjX7bXPD9kmn6Cum2tqyBrm6kWS5OF2hcqo+X6142rM3vXrfxE8qPwvOZHyA6nC/Wp/gfoPwi8RXEK+M/FN7pd0x/49WhEMB9AZst1+i9K5ZRcp6Ho0p+4fqf+zV4iPiL4D+B71my7aXCjf7yqFP8q4P9qyz/ANK0G9/vJJET9CCP5muv+B/9g6P4DtdL8MzwzaHZ/JatBP5y7SM/fyc8k96wP2n9s3gSwvD/AMu14AT6BlI/nWstND0IQ2mc/wDCuPZ4bZuzSk/+OrXFfGz9orTvhykul6U0eoeISNrR5zHbZHVj3P8As/nXlHj79oW88K+F18N+Ho3ivJlY3GoMD+6BxhY/fHftmvnKS4lupnklkaWVzlnc5JPqTXu4WinBSkfl/EOfSoVJYbC/F1fb0NjxF4o1HxVq0+oapdyXl5McvJIf0A7D2FZZemfSl+6Oa9TyR+WSbbcpO7YjVE1PaQCoWmFKzEpoZJ39K6XwXZxT6TrFw8UcphXPzrkgbT0rlJpC30rovC2pGx0LWxjcjREsO/3T0rmxC9w+m4flzY+Nl0f5HFXTmaVmPPb8K9V8E/s06t4s0OPV72+h0eJ8SRJOhYsnXceeBXj1vq1nfbfKmVywBxkd69z+MHxE1Wz8H+HPD1nKbazm0uKa4kQ4aQbQNpPp/Ooqtu0YPc9fL8FLnq4jGU3JrZd2z6n03xtcW9vBHv0mby0VCy3hGcDH932rz3xX+3Qnw68UX2j3fg+e7+ytsFzb3amOTgHjK8de9fEyXrWf7wvIqdyAcY65rbtLqNpoWlkUqzD7565+tefHLMPq5q57VTPcTCcIfV3G76/8MfXFj/wUhdXv4ZPh7c213aStE8Et8pO5Tg8qpFdHJ/wUgjsfDdvqU/hmCxuLgMIreS5aYbh0yVXgHjn3r5w8GeG9Burt3n0623NncdgGc/SnfFzR9O8MaTaXmjW0dnNE6PGYmCbGBJyCeB+PB7g14qw9Hmtyn3NtLnSfEz/gox8U/Fmiy6fplpYeE4pCVkvNNDSTY6FRIxIX6gZ9xXyhfatd6leTXl5czXd1MxeWedy7ux6kk8k1paT4R1DX9XuLjRvtBu33G4knl3bnY53LtA3c57Y5/Gq11Z31nHMmo6bHcSQymJmtFKzHDAE8EqTz0x3r67AZhhcOuSNNR9Dzq+Fqz1vcrQXxXg1pWeqFeprnZI52VZobW4ELjK70OR9aIVvZuI7aZv8AgBr66njY2Ukzwqns4tqTWh2kOqDrnFadrq6nHzYri7bTdUk/5YFR/tMBWta+H9Rk+86Rj2JNdkczhHqeXWxOEp/FUR3ljrCkD5hxWzZ6whPDj864Oz8O3K43XLf8BGK2LfQ5c5Ez13U89px6M8KtmuBj9q/yO9tNWQn71a9vfI2Oa4S30yZdv7xiRW3Z284wCx/CvUpcR0NmmeRUzvBJ7s7OCcMBg5qyp/KsSx3x4DK2PWtuGCWSMOsbOmcblGa+qwmaYbFL3Jq5VLMMJX+CovyK10MqaTwTMbP4geHZh/DqEP6uB/WpryF4/ldGRsdGGDWXazGy1iwuOnk3Ecn5MDTx8VVoTS6pntYWoueMkz70xRikVgygjoRmlr+aJKzZ+prYNtJtpaKkdxNpoxS0UAJijFOpKAG0U+koAbRTqMUwG0Uu0UbaAEopdppKACiiigQUm0UtFACbaKWigC/RS7aNtQWJRS7TRtNACUdaXBowaBCUUuKNpoASilx7c0bTSASilxSbTQAlLRtpdpoDQSil/CkwaACiil20AJRRR+FArBR1rz74nfGzw/8AC7y4L5pLvUpV3pZ24G7b03MTworwrXP2wfEN1uXS9IsdPTPDTFpm/mB+lc1TEU6bs3qbRpTlqj62pk1xHApaWRYx6uwH86+ENU/aE8f6yrhvEE0EbE/LaIkWPbIGf1riNS17VNakL3+o3V6/964mZz+prlljo9EbLDPqz781z4teDvDu4X/iPT4nXrGkwkf/AL5XJrg9a/a18CaWp+yy32qSAcLb25Ufm+2viqRkjZFZgrOcKD3NdRo/wz1nXlU2dnPchuR5ELSH9BXO8bUeyNFh4rdntus/tuOu9dL8Lj/Zku7r+aqv9a851/8Aa6+IOqMfs1xZaUmeBa2wY/m+6rel/sw+LNVUEaXNBn+K5dYh+ROa7HTv2MdRnCG81OxtB/F5avMw/kKOfE1Nk/yG40omJ8LfH2vePNB1ifX9Tm1KeK5jCNMR8gKngADAFO8Sf6tq9k8G/sz6d4N0u8t4dZuJ5Lllcs0SqisBjgDn9a53xj8I1sYGe48TaPZx/wB68m8r+ddSpzUfeOdyi3ofL/il/v8AqK8y1Pwv4m8X649jZXkgu5GJFnYoZZffCqM17n4s8NeFbeWRLr4gaWeORYW09yfoCFA/Wsb4Y+PPh18CfEs/iLR7DXvFviJ43iW6vjHaW6K33tqAs3OOppJxW7HZ9Ecx4V+DvxN0uSOE3N6IxwY9TeONfx3nd+VekR+G4NEXy/Emt6La3a8tFazvI4HuCB+hrnfi7+1f4pmniki0/TbSO43FFjt13rjBwxySTgjnivOdX+L2vfFSKC71yY3M9oogjZsYVQBgAY44xTbh0F7x7tpeoeBZiBFqU2oTdNkaiL+Y5/Oug0/WtK0WdLnT9HxOhys1xKSR74zivlXzLmRQFDKOxGa1NN1/xBpbKIL0mIf8s7g71+lZ37FK/U6Hx1r0eqeILzzBb2w+0SFkhZ23sWySQSeT7VxGvW1tqaoqzkiM53FP5c1LfRz32oS3k8ypJK5dkUfLk+magke0t+HLt345ovcdjpbDXpbXTrW0B85LdBGsjZzj86i1bxBeSQlrbZE5OQFTnvWRa6hbRwj0zxThqEUkwG4KCOrUahoWfC+k654x8QWuki+a3+1E5kcnaMAnkD2FeqWn7N8EGW1HVrmdz18mMKPzOa5b4TeXN8QNHkinhdRIwIWTn7jdq+oDV69SdDyvTfg/4Y09QDZyXTDvPKx/QYFU9Q+DOkSSGWxkltG/55sd6frz+tetyWcM33kGfVeKqzaMesUn/AWpaiPIF8J6xoKlYLeG4j6+ZHyR+FaWm/D/AMWeJI1kg064ljbkNtEan6E4rv7iyuLf78Tbf7w5FS6X4g1DRZhLY3ctq/8AsNgfiOhqlLuYOiuhj6f+zz40uIw32OGLviSfn+RFWbv9mnxdFb7zarcHukFymfyOBXTeKPjN49udGWDQb/S9PvlGDc3dkZt/4BwAfwP0r5b+JXjv9owySyXnijUJ7UZ+bQ2WJAP91AG/MVo3TsKNLub37TXw11D4Y+CZri7uLSSKeSOJYZpTHchic5RMEOAAQee9cJ+yz4L0/wAfX2vz6jCk0unpC0CzjcmWLZyO/wB0V4xq82t69qD3GsXl5f3v8cl7I8kg+pYk10fww1rXvCviBLvQ7uWzZiEmK/ckXPKsDwaxjF1JWWprOtSwkHUqOyR+pX7POqHw3oOo6afLjSOfeqx8DkD/AArsvi00njH4X6zYWx33QeGSNQRnIcV8ueBPi4+hm5a7i8/zgpzGQpyO9d3F8fof7Nu0j06UvKm1d8gwDkEE/lXW8FWcrRR53+tmUwo89Srbys7nN6f8B9cuod19cQpD38whjj0wBivBPiBotv4d8Y6pp1uR5UEm0bfoCf1r2Dxr8cfFE2hzx2k8VgpG3fBGN3PueleC3EjSySXN3MXkY7nkkbJJPck16mGwtTDybqs/N8+4hwWd0Ywy+DbT3sQDLdOBQyBevJqNtVtPmCzocddvNZs+uRNuWFWlZRnjj19fpXc69KO8j5Snk+YYj4KT/L8y5K3NQM1VF1Hzlb5NrEhVye/FRreyfc+XJA5Uc98/pz+FYvFQ6Hu0eFMdNXnaPz/yLm0scdKguvEUMkL6ZAtzYiQOsjKIpQ/O3O7qOFOP8ms6S4l2sskrHJzhCcYPP8jT9ekEWj6Xk7W8tlwuB/Eef1rKb9tKKeiZ9plOSLLeecpKUummxPo95pOkzW6S2xu7NV2/ZwuzjHGGDH+tdN4u+I2geItLRJNJlguLa2FtBN5xbylHQ4xyR1615yZCWOWyQOMGq80ckbNIWfbjGxcY+vTNet9RpzXM5M9OnTp0U4xgtdyhrmiWV1KkzT/aZFQHc0axLzkj5R7e1XbCwlhW2me3811CyZiG8H6c8dP5Vlzs9xN5ckPyEfxDIJ+laEEF5GoEFz5HIAYDpXJOj7Om3SleXU71JSkuZaHp/hzxVqbRoRYbZNxO4yqFxnjjOeal+I11rXizRVtpo7dsMCsELnJwemcVheGdQlsZopZjHdhfvCRAa7LUvEWsi1eWxtTEirnMcQRRnpzivl3F3PT5jye91DxN4V8gTO+mtMDs4cDaMZwc/rjvXefC3X/CusXtxJq7Q6F9nKPvmuGkkuGJJODxjkA8DvXKeKWl8QXds2r6xp8ciqVRGuhK4zjjam5s/hTNE13wr4ftpJYbi41S4ZhGBaWTEAgZyC+O/tU1aM/Z2pys32KjVipXmtPM9K+KGrfDy+jt5fDV4I7rI8xcOYhGBtyoIz97qeledW+uaY19BapLJcPcHbG8UYMeev3s/TjGea3IbWz164/tR9LNnM6GIRzD5inqRwMnJ7VoWuk21qoWC2hhGc/JGBz617ODw2Ip04pzuvM/Mc8zzLI1KtKNG8npdWsVorADHFX4bHpxV63sy2OK07fTzxxmvejA/HquK8zOt9PPpWnbacSRxmtaz0wnGVratNJ6ZFbRiePWxVt2Y1ppPTjNbFrpe3Hy/pW1b6btA+WtK303p8tbxgeLWxq6GVa6d/s1raWH0y4WRBlCfnX1/wDr1owafgDirH2MDtXRGLjqjxauK57pm7NZ2+pWauY0lR1/iXPBrzPxh4bTS7m3lt8iKSQLsJ6HPrXoWhzm1mNq5/dSfd/2W/8Ar0zxBYxM0DzpuginjkkHqqsCR+QNe1hsZPDrmb93qjq4ZzbEYHNqVDnfs5NK3TX/ACPpOFcQxj/ZH8qfikidZI0dOUYbgR6GnV+XSd5Nn9zR2Q3FG2nUVJQ3FGPanUUANop1FFwG0U7FFFxDKKd+FGKAG0tLijAoAQUUu2jbRoA2jFO20m00AJtpNtOxRTAbtop1FAi9RS0VmWJRS4ooAM0lLSUCFpKPWigBaKSigApaKOaQCe1LRRTCwlFLSUBYWkpaP1FAWCiiigDhPiF8FfDPxMWWbVo5otRCqkN5bHa6AZ+U5yCOe4r5+8Wfsh6/pm+XQdQt9ViHIhl/cy/TnKn8xX13WDr/AI88NeFQP7Y17TtMz0W5uUQn8Cc151bCxm3JOzOqnWlFWZ8A+IvBOveE5vK1jSbqxOcB5IyFP0bofwNYvU4/9Cr7H8W/tbfCnS4ZLefVv7bBGGhs7Vplb2ywCn868Zm+KPwB+JF9JDc2moeDbhj8l2IQkRPuELKPxA+teTUoypve52xqKR5DbzPZ3UNxEdk0LiSNiA21h0PNew+G/wBqnxjo9vHbTR2GqIvAaWHY2PqhA/Spbv8AZtn1qyOoeB/EumeKrEjKrDOqv9OpXP4ivNdc8Ea94SvVj1nSLqwbdgNJGQp57N0P4GphUnT2Y5RjLc9im/bE8RomBoOnLJ6lpD+ma5zVv2o/HusI4trm00xR2tbYFvzfdXnjKG4OG9jVG6tQsgKZTjt0rZ4iq/tEezh2NvV/iV4y8QB/7S8Q6hKrf8sxMY1/75XArj7yN5mLSMzt6scmr/mSqPm+ce1Mcp0/l/hWDnJ7s05Ujnriz9qzLizKk4jzXVyRocgdao3Eax8swQe/FHMHKcTq2nx3ew3EW8R/d3dqueH4kSzlWOJUAf8AhXHYVu3EcEg+Yg/hms2VoLaFwlyLdM5OWC1tGZnKISFl7YqhNfRxnDTop9M5qhdazosWTPqsJP8Ad8wMf0rIuPG3hm3HEsk7f7EZ/rituZvZGfKu5utqkLZx5k3+6uB+tV5JJJv9XZY95H/pXNTfFTTIT/ounSyf9dGC/wCNEfxVSawlKWHl3fnKF+bMYjwd2Twc1S9o9kT7vVm9Jp9/cK6mRIgwwBHHjH61EvhMyNmW7mI9BgVmTeMru4VWR1iP8QUDaeOoJGe/6iuf1LxBqDXA33cwHdAxH4Yq1Gpe1yHKMU3Y9M8N2cfhDWrXVbBxFfW77o5JPm5wQcg9eCa9w8P/ALQh2hdXsFkx96azOP8Ax0n+tfDPiDUGuNQz5jMCq9WPpW34XmkXw/qsiyMrJghlJBHBolGVN7kwqKpFNqx+iXh/4jeHvEe0WmpRiVv+WMx8t/yPX8K6dZB1B4r8xdF8datprKBdGeMfwzjd+vX9a9++EHxB8b+Ipo7fQoL25kJwtvEDOjf8BI+UVXNJboqyex9jQzDoahuNNtLvO+IBv7y8GvK7j4pa54Lv10/xf4eks7jYHL27huD3xkj9a6vQfin4a8QMsdtqsKTt0huD5b/TB6/hVp3Jasal14Y6mGXP+y/+NZF1pFxb58yJgP7w5FddFMJBkHIqxG3zUCPJta8F6Tryn7dp9vck/wAToN359a424+DOn2v/ACDHa0x0RxuX/Gvo59Fsr4fvYFDf3k+U1UuPh75ilrO4B/2JR/UVpTqSpu8TjxWDoYyHJXjdHzfd6Prujspeza6iXjzLc7v061rWd9LNaZKMpxjbg8V63feG7vTmIngZB/eAyv51Wi0A3zbI7Z5nbtGhJ/Su+OY1IL4bs+MxfBuFxTtGo4r7zxnxffvF4XvF2OrbSd208Yrx4TMw83BOezgg/Xn8K+n/AB/8O1k0yaG41ax0KVxgLqlxHFn/AICzA/oa+evF3hG58P6xJpc80N8fLjkWaxm8xJEdQwKsPY1y1MVVxMuaoreh7+T5Dhcjoujh25X1bZz3mTyTEMipEq/uyG9eamtpkmWSPzV3IAuM5YH37/8A6hWtaeFtQkQFbK4SLHMkmUX/AL6bj9ar3FjY6aSL3W9MsnX70f2kSOv4JuNC8z3nYiG9YyPnPzZPHTjtzTgzbisZXA/iPU1nzeLPDWnrh9UutQ55S1tNo6f35GBH5Vk3XxW0KzUC20RpyBwb69JHfnagH866IyjHVmTOi3GRSx3bwcle3XpUV1a3mqQ26WltJcYzu8uIsw5z6fyrhbz44X+SbSGxsivzD7PaB2HPrJuNc/qPxW8QaorrLqN/Iv8AzzM5Vef9kYArWVdacvQlR7nsieHbm1iLXnkWAHa8uI4Tj6MQaqXV/wCH9PjJn160kI6R2qPM3XoCAF/WvCpdTvJskAb8ZBxnP41TZNRumwZJMeinFaSx1VKyIVGJ6/eeMPC1szMIdSvmB4DGO3X/ANmPrWVP8Yra0QpY6JYQ9g9w8lww9+oGfwrzaHwzczSbsvu9cmr0HhO4U5JrjlWnLqbcqR22kfFrV9TvltpdfGi2zDHmQWqxqPbKgH869AsfC9hrtx9vn1ifWd6ndmfchLDDHqcZyeO1eLr4dKD54z9Vq1Y2Nxp0wls7mSCQd0Yof0qqU4R+ONzyMwwuKxC/2avyP0T/AOCe623grRLdtyabAWznLLn8h0FbNvZxWyhYYkiX+6iha8n0H4ia/ZyLDLD/AGmq9dyYbH+8MV2dj8W9Bkk8q4WeGVQN42gqD3Gc817FOrQ5ea1j8wx+T55zNSk6i8n+h2kFv5natGCy6ZGazNH8XaJfRh4Z8of4ipI/TNdjpKW1+oeGaOZf9hgcV6FOrSnpGR8FjsDjsGnKtSkl3s/zILLTy3Ra27PS9uCRmr9np+SMLW7Z6XjGRXdGB8ZiMUomdZad/s1tWum9OK0rPTMYO2ti1032rqjTPm8RjvMyrfTuny1pQaafSte30/pxxWjHYjjjFdMaZ4NXGGNHp+0dKWSxwOldD9hAXpUU1qNuMVryHnPGeZyzWuVPrVtY11qFLWY/MzCKQ+xOM1bmtvLk6VUXdZ6lbOOFaRQ351FRe6zvwNXmxVKXVST/ABPomGFYIY4l+6ihR9AMVJ60q4Kg+1Livzt7n+idPWCfkNxSYp+KNtI0GfWinYo20ANxRinbaNtADcUbadto20AN20badijbQAzbRtp+2jFADNtGKdijFADdtJT8UfhQAzHtRT/wowaBDKKfiigZcopdopcVAxtFO20YoAbRTsUbRQA2inbaMCgBtGKdgUbR6UANop23mjFADaKdgUbaAG0U7FGBQIb/ADop3FG2gBtJT9oo20wPnH9rS1+KN9p8S+C0uToEMG/UBprYuSxJxnHzFcDovvmvgHVJLuO6lW8EyXIPzibO7PvnnNfsarMgIVsBhg+9cj4y+E/hL4gQmPXtBstRJGBLJEBKv0cYYfnXmVqNSUuZanXTqRSsz8h5525PX3FUZLh89a+/fHv/AAT78P6n5k/hfWLnSJjyLe8HnxfQNww/HNfOXjz9kD4i+CfMkbRv7Ys1yftGlnzhj/dxvH5Vx6x0krG2+x5n8M/GEfhPxdZ3t1qGoafbKwDzWEro689TtIJHtmv0f+Gvxq8EeKdHhjufiLo+sRuu17XUVWCXPoRIQT+INfmLfaFLZzPDcRyQSqcNG6kEH0IPSs6XTtuTyapcjd5K4nzdGfqJ42+HPwo8TQG5h1/StDm5Pn2V9CsZ+qk4/LFeRah+z3qV/by3fhLXNL8X2SEjNjcqXGOxGSM/8Cr4NkgZf4as6J4m1rwnfLeaNqd5pV0vSa0maJvzU1EqcZfDoVGbW59Pa74b1Xw3cGDVNOubCXP3Zoymfpnr+FZRXd6H69ayPCP7d3j3Q7dbHxPbaf420zo8OqQASkezqP1YGvRtF+OHwF+KG1NSttR+HOqydXA8603fUZwPwWueVKSNVNM4x4VbrkfqKzNU0VNTjAdnRlzskiPzLn0zkV7bcfs/32sWJ1LwZr2leMtOPKvYXC78e4zjP415zrXhnVfDdwbfVdNudPmz92aMpn6Z6/hWWzL3PE/Efw38Qzb20/X5blevkzuYz9Mjj+VeX694d1vRXP8AaVncRj/nowLL/wB9DIr6qaPd1ww9+tRSWqspVhlT1VhkVvGs4mbppnx203WomkY9BX0v4g+Emg667Sta/Y52/wCWlqdoP1HSuH1D4G3NqxazuUuo/wC6w2t/hXVGtF7mDps8dXzgwZeo5HFXPtl3cS+bcu0r9i3Nejf8K5mtjtniZD7irEXgSNOozWntok+zZx9jfPJCD5JVMHLgfwg84A6fjVW8naXOwFjn+EV6Tb+D7eMcoDV6Pw3bRjiIflUush+zPEW0e8u5TIYiB24rpvD9q1joeqQTZSSUDapGM8GvTl0WFVwIgPwqGXQomz8lRKrzblKHKeQx6WydYz+NezfCX4ja/wCF/Cd7pVjeCC0julmEPlL8xZSGDHGSPlXgnjnHWsuTw5HJ0jz9BV7S9HFhp94oGwySRnrzwH7fjVxqakuOh3UPxkgmic61obTRqQHuLHnGc4yrfQ964TxR8TvDdxvaz8PTySdmnnVB+QzU2ma1a6Fa6ik1qJ5p12xzNn5BtZWGOvIbr2xXlV1bqsnzt5a/TNbcyM7M62x/aL8beF7gf2HcR2Vsv/LvM7TJjH91jgfgBXr3gn9up4DHD4t0FW6BrrS2x+cbf0avmxk0xeZZJ3PcKABVCSOxuriTZILO3UcAxl3c/wAv5VSaloTL3Vdn6ceA/jR4M+IEcZ0TX7O4mYZ+yvII5h7FGwa9NsZtwr8ghNbWscZilfzFYYZUCHHtjvX2r8O9B+JPgnw5p9zo3iG41GCWNJvI1Em5jKsAQF4JHB6AjGKRMZc3Q+ulw4wQCD2NfGXx++Ll1H8Zde8NW+p6jaLYyxKLe31FhEUMCHHk8ADJzwcV7t4V+KnibcsXiLwnJHjrdadJuU+/ltgj8Ca8H+M37Puq/Fz4wa14jsrBv7LumhKXE0DK3yQopPIHdT3pppMo9k/Zb8E6DrmqXn/CQaJaX99NEktmt9ah3fgElAwJb6jPSvn79tH4nzaJ8eNb0bw7Le28FlbwWzW2nQiARSrGoZSdoPHoPzqfQ7n4i/BLXrPUPA+o3EmsRI9tK08qTiOMjAVRJkDjPSt7UPCPxE+IDXWtrZWcfiS+czXV1fWZmMznq25WAH5Gq52Fj5J17UNf1CE3V1BeyQgbmmvpWbb65rIttJ1TVGCW95ab25EfmKrH86+tbr9kfxd4qYXPjDxBptnGowdgWMBfTjH6iqqfs8/CLwmHGq+NoNTuk/5drWZST7fLzRzIVj5CvbO9jmeC6Lb1PzfNnP5HH5U210lZD87bT2zXv+uaR4dtNUjl8LaK11bDIkgu2EpLfwlcc9B05rltak06bctx4bhsrsNjfCzxgexQ8VeojgYvCvmYLEkEdzn8a0rbwtFGMMWAPYd67fQ/CratYyTWMlqoj+9E0gRv1rQ0nwTf3ClrhljXnG5B+GCD/SqjqSzhl0a2t0JEZYDrgEn8qsx6ehUMkYx16V6CvgpIgz3mqafZxAfMZJ1LAdMlRkjnHamPoPhozfZG1eXUZQ23yNNty+7jPDsVH5VbS3bEcNDZyGRhsUIOhB5/EYqzFbK7FByy9Rg117XGgWcStBol3dOylla/vBEDjORtVRzx61E3jJbXebW30Kz8ssqSLbtOT8uchpM8jt0qNB2Zn6T4Zn1KQRw20s4Yj/VoW/kK1rv4X30cX76BbQ9nu5EhX82IrFvfiFqt9+7XVNSktdpDLHMLdWbsdqjGOnbtXM3niy7W7CppkDvHn9/KWlLZUDnJxx9OppcyHys6LXvCo8KrF5upWc1xKP8Aj3t3Z8D13Y24/GjwpoFhqGob7zTWaEqcMqNtLZwORx2b8qxYPEWo3RiEirlOF2xqMfjivQ/Cfh/xdryRmx0DU75GOA0Fq7L+YGKxqVoxW5rGm2bMOnWFjAYbW2ihTP8AAoAqaGM27CSNmjcchkOK9G8Mfs3/ABC1xQ0uijTVPG69mWPH1AJP6V3Ol/sn38OG1vxJp2nL3WEGRv121w/WVN6O78i6kaVOD9q0l52/U8p0Xx7q2llQzpeRj+GcZP5jmvY/APiKHxhZyyxwPbywsFkRuRkjjB71u2fwB8AaMFa61S81qZedisFQ/wDfI/rXQ6foenaWph0y0W0ts8RoMf5NfX5PPG1KqUovk8/0P508RJcL08FOWHlD6zpbk9db202GWliPStW3sgO1WLWz9qvxwhRX30adz+T6+L13K8NmBVlYQtPpdtdcaJ5M60pDdtMaIEVNtpNtaeyMeZmZeWuckCsnULf92HA5U7vyrppIwy4NZt5b/umGK5KkNGmejhcQ6dSMuzPadPmF1YW84GBJGr/mM1Y21k+DpDN4X01j/wA8Qv5cf0rZ21+Z1FyzcT/SnLq31nB0a380U/vRHijHtUnNJg+lZnojMUVJj2pMe1ADMUcfSn4PpRg+lAhmKNtP20Y9qBjMUYp+KNtAEeOaNtSbaNooER4ox6U/bRtoAZtNG38Kft96NooAZto20/b70baBjNpop+2igRa20m2n7aNtSMbijbT9tJtoAbt96NtP2ik2igBu33o20/aKNtADNtJtp+2jbQA3bRtp22jbQA3bQFp22lxQAzbRtp+0UbRQAzb70bafto2igBm2jbT9tG2gBm2jbT9tJtoAbtpCgapNopNtS0paMd2tjj/GXwn8JfECEx6/oFjqJIwJZIgJV+jjDD86+efHn/BPzw7qXmT+F9YudImPIt7wefD9A3DD8c19bbaXbXJPCwl8OhtGtJbn5c+Pv2RfiN4IWSVtD/tizTn7TpZ84Y90ADD/AL5rw/UtHmtZnhnikt5UOGjkUqwPoQa/bQxg1yXjT4R+EfiFCY9f0Cx1JiMCWSICVfpIMMPzrllh6kNtTVVIy30PxkbS1yxc/SqzWir0Wv0W8ff8E8/DuqeZP4V1m60aY8i2vB58P0DcMPxzXzR8SP2RviD8O45Li50j+1dPU/8AH3ph85QPUqBuH4jFZc7jo9DTlT1R4n4b1zVvCt8t5o2qXelXS8ia0maJvzUivpLwD+294t0vT49M8X6fY+NtNHDG+QLOR/vAEH8Vz7186XGkvCxVlZGU4IYc1VaGWLofyqZWluCvE+3tO8dfAb4qAB5LzwDqsn8MwzBu+vKgf981d1b9mnWpLP7f4X1XT/FWnMMo9pMocj6ZIP4NXwql06Hmuj8KfEPX/Bt4tzoesXmlTjndazMmfqAcH8axdLsaKZ7vrnhnVfDd0YNU0660+YcbZoyufpnr+FZm1W6gH9DW54R/bm8UQWq2Pi7StN8X6eeHFzEI5SPqAVP4rXe6f42+BHxSADSXngLVJO0o/wBH3fXlQP8AvmsXBotSTPIJoQ2dy5T/AGhkVnXGi202SE8s+q17trv7OOtQ2Q1DwxqNn4t01uVksJFL49duSD+BNeV6to93ot2bfUbGezuFPMc0RRvyOKko5FvDjfwSqR7jFM/4R+Vf44/1ropNsnAUY9KTb2/QinzByow49BUf6yTI9FGKmTSbdAf3W7/eraS3K4LDAz061M1qrfd4HtRdhZHP/YUA+VQB9KgksFYEEDHTpW7NYufu4aqzW7rkMtF2OxyOoeGYLgsfmBNc5eeBIWJ4z74r0prcPx3qa18K6jqQzbWFxcD+9HExH54q/acpHIeM3HgWJc/Jn8KoTeD41zhMH6V9F2vwb8R6gob7AtvGf4p3C/p1qW8+DtlpBLa94n0vS0Ayd0gJ/Uiq+sLuL2TPmGTwyFYbkyvfAwa/Rf4c4/4QfQ9ucfYIAM/7i18131p8ItDVWu/EtzqsoPMdkpZT+IXH616V4N/aW+H0dhDYPfXGkRW6LFF9uhOGUcA7l3dvWuqjV5+hhUp8p7dNd7VUZxgetZeveLk0+3jhKyTEtnyYiwMnB4+XnH+Fee6h8f8AwBJGxi8XaWxxwonGfyrzfxl8btPmbzdEv7m5utpVWs7Z34I7NtwPzrdoyO21Lxh8RftjL4X8E6LplqT/AMfN8MSHnryR/WsDWr/x9fRuPEXxLsNAhPWLTZFV1+hUA/rXh0nijUdevJpdduPEBDE7LZb4Rpjtkc1DDdTxljZ+G7UHPyy6lcPMce4yM1ceXqzGp7T7COw1Lw58PJZ2k13xZ4g8ZXB5KvPI6n8GJFVLv/hEdNtSNC8CPEoHFxdD9cdKwS3ie64XUYNPQ/wafaKv6kE/rUMngu41CMLe3t9fe085K/lT9pTiYqliJbyt6L/Mq63410zRIVMhkFxKCRb2casq/XNU/Cnxm/s64u/ttleX8EmBEjRKQmO4znFdbo3wR1bUgDpnh25ulPAaG2eQfniu10n9jv4ga7g/2UmmQnnfdypH+gJP6VnPG0l2RpQwVSm23Jyv3OJuviJ4N1jSbkXXh+9/tJhtjnS1jQbccDiQAHOecE1xj+NtSWGONGESIMBd4AwOg4Gf/Hq9/k/Y0s/D/wA/jD4jaFoKDrGJQzn6bitdJpP7O3wds3jCah4l8Yzdxpdo5hc/9dFTaP8AvuuSWPp9NTujhZdT5DudcuZriacvD50i7WIgD/jlsnPvVnwzJ4guLgRWEFxeyMceVDEWz+CivvHQPh34U0qAjR/gvEHXgXHiS7hAPvw0rfoK6OXxFrPhtUjTVvBPgy1X71vZ2ZmkH0JdB/45WX12c9IR/r5DlTpUlepNI+GNF/Zn+JviqQLbeFNRVd24PcxeSOfd8V6Rp/7B/j66RbnWtW0fRoWO6R7u7LMvck7QR+te96v8SNEuUkXVfiF4g1YnI8nTcWifgYkU4+rGuYk+IXguGRGg8JyaxJH9241q5a4f65kLmtY0sfW+GFvl/mePiM7yfCfxK6+Tv+VzktD/AGVfhppLNDrfxPh1O6Th7XQ4hI4P0Uux/Kuw0/4NfCvw/Gstj8PPF3i+RcfvbqMwIT64kaL+VSP8bNWWPy9N0/T9Kixj9zFk/wCH6Vh6h8btRRmN94nitu5QSIn6CupZPjJ61JpfP/I+fqccZbF8uGpTqPyj/mausfEG+8D728LfACx0wqOLi6ELyD0O1Bn/AMery/xL+2p8TpZDaYtPDxX5THb2W1xj/rpurX1D9ozTINwl1a61Fu4iiLfq2BXl/j74naX4qtZIbDRpBJJkGa6IwM9wvPP40Sy2FHWTjL5s9TA59Vx8lFYapBPq0kvzuWk/aT+IEszPL4sv5dxyyyOCp/DGK6/wv+07fQ3KDXLGO8h6NLbErJ9cE4P6V4Db6fIxHFa1npbswAUk+gFdNGtLCu9J2FmeQ4HOIuOLp83n1+8+2fBnxi8H+KNiQarHaXLf8sL3902fQE8H8DXqlnArIrKQ6kZBU5Br4O8MfB/xX4mZP7N8P31wrf8ALXySif8AfTYH619WfAD4d+Ivh/pt/b63dF45ChhtA+9IW53YPr06cV9blecPE144ecdX2P5r478OMPkuXVc0wldpRt7sut3bR/8AAPVkTaKk20AUtfoUKaify023uFFFFbCCiiigBGFQXEYaM1YpkillIAyTwK560fdbNqScpxS6s9K8HxeX4Z08f9M8/ma2dtQ6bZiz0+2gA/1car+Qq1tr8lrS5qkpeZ/pjlFGWHy+hRlvGEV9yI9tGKft9qXb7Vjc9cj20beKk2+1GKAI9tG2pNvtRtoAi20bal2+1Jtp3AZtpNtSbaNtFwGbTRtp+2jb7UgIwtGPapNtAWncCPb7Ubafil20XAj20m2pdtJtouBHt9qKk2+9FFwLG0UbRUm32o2+1QMj2ijbUm2jb7UXAZgcUYp+00YNAEe0UuKfto20AM2+1JtqTbRtoAZxR+FP2mjbQMZtpMCpNtLtoER4op+2jbQMj2+1Lin7aXbQBHj2o2+1P20baBDMe1G32p+2jbQAzb7Ubafto20XAZikx7VJto20AMxSYqTaaNtFwI9opGjVuoqXbRtqZRUlqhptbHnvjr4D+B/iKrnW/Dtncztx9qjTyph/wNcH86+bviB/wTvsbgyz+EtfktG5K2mpJ5ifQSLgj8Qa+09tG2uWWGg/h0NlVa3Pyb8e/sq/ELwD5kl/oE97aJ/y96ePtEePU7eQPqBXk82mmGRkZGVxwQwxiv26aFW6qK4Hx18BfA/xEjf+2/DtnczsP+PpE8qYf8DXB/OuWVCpHbU1VSLPx/2vD0Wnx6hJHwa+7fH/APwTxsbjzZ/CevSWbclbTU18xPoJFwR+INfNvj79ln4ieAfMkvfDs15aJ/y96f8A6RHj1+XkfiBWF7aNF27HDeF/iPr/AIPvBc6Lq95pc4Od1rMyZ+oHB/GvcfDf7bHiBrVLHxnoul+MrADB+1wrHNj2YDGf+A/jXzfcaZPCxR1aNh1DcYqhJayx/wAf5U+WMh3aPs+w8W/Ar4mYWK/vvh/qb9I7weZbbv8AeyQB+K1o6l+zvrsdn/aHh27sfFentyk+mzq5I/3c/wAia+FmmeP+836VpeG/iR4l8D3gutA1e90i4BzutZ2TP1AOD+IrN0E9ilUtufR2qaXqGi3Rg1Cynsp1PMc0ZRh+Bpse2Qkhg3t0IrH8Jft7+K1hTT/G+haV4307GC11CIp8eu4Arn/gNeo+GvHXwG+MEYFvq9x8O9ac4+x6kw8nd7OTtx/wIH2rGVKcTRTjI4jaG6/kaVYkLLvTcmeR2NeieIPgXruj3CDS72z1+0kTzI5rSUYZe3U+3Ymufm+Hvie1yJNAvhj+KKEuP0zWHMtmacr6HM+IPi7qXg9Anh/4c2t5tGBePKJSfcqBu/WvONa/aM+L2oI0FrYf2WGJOLXTTu/Nt1ezHwXr7Nxot+SDg/6K4P8AKrdr8N/FF5jyvD+ov6brZh+uKpSpR1aQmpvZnynqF/8AFvxZKVu77W2B4IluDCmPpkD9KqWPwV8UXUu+6v4LbJyTJIZWz64x/WvtbT/gD4x1JtsmlpaJ/eupkA/IEn9KsXHwJ03R9zeI/GejaIq9VMoZvwDFabxcYu0bC9g5as+S7P4JhY0F3rk8xH3lhhVB+ua66x+Enh6GFDNaveNt63EhP6DAr6R074f/AA1WFGhv9f8AE856Lplk5ib/AIGE2j/vuuo0/TbCxiKaV8KzGY8AXOvX8SqfqAZSPyrJ4yT2NPYJbnzLpHgPTbRhFpeiwo/YW9uCx/IZrr9P+DvirWmRbbw/ebW6PJH5a/m2K9r1Lxxq2gqDJ4i8GeDIP4oLe2Nw+B2DF05/4BXDa18cPCi+aup/EXxDrW3pDpi/ZEJPUAxIhx9WNEXiKr9yLf3nPUr4TD/xaiXzRnL+yxrsluJtTuNL0yH+I3c+do7ngY/Wnaf8I/htp0xi1Px9a31ygBa10eMTSfQBd5P5Vy7/ABu8EtcJ/Z/gibWDGc/a9eujOw+nmFzn8aj1T9pzX/LMOk6fpujxAYXyYdzD8+P0ruhl+OqLVWX3f5niVuIsrovlUuZ+SbPUNP8ABvgaxAbTPAnijxQd+FkvFFpHj1IlaM4/4DXUwtd6WobTvBnhLwtGq5FxqVwJ5VHqVRAP/IlfJuufHbxVqQKXniiaJT1WGRYv/QcVw2oeOoLiQvPd3F9KepO5yfxNbLKWv41Vfmcb4jnU/wB1w0pfh/mfaGqfFaa1jWPWPilY2pVuYvDunRqR7ZfzT/KuG1r4p+BWk8ye58UeKJ9pH+lajMkLfVN6r/47XytJ40LYFvYux9ZGC/yqu3ifWJshI4YR22qSf1NbRwOBp6yk2YPHZ7iNKdOMF56/19x9Lr8edN0dGXw94I0nTGY8yMoZj7nCgk/jWPq37RHjC6yW1ODTouywxIgH4nJ/Wvnof2xfNh7uc+0R2/yro9A+CHjHxY6tY+HtUvw3STyH2n/gR4/WtvaYGj8NNfMweW5xiv4+La/wr/hjqNa+LE+oZOo+JLi7B/g89nH5Diubm+I2nqxKQ3Ny3rtAB/M16NoP7FfxA1Lm40+10uLGS95dIOPou412lv8AsW6Xo6o/iLx7plj/AHo7dAx/Asw/lTWa292lFfJGMuFsJH38ZVlL/FKx88zfEq+b/j10+KMesrFj+mKp3HjTxFecLdLbqe0MYH6nJr6x0/4K/A/w8v8ApWo6p4hlXqFLIp+m0L/Ouh0nUvhp4Y2DQ/h7azOnSa+Advr8241qq2Y4jSEJfkcc5cKZZrOcLr/t5/qfFdrpHiTxRIIYf7T1Nz/yzi3yfoK7fQv2WPiPrio8PhW8ijb+K6KwfjhyD+lfXv8AwuTWCuzTtPsNLi7CGLJH9P0qCTxt4k1RcTapMFIxiLCfyreGV5jW1k1H1dzxsT4hcP4BONCEpeiSX4/5Himg/sHeKrhVfWNY0nR4+pG9pnH4AAfrXa6L+xf4K0sqdb8Y3F84xmOxjWMfTPzmu3toZ7lt0sskjHqXYk1t2enhccV6lLhycv4tZ/JW/wAz4LMPGKdNNYPCpecm3+CsZWkfAf4RaHIrQ6DNqrrjDXczuD7kEgfpXe6NbeH9DjVNI8MafYKP+ecCL/IVStLHuRWlHGFXgV7mH4ZwS+NOXq2fleZeLnEuKbVGqqa/uxX5u7NKbXbqZNoCIvTCr/jVJmZ2yxLH3pKK+swuBw2DVqMFH0R+VZlnuZ5w74/ESqerbX3BRRRXoHhBRRRQAUUUUAFbHhXSzqmsQgj93EfMf8On61kKpZgAMk8ACvUPCmg/2Pp4Mg/0mX5n9vQV4ebYtYbDtX96WiP1Lw74bqcQZzTlKP7qk1KT6abL5s19tG2pNvvRtr8yP77StoiPaKTbUu2jbQMj20m2pdtG2gCPbRtqTb70baLgRbaNvvUu2jbQBFto21JtpdtAEW2jbUu2jb60ARbaMVJtpdtAEW2jbUm2jbQFiPbRtqTbRt9qAIttFS7faigCbbRtqTbRtNSUR7aXbT9tG32oAZtpNtSbaNtAEe0Ubak2mjbQBHtpdoqTaaNtAEe2jbUm2jbQBHtFG2pNtG2gCPbRtqTbRg0AR7aNoqTbRtoAj20bak20baAI9vtRt9qk20baAI9tG32qTbRtoAj20bfapNtG2gCPbRtqTbRtoAj20bak20baAI9tG2pNtG00ARbaNtS7aTb2oAj20xrdH6j8qn20bfaplGMtGik2tjznx18BfBHxERzrfh6zup2H/HyieVOP+Brg/nXzb8Qv+Cd9jcebceE9fls26i11NPMT6CReR+INfad1dQ2NrLcXEqQW8Sl5JJGCqqjqST2r4q/aT/a4fV1uvDng64MOmkbJ9TQlZJvVU9F9+p+lZRwKqP3NDhxua0sBDmq6t7Lqz5s8ffsq/EPwH5kl94fmvbNf+XvT/wDSI8evy8j8QK8jutDMbMrIyMOCGHSvePCH7TnxC8DyKtjr0t3Zr/y6ah+/jx6fNyPwIr0Kf9of4dfFa3+zfEfwFHbXb8HV9FwJQfXs34Zb6VjUwdem9FdHLhs/weISU3yvz/zPjZtHKyDAz9KoTaWVduO9fYlx+y34N+ISNP8ADb4hWd5Mwyul6x+5nHtkAH/x38a8m8dfs4+PPh+0jav4duvsy/8AL3br50OPXcmQPxxXG5OLs9D6CEoVVzU3dHlnhvxHrvhO5WbStYv9OYDb/otw0fHpwa9V8N/tLfFr7dbWWn+Jbm7nmcRRRTwxSF2JwBll9/WvN5NLZTjaQfcUyOzuLWZJYS0ciEMrocFSOhBrOSjLdGyutj7e0C4+PMltFca5430HQYZFDkTW0UkgGO+FC/rU918TJdJ3/wBv/GyWdkJHk6NZW6E/iqOf5V8W3Ova5qMhkvLubUH/AL1w5dvzJpFvrpuPIXP41MMHh5a1JfcjzcRiswi7Yemn5t/pofU/iD46+BdoM1x4m8T3Kj711fSrGfqu8L/47XLn9pq10dmPh/wRpWnNjAkkG5j7naBk/jXgW+6b+BV/A1JFY3lw2AXJPZR/hXWqOAp/ZcvVnmNZ5iH71SMF5I9Y1b9prx9qWRHqkemxZyEtIEUD8SCf1rhdb+IWv+INx1PxBfXmTyslwzL+QOKt+H/g34u8UbTp/h7UrxT/AMtFt2Cf99EY/WvRNG/Y68f6giyXNha6ZCcEyXd0nf2XcaPruHo/w4JC/sPEV9cTiJS/BHhsl8rNnEkh9aha6lb7kQH+8c19QL+yXoGgKH8T/ETSdOwMlIArH6Asw/lS2/hn9n3wrj7Zq2q+Jp0PzLCHVG+m0L/Oj6/Xqfw4t+iD+ycqwutaSv5yPmP7dqTxiNJPJQfwxqBUtj4V1nX5Fjtba+v5G/ghR5CfwAr6YX41fC/wuwHhr4Y29xIpys+pMrN+u8/rTNQ/a68Vyx+To+m6VokOMKIYN7AficfpV+zx9b7P3szeYZJgl7jV/KP6nk2g/sr/ABD1yMPD4WuoU4+a7Kwfo5B/SvRNH/Yg19VWXXtc0bQourb5jIwx7cD9axdV+OPj3XFZbrxNehHPK27CEf8AjgFcvLcXmqTGW6uZrmQ9WlkLH8ya3hlWJqfHNL01PIxHGWDo6UaTl6u3+Z6vD+z38JfCrA6/8RDqLqeYdMjX+Y31qrJ8BvDBX7B4Xv8AxBMmcPcu4RvTIZgP/Ha8et9P7nrWrbWPoK74ZJS/5eTb/A+WxPHWMd/YwjH8WexWv7QVhokJi8N+A9H0cYwGKAnHvtUfzqjffH/xxqjfJqEdinQJbQKuPxIJ/WvPrex6cc1p29j04r0qWU4SntTT9dfzPjcZxdmtb4q7Xpp+RbvvEuva63+n6ve3QP8ADJOxX8s4qG3syTk8n3q9a6ezHpx9K2LPSTx8tezTw8IK0Y2PhMZmtWs26k235szbWwLY4ras9NLY+XA+latjo54yK3rPSQMfLXdGmfKYjHeZk2OlHgYrobHStvatGz0zpxWza6d04rshTPlcVmFtmU7PTwMYWti3sggBYVYigWPgCpcV6NOj1Z8vWxEqr3EVcU6iiu5RUdEcYUUUVQBRRRQAUUUUAFFFdP4L8MnVroXU6/6JEeh/jb0+lcuJxEMLTdSeyPcyXJ8VnuNp4HCRvKT+5dW/JGj4H8L7tuo3SYH/ACyRh/49XcbakWMKoAGAOKXb7V+WYzFzxlV1J/I/0G4Y4cwvDOXxwWHV3vJ9ZPuRbaNtS7fajbXCfXEW2jbUu2jb7UARbfajb7VLt9qNtAEW2jbmpdvtRtoAj20m2pdvtRt9qAIttG2pdvtRt9qAIttG32qTbRtoAj2+1G32qTbS7aAIttG32qTbS7aAItvtRtqTbRtoAj2+1FSbaKAJdtG2pMUbTmpAj20bak20badwI9tG2pNtLikBFto2+1SbaXbRcCLbRt9ql20m2gCPb7Ubak20u2gCPbRtqTbRtoAj2+1G2pNvvRtouBHt9RQV9qk20baAI9tGPapMUbaAI9vtRtqTbzRtoAj2n0o21JijbQBHt9qNvtUmKNtAEe2jb7VJto20AR7fajbUm2jbQBHt9uaNtSbaNtAEe32pNoqXbRtouBHtqhrmt6f4b0m51LVLmOzsbdd8s0pwqiqvjHxtofgPRrjVNd1GDT7WFSxMrgM3so6kn0Ffnz8ff2jNW+L148FvvtfD9u5aC1jz83o7nu36DNa04qb1dkeTmOOeCp3hByk9kl+ZsftJ/tTXvxAuLnRdDlksvDSttwOHuiD95vRfRfzr5juLlrhyxNSXEjzsSTTEg3HnrXrK0VaOx+V1q1SvN1a7u2QrGWqdIcVOkPtUiw1VjklUI490TKyMyMOQVOCK9M8F/tGeP/A6pFaa7NeWa8fZNQ/fxkenzcgfQivOtntimN6VE6cJq01c0o4utQlzUptPyPcdQ+NngXx/cLL4v8B2trdMm2W70gBTIc53EZUg/iaWHQvgFrA3f2tq+jMwztYOQD+KN/OvCJGx9ahbLcmvKqZXRm7ptH09HirG0Vadpeq/yPoZfhz8CDyfH96FxxmPn/0XU6eEP2eNNYef4v1a/wAHlYo2x+kX9a+cfLzUscVY/wBjQ/5+M6ZcY4m2lOP4/wCZ9Enxl8AvDan+zvCWp69Mp4a7YhW+uX6f8BpIf2q7Xw+sieGPAOjaSp+4zKCR9doXP518/pHUiqT0rojk+FWsk5erPJr8W5lU0hJR9Eeq6z+1R8RdVBWLVo9MiJz5dnbov6kE/rXCax468T+KMnVdf1G7iPVZbliv0C5xWQsPG5+n86guJs/KOB6V6NPB4ej8MEvkeLPM8di/4lWTXqxJpy3yqeBUG454GTRy1WIbct2rf0MPhWrGxqSeRWhBBnoNxqa1sScZFbFrp/TitIxPPrYi3UpWunFiC3Stm1semBirtrp59K2LXTunFdEYnz9bFKPUz7XT+nFatvYdOK0rXTSccYrZs9JPGFrqjTPncRjuxk2+mk44xWxZ6STj5fxrbs9G6ZFbtno4GPlrqjTPm8Rj/MxLLRe5FbtnpAGPl/Oti10vp8ta9tpo44zXVGkfNYjMUuplWul4xx+NbFrpvTj9K0YLEL1q9Hb7Rk/KK7qdE+arYydR2iVIbNY8cZq0q49qecD7opK74U1E8qUm3qwooorcgKKKKACiiigAooooAKKms7Oe/uFht42llY4CqK9G8OfD2CzVJ9QAnn6iP+Bf8a83GY+jgo3qPXsfbcN8I5nxRW5MHC0FvJ/Cv8/Q5nwr4Nl1thPcBobMc5xgv9Pb3r063tIrOFIYUEcaDCqo4FWFjEahVAVR0AHFO21+cY7MKuOneWkeiP7a4S4NwPCmG5KK5qr+Kb3fp2RFto21JtpdteXc/QCLbRtqXbRtoAi20bal20baAIttG2pdtG2i4EW2jbUu2jbQBFto21LtpNvpQBHto21JtpdtAEW2jbUm2jbQBHto2ipNtLtoAi20bak20badwI9tG2pdtG2lcCHbRUu2imBJto2+lSbaNtSBHto2+1SYPrRtoAj20bfapNtG33oAjx7Ubak20baAGbfajb7U/bRtFADNvtRtp+2jbQAzHtRtqTbSbaAGbaNtSbfek20AM2+1G31p+2lxQBHt+lG2pNtG2gCPbRtqTaPSjaKAI9tG01Jto20AR7fejbUm2jFAEe00bTUm0UbRQBHto20/bS4oAi2+1LtqTb74pNtAFa7uYbG2luLiVIIIlLySOcKqgZJJr5l+LH7S2p3ST2XhEf2dZ8q2qzJmV/8Arkh4X6nJ9hXX/GTxJN4ku5dItZJF0u0YrPtOBcSjsfVV/n9K8K1nQfOkG4HCnIArxcTjLNwgerQwt1zTPIvFEeq+IL57u/uri8uSObi9lM0v0yTx9BiuVufC8kjbpZZJD9eK9pudBDMfl5rPl8N5yNnFeb7dvc7PYo8e/wCEXjDZKH8Saz7/AEM2rFlX5K9jm8Nkfw/pWbqHhgNCwK5/CumnjKkHeMjzsRleFxEXGrTT+R5DDGsmdpzg4IxginNHW9eeE5BNO9vKgnj58tjgsKyOGUHoe49DX2mDxUcRG3U/GM/ySWVz9rT1pv8AApSJ61VlbHAq7NljjoKqOvpXo2Pk1U7EG38aMU4rShaLBcFTuamjX2ojTcavQWxbHFUkYTnYhjhJqfyljXc3TsPWrbQrbx7n6+lZtzOZXOKr4TOmnVfkRXFwW6VWWMuasLAXNXrax3YGKz1Z6HPGmrIqW9mWxxWvZ6eWxxV2z008cVvWOmdMLWsYHk4jGJdShZ6b045rcs9L3YOOK0bLSzxxzW9Y6SWxkV1xpnyuKzC2zMq10zsBW3Z6SWx8tbNjovTit6z0jp8uK7I0z5XEY/uzGsdG6cVu2ekYx8tbNnpPTitm10wDGRmuuNI+XxOY+ZkWmldMLWxa6aBjjNacNiFxkVdht93CLmu6FE+arY6VR2iUobELjNX4LQt91ePWrQtkgUNIcn+7TJrgvwo2r6CuyNNdDhkra1X8g2xwdPnf9KiZixyaSiulRsc0p82i0QUUUVRmFFFFIYUUUUxBRT44nmcJGjO56Koya6bRvh5qepMGmX7FD13Sfe/AVy1sTRw65qskj3MsyTMc4qKlgaMpvyWnzeyOWrpvD/gO/wBYKySqbS1673HzEewrv9F8DaZou1wn2mcf8tJecfQdq6HbXyOM4gunDDL5s/o7hnwd5XHEZ7P/ALcj+r/y+8ydG8PWehwiO1hAb+KRuWb6mtLb7VJt680ba+NqVJ1ZOc3dn9M4PA4bL6McPhYKEFsloR7fajbT9tG2sztGbfUUbfan7aNtAEe2l20/bRtoAYFPpRt9qft/CjbQAzb7UbfWn7aNvvQAzb14o2+1P2+9G2gBm3npRtNP20be3WgBm2jFP2+9LtoAj20bakxSbaAGbfajb7U/bS7aAI9vtRt9qfto20AR7fal29eKk20m2gCPb7UVJtooAfto21JijbUjGbaNvtT9tG2gCPb7Uu32p+00baAGbfajb7U/bRtNO4DMUY9qfto20gGbaNtSbaNtAEe2jb7U/bRtoAZto21JtpNtADNtG32p+2l20CGbaMe3NO20baBjcUYp+2jbQBHg0uKfto20AMwaTaaft9KNtADMUYqTbSbaBDNvtRtqTbSbaAGY9qoa9eSafpNzLCAbjHlwhuhkYhUH4sRWltqneWxvNV0K3PKPfo7D1CK0g/VBUyehUdzyf4geFRoWoNYgbliRF3kcudoyx9ycn8a801DRQzH5a+jvjZDF/amnnYA0kTB2HsRj+teU3WkDdkDNfIYj93VlE+nofvKcWeYTeH+c7aqS6FtJG39K9ObRwf4apXGh/N0rl5rnRynlt5pIXjZWNeaUWHC4Hq3FeuXHh12bha5HxNpy24KRgO+OcHpVRaJlFnhvizQ1ikbaAZSPmZOBj0rzS+09rW4bj5Wr3XW9NyTkdRXnWvaXtlPy5969nC1nSkpRPnMwwsMZSnRqrRnAyRHvxVSRcHFb1zYuFdgMhev+NZMkO5q/QaVRVoKcT+csZhamAxEqFTp+KKW3nipYbVpG6Vchtc9q0razxzitlG55866itCta6aOCa0DGlrHnHPYVPtW3TcevYVm3UzTMa10ijkgpV5a7FO8maZjzUMVuWPSrcNqZG6ZrVtdNJxxWVnJnoyqxpRsija6eWxxW3Z6XnGBWhZaV04xXQWWl9AF5reNM8LFY5R6mdY6V04robHSeny1p6fo+cEiul0/R+ny8V3QpHx+LzDzMix0bp8tdFY6R0+Wtay0nGPlrestL6fLXbCmfIYrMPMyrPRxxxW3aaWBj5a07fTwqjirscQXoK76dG58niMfKT0KtvYhO2KtxwgcKMmrUNm0mCflX1qcvFa8KNzV2RpqPqcHJOp71R2RHDYnhpPlFPkukiXbEPxqvNcPMeTx6VHW6h3JdaMPdpL5isxZsk5NJRRWhyXvuFFFPiieeRY40Z3Y4CqMk0NqKuyoQlUkowV2xlbvhvwhe+IpQUXybYH5pmHH0Hqa6jwv8MmbZc6sNo6rbA8/8CP8ASvRIbdLeNY4kWONeAqjAFfIZjnsad6eG1ffof0Twb4U4jMHHG50nCnuofafr2X4nNR/DzRVtEhe2Lso5l3EMax7z4TWzkm2vZIh2Eihh/SvQNtGDXydPNMZTd41Gf0NiuA+HMZTVOphIq2mmj+9WPNF+Ekm4btRXb3xEc/zrVsPhZp1sQ1zLLdH0ztX9K7fbSba2qZxjais5nBhfDfhjBzVSGFTfm2/wbsULHRrLTF22trHCPVV5/Orm2pNtJtryZ1JVHebuz9Dw+FoYSCp4eCjFdErDNtG01JtpNtZnUN2+1Jt9qk20baBke0+lG32p+2jbQIZto2+1SbaTbQMZt9qNtSbaNtAEe2l2+1O20u2gCPb04o21JjrRtoAj2+1G32qTbSbaAGbaNvtT9vvRtoAZt9qNp9KftpdtAEe2l20/bRt96AI9p9KNvtUm2jbTuBHt9qNtSYo20gGbaTbUm33o20CI8UVJtooGO20bafto20gGbaMe9P20baAGbaNtP2ijbTAbtpNtP20YpDGbaNtP2ijFAhm2l2inYoxQA3aKTbT8CjAoAbtpNtP2ijFAxuBSbaftowKAG4FG0U7AowKAG7aNtOxRtFADdtJtFPwKMCgBmKXbTsUYFADMUuKdtFG0UAN20badgUYFADNoqOFV/wCEk0Ik4xcPj6+TJU+2qt5cLY3ul3bnCQ3aBj6BwU/9nFRPYqO5Q+M1qZLnTJMcbXX9RXnq2/GK9c+Kln52k2s4GfKlwfoR/wDWFebxwhh05r5HMLxrvzPpsD71FGTNb+WudgJrLvLhkztiQH35rqprX5c4rG1C1DZ4ry+Y9HlOD1ma4mkKtK20/wAK8CsfWLFY1CgV2jeGr3Vpp/sls84hXzH2jO1axdes/mNVfYm2rR5F4gslDMccdK881yy3BmxXrevWvyMvfrXmviS3khifaPevRoVLaM87EUebVHlviwTWOmyNA3lySHbu749q5PQdVXVN0Uny3UfDL/e9xXX+Jbd7hWLkt9a81u7W5sdTims1ZrguAqKPvEnp+NfSYPGyozv0Pic5yGlmOHcbe/0f9dDvrSzMsgVRk1rR2Jj6Lux1PTn0r0q48G6Xbsj6ZZ3Fpa+VGG+2SB5mk2jdkjgc54HYCs648Otngd+mK68VnF5Wo7HzeUcE06UHPH6yf3L/AIJ5lfRzq+HRlHrjiooLMyHpxXqK+Hw3DRgg9cil/wCEJgl5VPKP+z0/Kt6OeU5O1ZWPNzDgfEUouWBlzLs9H/kcJZ6bnHy/pW5Y6T04re/4RmWxCsy5jPRsf5xWnY6SWx8uB619Zh3CvFTpu6Pw/NKlfAVZUMTFxkujM6x0rdgba6XTtH6fLWjp+jhcfLXS6fpXTivThTPgsXmHmUNP0fpxXQWemdOK0LPTcY4rXt7MIBxiu+FI+NxWYeZTtdOC44rTht1jHSpFjC9BUqqB1r0adG2rPnKlaVV6sI4WkOAKtrHFbrlzub0qv5zYwvyj2qOunlFGpCnsrsnmu2k4HyrUFFFaJJbGUpym7yYUUU6ONpXCIpdj0VRkmhtLVijGU3yxV2Norq9F+G+ratteVBZQn+Kb734LXoOh/D3StG2yGP7XOv8Ay0m5A+g6V4WKzjDYa6T5n2R+p8P+G2e541OVP2VN/alp9y3Z5t4d8C6lrxV9n2a27zSjGfoO9eo+H/B+n+HYwYI/MnxzNIMt+HpW6FA46Cl218Pjc2r4zRu0eyP6p4X8PMo4bSqqPtK380v0XT8xm2jbT9tG2vEP1IZt5o20/bRgUAMx70Yp+BRgUAN2ijaKdgUYoAbtFG2nbRRgUDG4o207aKNtADdvak20/bRigQ3aKTbT8CigY3bSbafijFADdtG2nbaMCgBm0UbafgUYFADcUbadgUbaAG7aTFPxRtoENxRtp2BRtFAxmKNtP2ijaKAG4FGKdgUYFADNopdop20UbaAG4pMU/Ao2igQzbRT9tFADttG2nbaNtIY3bRtp22jbQA3bRtp22jaaAG7aXaKXbRtoATaKMUu00baAExRgUu2jbQAm0Ubadto20XAbto2inbaNtFwG4o207bRtouA3FGKdto20AN20m2n7aNtFwGbaNtP20baLgNwKTbT9tG2gBu0UbadtpNtADdtLinbaTaaAExVfULGPULOa2kHySLtPt71Z20baT10YeZJo+oJ4w0C60m+YR6nbr5U69DuH3ZB7Hg1h6d4Ba8tJmF6BdRbkaHZwHHqc9D/Wl1rTLrzY9S0uTydVth8h/hlXujeoNGg+Mo9ZlOo2amC/T5L6wfg8cEge1eJi4U+ZOqr/AOX/AAD1sPOfK1Sdv8/+CcfcST28jxTQ7XU4YdCDWddsHX7pBrufFE0Gs3n2iKHyjtwx7sa5a8scZ4r5GraM2ou6PqKV5QTkrM7H4M6ev2PVLkrzI6xZ9gM/+zV5J498PvouuXto4yEc7Tjqp5H6GvbvhKoj0G5T+IXDZ/IVznxz0VCtlqKLh2zDIQOvcf1r36lFSwEJrdHh06rjjJwfU+WfEFr8pz2rgPEFh5kLHHSvV/EVruZh0Ga4XWLT92wIrzacj0Zo8P12w2+YmPpWr8CfhyPFHi+fUriLfb6YodQRwZWyF/LBP5Vo+ItN27jjpX0p+yh8MTefC/U9Sjj3TyyvKvq2Dtx+Sn869BSlKNo7nC0ou8jktU8PiNdoXpWC+h7mxtwa9i1PRdzn5cishvDm7+H9K5nJG/KeaR+Hcn7lWV0MW6hyhYE4Fehr4c+XBXIIx6VPZ+GYlkGY+vfrWLmaqB50mj3N4oSOFUQ8EuM8UTeFJNNmXch8txlW/pXs9j4fVAMRgfhVrUvC8WoWDREAOOUb0NfQ5JmjwOIUZv3Jb+Xmfl3iBwms/wAsnVw8f39NXj594/Pp5nkVjpWMfLXQWemhQCRV6PTfsjsjrtdTgg9asxwlug4r92o0lJKS2P8AOjF4mrzuk1ZrRkUcKr0FShaeVVeByabXpRgonjyvfUKKKK1JCiiuh0TwLq+ubWjtzBCf+Ws3yj8B1NYVa9OhHmqSsj08BleNzSqqOCpOcn2Vznquado97q0ojtLaSdj/AHV4H1NeqaL8K9Nsdr3jNfSjqp+VPy712NvaxWcKxQRLDGvRUXAr5XFcRUoe7QXM+/Q/esh8G8firVc2qqlH+Vay/wAl+J5novwjmkCyalciIdfKh5P4mu70fwxpuhoBaWyI/wDz0YZY/ia1uaMGvkcTmWJxX8SWnZH9E5HwRkeQJPC0E5r7UtX+O3yG7aNtO2mjaa8y5936DdtG2nbTRtNFwG7aNtO20baAG7aNtO20baAE20m2nbaNtFwG7aNtO20baLgJto20u2jaaLgJijbS7aNtFwG7RS4pdpo20XAbto207bRtouA3bRtp22jbRcBu2jbTttG2i4DdtG2nYNGKLgN20badijBouA3bS7aXBo2mi4DdtG2nbTRtNFwG7aNtOwaMGi4DdtG2nbTRtNFwG7aNtO2mii4DdtG2nYNGDRcBu2inYooAdRTsCjFIY2ilxS4oAbRTse1HFADaKdgUYoAbRTsCjAoAbRTsCjHtQA2inYo/CgBtFOwKKAG0U7FGBQA2inYoxQA2inYFG2gBtFOwKMCgBtFOwKKAG0U7ijFADaKd+FGKAG0U7A7UYoAbXn194T1Sfx9c3GikRzGFbs5baCc7SB6k4/WvQ8CqlvILHxdpNxwFuFltGOPUB1/VD+dcuIpRqxtI6KNR05XRBeaLdrpMN/PbfZ52H+kQjGFOeox2Nc/dQhlNewSRrLGyMAVYYINchp+hW19peoQkfNBcSJHJ3GMcV89jMs99Ok+h7OFzDljaoc34E1j+x9c+yyNtt7r5eezdj/Suy+IGjjW/Ct7EF3SRr5sf1Xn+WR+NeT3zFSGU4ZTkEdQa9j8K6sNe8P21y2Gdk2yD/aHBqsrqe1pyw0wzCn7OpHERPkbxBZHc/HvXE6pZ+ZG3HIr2n4jeHW0fWLy32YVXLJ7oeRXl+oWm1mrx7OnJxe6PVupxUl1PKfEGnbkbj2r7b/Zh01dJ+BdgYxh3idzj1IJ/mTXyTrdjjdx1r65/ZYu/t3wigt25MEssJ+meP0r3MBKLk09+h4eOjUTjKPw9f0OKhtSxIYbhnoatrpMcnbFaH2T7NdzwvwY3KnPsa0re3U4I5rxJys2me5GOlzDXQA3QZqVfDxXBC4rce0KnKkg+o4o825jGBJke4BrllI3UTIkgNqvMdVJLoyEgAqK174y3O0Ptx7DFU/sgXtWPOzXkOb1TTFuGadULSAcgfxVzskxb5cbV/u16BJb45xWLqGmW9wxZo8P/AHl4NfqfD3F8cLTWGx92ls+3qfyn4ieD9TN8RLM8gajOWsoPRN90/PqjlaKu3VpHbZPzt+ArA8R68+hWf2mLTmvVUhmj8zYSueccHnFfoX+tWUtXVW/yZ/PcfCLi9z5ZYW3nzRt+ZqwwSXEixxRtI7dFUZJrstC+Fup6ltkvMWMB6huXP4f413vw+bw/qnhyx1bQI4za3UYdZcZf3Vj1BByCPUV0+2vMxXEU6mmGVl3Z+scP+DeFw9quc1OeX8sdF83u/wADndE8C6Roe1o7cTTj/lrN8x/D0roaXbRt96+Uq16leXNUldn9A5fleByukqOCpKEfJWEopdvvRtrA9QSil20baAEop22jbQA2il2il2igY2il20uKAG0U6jHtQA2inYFFADaKdijbQA2il20baAEopdtG2gBKKXbRtoASil20baAEopdtG00AJRS7aNtACUUu2jaaAEopdtJg0AFFGKXaaAEopcGjbQISil20baAEopdtG2gBKKXbRtNAxKKXbRtoEJRS7aKAFop22jbQMbRTttG2gBtFO20baAG0U7bRtoAbRTsUbaAG0Uu2jbQAnalpcUm2gBKKXbRtoASil20YoASinbaTbQAlFLtpdtADaKXaaNtABSUu2jaaAEopdtG2gBKWjbRt96AEopdtG2gBKy/EjPb6cLyPcZLOWO5G30VgW/8AHc1rbaiurVLu3lgkGY5FKMPYjBqZK6aHF2aZ2McgkjV15VhkVi6Qvk6zrNr0VnWcD/eXB/VaPBN0114YsfMLGWFTA+7ruQlDn/vmluP9F8WWr9Fubdoz9VII/QmueptGX9am0d5R/rQ8p1yxNnfXUBH+rkYfrxXY/CO7/wBDv7Qn/VyCQD6jH9Ko+PrHydaeQDCzIH/EcH+VVfhzcfY/ExhJwtxGVx7jkf1r5PD/AOzY7l87H0tf/aMHzeVyz8afD/2i2t9TRc7R5MuB2PIP55H4188avZmORuO9fZmqadFq2nz2k4zHMhU+3vXy/wCLvD8umahc2ky4lhYqfcdiPwrqzOh7Op7VbP8AM58vrc9P2b3R5RrFnujJA5Fe4/sha2sdvrejM+HEi3CKfQjB/lXk+pWpXcCKPhd4wHw+8fWeoSHbaOfIn9Njd/wODXLhavs6ikzpxFP2lNxPqqbwhZ3Xja7S7VjFcJ58SqcAnow/Pn8aZ408Kw6bawXenReSsfySKnoeh/z61reKLwPa6bq9kRL5T5DL0KsOR/KtE61p2qaS5mlVEddrxsfmFetOnh5KpTdk3qmeVCpWi4VFdpaNHmcE7cBxn3FWUQTMqjqTgVI1miSusZLR5+ViOorU8OaYt1q0IbAVDvOe+K+ShTdSoqa6s+kqVYwpufYg1bwfeWY3rH58XXcnX8RWDJb7cgjBr2rFcx4u8Ox3Nq93Cm2ZBlgv8Q/xr3cZlHs4upRe3Q8jC5m5SUKy36nl1xH14rKuo66C4h61lXMJzXzSPoWc5eWoYHisrUtKW5tMFcjbiulnhzkYqNbcPFjHTiuqnKzMJxuji/hH4uf4W+MDot4+3w5rE37tmOFtbk8A+yvwPrj3r6dr5l8aeF4tWsZoZE3KwNei/AX4hTeI9Hm0DVpN2u6QFRnY83EHRJfc9j7jPevsMvxXPH2ctz5fHYfkfPE9VopcGjFe2eQJRS4NGKAEopcGjBoASil2mjbQAlFLtpdtADaKdtpNtACUU7bSbaACijbRtoAKKNtG00AJS0baNpoASloxRzQAlLRRQAUlLSUALSUUtACUfrRRQAUUUUAFFLRQAlFLSUAFFFFABRRS0AJRRRQAUUUUAFFFFAC0UUUAOooo/GgAooooAKKKKACiiigAooooAKKKKACiiigAooooAOKKKKACiiigAooooAKKKKACiiigAooooAKKSloAKKKKACij9aKAH+D5GttU1ezdsq7rdRLjoGG1h/30pP8AwKr/AIn/AHH9nXY48m5Xcf8AZb5T/OseGR7PxFptyCfLk3Wsg7fNgqf++lA/4FW94pgNxoN6o6hN4+o5/pXLUX7uS7f8ObwfvxfcxviHZ+dZW9wBkxttJ9j/APqrgdNn/s/WbO4HAjlBP0zg/pXpesyDVPCBmHJaJZP5GvNLmHvXyeZfu8TGrHqkz6TL/fw8qcul0e2Kdyg15r8YPCf26zXV7dMywjbMAOqdj+Fd3oV19u0i1mzktGM/XvV2aJJ43jkUMjDaykcEV9VUpxxdCz6o+dp1JYerddD431mw3AsByK8+1u12lvrX0B8Q/BreH9VlhC/6NLl4G7Y9PqK8b8QaaytJ8uea+L5ZUpuEt0fWcyqRU47M774D/F55APCWrzbsjbavJyHX+4fcdjXsDW8sLY8pip6FeeK+JdQWbT7+O4gZo5omV0dTgqwOQf0r7V+GeuDx98O7bW4ZmF2IyssUYGBIo+Ycj1q5Up19I9DmdRUde5ah2SdCKsRgxOHQlXHII6istrh7lgzyZI9gKv29yCu12z7156WvZnTOLtc6jS/EwO2O74PTzB0/GugUrNHkEMjD8DXnayKw61t+G9UaO5W1Zt0b/d56GvosDmUnJUa2qfU8PE4NJOdMxfFXh06bM00QzbSHj/ZPpXIXUHB4r2+4t47qFopFDowwQa8v8SaN/ZV88X3oz8yN7VxZngPq8va0/hf4Hp5djPbL2U90cXPDz0qKNPvCtS4h9qpMmx814iZ7LRRvLMTRsCK8210X3gvxBZ+JtKU/bLFsvGOBNEfvxn6j8jg16uy/jWHr2lrdQN8ueK9ChWdOSaOKtTU4tM9j8OeILTxToVjq1hIJLW7iWVG9M9QfcHg/StKvn74FeJZPCfiq78IXb4sL4tc6fu6JJ1eMfUfMB6g+tfQNfd0KyrU1NHx1am6U3FhRRRXQYBRRRQAUUUUAFFFFABRRRQAUUUUAFFFFABRRRQAUUUUAFFFFABRRRQAUUUUAFFFFAB+FJtFLRQAm2jaKWigBNo9KMClooATAowKWigAxSbRS0UAJgUYpaKACjiiigAxRRRQAUUUUAFFFFABRRRQAUUUUAFFFH4UAFFFFABSUtFABRRRQAUUUUAFFFFABRRRQAUUUUAJRS0UAFFFFABRRRzQAUUUUAFFFFABRRRQAUe1FFAFfUFb7JI0a75Yx5iDOPmU5HP1Arq4ZU1XS0lUfu7iIMPow/wDr1zlaXhWb/Q5rM9baQqv+4fmX8s4/4DUSX4lLYo+GybzwnNaty8PmQn9cVw0i5Wu58M/6LrWtWTdPM81R9f8AIrjryHybqePGNrsP1r43MVelTl2uvuPqMBK1Wou9n9523gO8E+j+T/FAxU/Q8iulrzfwXfGy1oQk4ScbSPccj+tekV7+WVvbYdd1oeNj6Xsq789TA8aeG4/E2iyQEfv4/nib0bHT8a+XvEmjsrSDbtZSQQf5V9f14P8AFjQRpuvSui4iuR5y/Unkfn/OuLNqGirR+Z2ZbW1dJ/I+aPEGn+XKQRxivTf2TfHn9g+LLrw1dybbXUR5kG48CUDkD6j+Vcr4rsgrZAxXnV1qFx4e1S21Kzcx3NrIssbA/wAQOa8qhUcZKSPSrU1KLiz7g8XaWdK1ZzGNsM3zrjp7j/PrWx4FSzvre4gnhR5wd2WHJWqHhzxHafFv4a6frdkweZowxUdVkHDoffINZ3h/UDpWrQTZwudr/Q8VvJQw+KjUt7sv1OeLliMM6d/eibnijTY9Juo/IyqSDO3OcYqhYXbW13DLn7rA10XjiMPDazA8ZI/OuWjrz8bFUcS+TRbm2Fl7bDrm1Z6lGwkjVgcgjIrJ8TaMNWsG2D9/H8yH+lN8K332rThGxy8R2n6dq2a+0jyYzDq+0kfNe9h6um6Z4tdW5VmUjBHBFZs0PtXp3i7w15wa9tl+frIg7+9cFNb9a+BxWGnhajhI+1w2IjiafMtzFKlfcUyVA8ZHXNaElv14qrJCV7celYRlY3lG55l8QNHngji1GyYxX1nKs8Eq9VZSCDX0H4F8VQ+NPCmnaxCAv2iP95H/AHJBw6/gwIry/wAQWouLOVMbty4pv7P2pvpesa14dlc+U+L22VjwOdsgH/jh/Ovp8qxHv+zfU+fzGh7nOuh7hRRRX1Z82FFFFABRRRQAUUUUAFFFFABRRRQAUlLRQAUUUUAFFFFABRRSUALRRRQAUUUUAFFFFABRRRQAUUUUAFFFFABRRRQAUUUUAFFFFABRRRQAUUUUAFFFFABRRRQAUUUUAFFFFACUtFH8qACiikoAWiiigAooooAKKKKACj+VFFABRRRQAUUdqKACiiigAooooAKKKKACiiigAooooAKKKKACiiigAp+lzCz1yE9EuUMJ/wB4ZZf03fnTKgvEkaDdCAZo2EkY6fMpyB+OMfjUy2Gty5cD7B44gk6JeQlSfcf/AKhXPeKrf7Prc/GFfDj8RXQeMGBtNN1OMZEEqvn/AGT/AJFU/HUAZrS6UcMu0n9R/Wvmcwp3p1F2af3nu4KpapB91b7jlIpja3kMw4KOG/I16/GweNWByCMivG5vu16n4auvtmh2kmcnYFP1HH9KyyWp706fzNs2hpGfyNOuC+L+j/bvD6Xarl7V+f8Adbg/riu9qnq2npqmmXVpJ92aNkP4jrX0mIp+2pSh3PCo1PZVIz7Hxz4qtd0LHGSK8g8WRbVfj1r3fxNZNGtxEw+dSyn6ivEfGke2KT6V8RSunY+uqbXPpv8AZD/4k/wj0m4PEV3cXJl/7/Mqt+n613/i7R/7L1MyRj9xP86+gPcVyv7O9ksPwR8LxEcSWrOf+BOzf1r0tbca9o82nzHN3bjMbHv/AHW/oa+jxOG9pRUVvuvX/gngUMR7Os5dOvoUlvP7W8JDcczWrAH6dAfyrGjo0W4a1uJ7OX5FmUxuG7MOn60R+h7cV8viZ+05ZPe1n8j3KUPZuUVtuvmbPhq++x6koY4jl+U/0ruq8yU4wQcHtXfaLfC+0+KQnLgYb6ivdybEaOg/VHj5jSs1URe68GuR8SeEfO33NmvzHloh39xXX0V7mJwtPFQ5Jo82jXnh5c0GeNz2rRsVddrLwQe1VZLXcDxXrmpaBZ6pzLHh/wC+vBrkdf8ACqaTCJkm3oWxtYc18ZissrYZOa1ij6nD5lTrWjLRs4G8sAyEYrjLRf8AhG/iJoN+AQjXP2d8HHyyApz7AkH8K9OmhBU8V598QLNo7Fp4xiWEiVD7qcj9RXHharp1YyO3EQVSnJHu1FQWNyLyyt7hfuyxq4/EZqev0paq58E9GFFFFMQc0UUUAFFFFABRRSUALRRRQAUUUUAFFFFABRR60UAFFFFACUtFFABRRRQAUfyoooAKKKKACiiigAooooAKKKKACiikoAWiiigApKWigAooooAKKKKACiiigAooooAKKKKACiiigAooooAOtFFFABRRRQAUUUUAFFFFABRRRQAUUUUAFFFFABRRRQAUntS0fpQAUUUUAFFFFABRRRQAUUUUAFFFFAE9qrapo+o6c/LR/wCrJH8JGV/I5H4VSkb+2PBKORma3GG9ipwf0q3ZXUlrqFuVx5MjeXL06EcH88D8aNNt1tdX1bS3/wBXcDz4x7Hhv1ry8VT5nbumv8juoz5Vfs0/8zgpT8ld18O7rztLmhzzFJx9Dz/jXD3ULQSSxMPmRip/Ct34d3flatNATxLHkfUH/wCvXy2XSdHFJP0PpMfH2mGbXTU9Hooor70+NPnX4uaQum+Jr1UXbHMBMP8AgXX9c181ePISkEw9Aa+yfjppXmWljfqv3S0Lt355H8j+dfI/xCtsR3IHvXxWIp+yxMon1lCftMPFn1P8DUCfB/weAMD+zYT+a5rtHZrWeO7iBMkXVf7y9xXBfs+3Qu/gz4UYNu2WYiP1VipH6V6FX16ip00j5hvlm2Zvi7TUYRava8xS4347HsayIZfM+Y9TzXT6e6RzS6dcgNZ3WfLz/C3df6iuZuLOTSb+W1k6qcq394djXx+Y4dwl7RLff1/4J9Jga3PH2b6behYWt/wpeeTeNAT8sgyPqKwEqaCZreZJFOGU5FeXh6zoVY1F0N69P2sHE9IoqCzulvLaOZPusM1PX6RGSlFSWzPkGmnZhXO+NYy2nxsOivzXRVm+IYBcaRcD0Xd+XNceOh7TDTj5G+HlyVYy8zzZ14rmPFlmJrGYEfwmupbpWTrcPmWr8dq/N4uzPuY6qx0Hw+ujd+CtGc/eW2WM/Vfl/pXQ1yPwsct4PgjOMxTTJx/10Y/1rrq/T6EualGXkfCVly1JLzE/WloorcxDiiiigAooooAKKKKACiiigAooooAKKKKACiiigAooFFABRRRQAelFFFABRRRQAfrRRRQAUUUUAFFFFABRRRQAUUUUAFFFFABRRRQAUUUUAFFFFABRRRQAUUUUAFFFFABxRRRQAUUUUAFFFFABRRRQAUe9FFABRRRQAUUUUAFFJS0AHSiiigAooooAKKKKACiiigAFFFFABRRRQAUUUUAFFFFAEdzCLi3kiJK71K7h1HvUl9ebotL1lfvQSGC4+hO1v1H60U6xRZpLzT5TiG8jLIPRwMN+m0/ga568OaOm5tSlyy1MDxpafZ9YaQDEcyhwR0z0NZXh+6+w6/Zy548wKfx4/rXQ61E1/wCGIJn/AOPmxcwy+vBx/ga4yR9jKwOCDmvicUvY4n2i66n1uGftcO6b6aHuIpaq6Xdi+0+3uF6SIG/SrVfeRkpRUl1PjZLlbTOW+Jmm/wBpeDb9QAXiUTLnttOT+ma+MviFa/63A+8ua+8Ly3W7tZoHGVkQoc+4xXxb8SNMa1mnhYcxO0bfUHFfOZpDlqRqdz3sulenKB6P+yjqgvvhLDak5fT7y4t2Hpl94/RxXsdfN37IOp+TceL9HLfdlhvEX/eDIx/8cWvpGvcw0ualFnkV48tSSIL21F5bsmdjj5kcdVYdDVfUlbXdHW7KbdQs/knQdx3P9av1RuJ/7HvV1FRmJsR3K9ivQN+H8vpWGLoqpB3+f9eRphqrhJW/r/hzJt5A6gip6NQsRpt+yxndbSjzImHTae34UCvgqtN05OLPqVJTSkup1PhG83QyW5PKncv0NdFXAaTefYb+KT+HO1voa75WDKCOQa+xymv7SjyPeJ81jqfs6vMtmLUN3H5ttKh6MpH6VNSHoa9ma5otHAtHc8qddpI96oakm63ce1a2oR+TeTp/dcj9azbwZib6V+WyXLJo+9pPmSY34Vsf7J1GL/nnfOB+Kqf6mu1rhfhi22TXYsYxcq+fqgH/ALLXdV+j4F82Hg/I+NxatXmvMKKKK7jjCiiigAooooAKKKKACiiigAooooAKKKKACiiigAopKWgAooooAKKKKACiiigAooooAKKKKACiiigAooooAKKKKACiiigAooooAKKKKACiiigAooooAKKKKACj+dFFABRRRQAUUUUAFFFFABRRRQAUUUUAFFFFABRRRQAUUUUAFFFFABRRRQAUUUUAFFFFABRRRQAUUUUAFFFGKACiiigAqC7drdVuY13S27eaoHU46j8QSPxqeik1dWGiZoYZdSnjVs2mrW/mIe28D+oIP4V5vexNbySROMPGxU/hXc2szy6XdQgZuNJnE0Q7mI/MB+W5f+A1heO7RYtQju4v9TdoHDDpnHP9K+VzOj7vOun6/wDBPocvq2nyvr+n/AOp+HWofa9D8knL27lfwPIrq68q+GuqfZtdktWOFuE4/wB4c/yzXqlevltX2uHj5aHm46n7OvLz1Fr5b+PGki08RaiAMK7LMv8AwIc/rmvqSvDv2itLzJZ3QGfNhaP8VOR/6FUZnDmoc3Zl5fLlrW7o8J/Zz1A6R8a5LUttj1Gwljx6shVx+gavrmviPwne/wBg/GLwlekhV+3LAxJ7SAx/+zV9uVpl8uajbsRjo8tW4UjosiMrDcpGCD0NLRXpnnmTDCZIZNJkJM0GZrNz1ZO6/wBPyqpG2RWnqlrJNEk1sdt3bt5kR9T3U+xH9Kzrm4iuJI7qL5UuAWKdNrjhl/P+dfJZlheX3kfRYKtzrlY6u18OX/2zT1UnMkfyn+lcQG+WtTw7f/Y9RUMcRyfKf6V5uX4j6vXV9nozbGUfaUnbdHc0lFLX358uee+Jo/L1i4AGASD+lYV0P3Z+ldZ40g2XsUvZ0x+X/wCuuUuPumvzXGw9niJx8z7XBS5qUGUfhz8uu6+ue0LY/wC+676vO/h/Jt8X61Hn71vEwH0Zh/WvRK+3y13wsD5rHq2IkFFFFemeeFFFFABRRRQAUlLRQAUUUUAFFFFABRRRQAUUUUAFFFFABRRRQAUUUUAFFFFABRRRQAUUUUAFFFFABRRRQAUUUUAFFFFABRRRQAUUUUAFJS0UAFFFFABRRRQAUUUUAFFFFABRRSUALRRRQAUUUUAFFFFABRRRQAUUUUAFFFFABRRRQAUUUUAFFFFABRRRQAUUfWigAooooAKKKKACij60UAFFFFAEFrMbHxJZOceRdo1rIMfxY3IT+TD/AIFUfiLTTN4VuYcZl06U7fXZ1H/jpH5U3WI2fTpXT/Ww4mjP+0h3D9RW7uh1IhlOYNStM/XA4/HDfpXDiKaqRcX1OujUcGpLoeM2GpNpmrWt0px5cisfpnn9K+gY3EkasDkMMivnHU4mt55Yn4eNipH0Ne5eBdS/tTwrYTE5YR7G+q8f0rxMnnyznSZ62aQvGNRG/Xm3x1sRc+FYZsfNDOBn2II/wr0muG+NC/8AFv79xwUeNh/32BXvYqPPQkvI8fDS5a0X5nwt41kfSb63vU/1lncJMp90YN/Svu6zuEvLSG4jO5JUV1I6EEZr4e+IlqJYrgY4YZ/MV9b/AAe1f+3vhd4XvC293sIkcj+8q7W/VTXmZXLSUT0MxjqpHYUUUV7x4wVy3iG3fTbkTx5FtM+5h2WT/wCuP1HvXU1XvrOPULOW3lHyOMZ7g9iPcGubEUVWpuJ0UKzozUjCt5RIisDweam5yCDWRYtLazy2k4xNGfz9x7HrWrG25Qe1fn9ek6U7H10ZKceZHe6DqH9oaejE5kX5WrSrhvD+oHT78Bj+6k+Vvb0Ndx1HFfaZbifrFFX3WjPlsXR9jUdtmYHjK187TVlHWJs/geK4C4+6a9T1a3N3ptxEOSyHH1ry24+6fWvnc6p8tdTXVHt5VPmg49mc14Nuhb/E2aEniexfH1V1P8ia9Vrwy+1D+wfiZ4bvGYJFJcG2ckkDEilR+pFe517uUz5sMl2PNzKPLXb7hRRRXtHkhRRRQAUUUUAFFFFABRRRQAUUUUAH6UUUUAFFFFABRRRQAUUdqKACiiigAooooAKKKKACiiigAooooAKKKKACiiigAooooAKKKKACiiigAooooAKKKKACiiigAooooAKKKKACiiigA60UUUAFFFFABRRRQAUUUUAFFFFABRRRQAUUUUAFFFFABRRRQAUUUetABRRRQAUUUUAFFFFACUtFFABRRRQAHnIpPDsxj0dYuA2m3Ziwe0ZPy/8Ajjj8qWoNLwviC7tGYeXf2mVX/aQ4J/Jx+VY1O5pA89+Ilj9h8TXqgYWQ+aPxGf55rsvgvqHnaPeWjHmGXcB7MP8AEGsf4qW5mXTL/HMsRjfHQMOcfqao/B3UPs/iee2JwtxCce5U5/lmvl6X7nH26N/mfQ1P32Cv1X6HtXbJ4rx74wfEDS9T8MXWl2dx5l19pEbptPRTksD0IyBXT/Frxd/wjugm1gfbe3oKLg8qn8Tf0/GvnG/boeteljsXyP2UfmcODwvOvay+RwnjOANCePvJz+te5/sp6t9v+FMdoWy+n3s9uRnoC28fo9eKeJo96n6V3n7IOpmO68XaQx4EkN2i59Qyt3/2Vrky6XLWa7nVj43p3PpKiiivpz54KKKKAOc8W6eyiPUoF/eQ8S9sp6/h/jVezulkAIPyuM11LxrLGyOAysMFT0INcKIX0jUJ9PYkiM74if4kPT+o/Cvn8zw3NH2kT3cvrf8ALuRu123hzUTfWIVjmWP5Tnv6GuDgm82Meta/h6/+xakm44jk+Vv6V4WX4j6vXXZ6HbjKPtKb7o7sivMNetvsupXMfYMSPx5r0+uG8b2vl6gkvaRP1H+RXuZ1T56CmujPMyypy1uXueB/Gazf+yhcx/6yB1kUj1ByK918M61F4k8PadqkH+ru4ElA9MjkfgePwrzL4gab/aGi3MeM5U039mvxD9q8L3mhzSD7Rps7FEJ58pzkfk278xXHktazdN9TuzWndKaPYvWiiivrT5oKKKKACiiigAooooAKSlooAKKKKACiiigAooooAKKKKAD1o+lFFABRRRQAUUUUAFFFFABRRRQAUUUUAFFFFABRRRQAUUUUAFFFFABRRRQAUUUUAFFFFAB/OiiigApKWigAo+tFFABRRRQAUUUUAFFFFABRRRQAUUUUAFFFFABRRRQAUUUUAH8qKKKACiiigA/GiiigA9sUUUUAFFFFABRRRQAUUUUAHaiiigAqlfSmzvdNvhgCG5VXJ/uONh/Vgfwq7VTVrP7fptzBjLSRkL/vdj+eKiSvFlRdmV/iNY+d4augoObO5Djj+Fuf/Zv0rzLwfqH9l+MNMnJ2r5wRvo3y/wBa9fuD/wAJBoDkj5r/AE/dt9HUdMfVv0rwO8YxsGB2lTnNfKZh+7rQqr+rH0eB/eUpU2XviR4ibxD4qvJt+6CJvJi54CrxkfU5P41x1y26M5q3ebVlfaxZc8MRjNUJG3KRXFKTqSc31O2MVCKiuhzmuJujqX9nnVP7E+NUNuzbY9StJrfqBlhiQf8AoB/On6uuYjXJaPqB8OfELw3qu7YtvfxF2zjCM21v/HWNdWHlyVos58RHmpNH3ZRR1xiivsT5UKKKKACuc8aWBezTUIx+9tOWx3jP3vy6/ga6OmsokUqw3KwwQehrOpBVIuLNKc3TkpI4nTbtW2kH5TyK1t3QiuX+ztoupXFg+dsTZiY/xRn7v5dPwroLWbzIx61+f4mi6NRwPs6c1WpqaPSdFvPt2mxSZy2NrfUVl+NrXzdOSUDmNufof8iqng292zS2zHhhuH1710WrW32zTbiLuyHH1r6mEvruBa62/FHzMl9VxS7XPHNZtxNbSKRnIxXjfgjVF8B/FqGWZvLtLpmtZTjgK5G0/wDfQX9a9xvI9yMMV4h8UtF2Xi3CjGeMj1r5LB1XRqpn1OIpqrSsfUdJXJ/CzxV/wl3guxu5HZ7uIfZ7kt1MigAn8eD+NdbX6LCSnFSXU+HlFxbiwoooqyQoopKAFpPpS0duaACiiigAooooAKKKKACiiigAooooAKKKKACiiigAoopKAFooooAKKKKACiiigAooooAKKKKACijpRQAUUUUAFFFFABRRRQAUUUUAFFFFABRRRQAUUUUAFFFFABRRRQAUUUdaACiiigAooooAKKKKACiiigAooooAKKKKACiiigAooooAKKKKACiiigAoo60UAFFFFABR0oooAKKKKAGeHWFva/ZwNq2d60e3H/LOQZA+mXH/AHzXinjKy/s3Wr+2xtEcrAfTPH6V69danHpMupvIXZDpz3W1AOPJIOfr84/KvkH4u/tMQ+JNcuLvw1pEgjlRcS3xA+YAAnapOenrXLPJcXmcbYaF7M6qeZ4fAybrytc7a8b5Q3QYrK+1RsxUNz0r5w1/4heN9ejMf9qvaRc4js0WMfnjd+tcDqa6jazRyahrN3K7fwSXDj+teph+CcbJL2kkn95x1+KsLT1gm/wPr/UgGiauE8UWhktSy5DDkMOoNfOtx8QL7SolWwuLhZCPvee3H61698H/ABRqXjjwhfNqjie4tZ/LEoGCylQRmuTN+FcVlND63OScU9e5plvEmGzOt9VgrSf3H6D+CNaHiTwfouqKQftVpHK2DnDFRkZ9jmtuvMf2c72S6+FdhDISWtJprcc54Dkj9GFenVFOXNBSKqR5ZtBRRRWhmFFFJQByXxA04/Z4NUjXL2x2y4zkxn/A4P0zVPSrjzLdXz32mu1uLeO8t5YJVDxSKUZT3BGCK850dZNLvr3S5jkxExhvUgbkP4ivnM0w/Naqj3sur2Tps6/S7z7HfQTg8Bufp0NekAh1yOQRXkdnceYuO9eleG737dpULE5dRsb8KwyiryzlRfXUeZ0tI1EcHr1r9m1G5ixwHJH0PIrznx5pIvLB8DLLyK9h8b2YjuopwP8AWLg/UVwesWwmhdSOMV4GKpuhiJR8z2sJP2tBM88+CfiA+G/GEmlzNttdUG1c54mXlfpkbh+Ar6Gr47+JXiOw8Esk08/l3gkElvHGMyFlOQQPY45NfQ/wc+L2kfF7wwmoae5jvoAsd7ZyYEkMmO4B+6cEg9/qCK+2yxVZYfmlF8vRny2YOnGvyxlr2O9ooor0zzwooooAKKKKACij6UUAFFFFABRRRQAUUUUAFFFFABRRRQAUUUUAFFFFABRR9KKACiiigAo9KKKACiiigAooooAKKKKACiiigAooooAKKKTdQAtFNooAdRRRQAUUUUAFFFFABRRRQAUUUUAFFFHvQAUUUUAFFFFABRRRQAUUUUAFFFFABRRRQAUUUUAFFFFABRRRQAUmaWigAooooAKKKKACiiigAoorjPi18TtP+FPg261q9ZXm/wBVaWufmuJiDtQflknsAa0p05VpqEFdsic1Ti5S2R5z8ePjbZeDW1zR7dVudUuLD7AMN/qBICZGPvt8vA9fpXxb9qjt/ljGB7nNReIfFF5r2pXmo385mvbyVp5pPVmOTj27AegFc+14XbrX7DgMPTy6gqcPie5+d4utLGVXOWy2OqEsN5GY5Syqf4kYg15r4gtza6xLCW3hfut6g9DXYWXmSqzZ+VRkk1xuqT/ar6aY8joPwr6fAXnK/Q+VzRxjTt1Mm6QMxr339mP7O3h3xEJZEhEMySOzsAApU8n0HBrwZk7moJry7t7S5tobiWK3uMebEjEK+M4yO+M1xcRZU83wM8Kpct7a+jFkGZrKsZHEON7Jo/XP4O+F5vCvg2OGYrvuZTdBUOQFYLgZ+gz+NdxXBfAXxQvjL4NeD9WDFmm02FZC3Hzoux//AB5TXe1+Auj9Xfsf5dD9x9r7f9731CiiikMKKKO1ABXA/EVYbHU9Oud+yW83WmPVwC0Z/P5f+BV31fHf7Tnxvt4/idp+k6aq3X/CP+Y0zbsL9paM7R3ztYoxGOq4rWng3jm6Pcznilg7VWe3+HfECXr7D8ko4Kn1r1HwPe7bia3J4cb1/rXwP4X/AGidetb77RqNjZ37O26RoMxMT3PcZJ56V7d4T/a48K2N1by6lbahp7o3I8oSAqevIP8ASvH/ANXcywmIjUhT5lfpqelLPsvxNGUJVOV+eh9R+LLP7VpLsBlojvH9a+efi98WNK+GunBZnjn1OcfubQuF4/vN6L/OqvxE/bw8LWOkXEPhjT7rV76RCqvdR+TCmR1OfmP0AH1r4O8TeItQ8Ya3datq9093e3Dbndz09AB2A7CvssBwVUzLFLE4xctNdOr/AOAfD5lxrSyvDuhg3zzfXojp/FHiSLxHq9zqup6gtzdzHJ2nIUdlUdgK9E/Yv8VSw/Ho2NuxSyv9NmjkRv42Qq6n8MH8zXz+Y15r2b9jfQZ9Z+ONrNbtsNhavcs3ou5VI/EMR+NfoWaZbhsDltTkjstD4DKM4xWYZnTjN7vU/Ruiiivx4/aQooooAKKKKACiiigAooooAKKKKACiiigAooooAKKKKACiiigAooooAKKKKACiiigAooooAKKKKACiiigAopN1JuoAdRTc0lADs0m6kooAKKWkoAKKKKAH0UUUAFFFFABRRRQAUUUUAFHtRRQAUUUUAFFFFABRRRQAUlLRQAUUUUAFFFFABRRRQAUUUUAFFFFAB+tFFFABRRSUALRSbqM0ALRSbqN1AC0UlcJ8XPjR4c+DegHUNbuc3MoK2lhD801y+CQqjsPVjwK0p05VZKEFdsiU4wTlJ2Ru+N/HWifDvQbjWNev47GziBxvPzSNjIRF6sxxwBX50fFj4uax8X/Fkup38jR2SMyWGng4S3iJ447uRjcfw6AVm/FL4ua/8aPEq6trbCGGIbLPTYWJhtlPXHqx7sf5VzwAsYS7fNJ/L2r9Ay3Lo4Fe0qazf4HyeMxjxT5IfD+ZWv8A5ZEiDfNjLHtU2n2IlYDBbPU1Tj8y8uef/rCujt0i0qya4m+VFHA9favoqUZ1ppI8erKFGDlIq67eJpOm+Sn+tlG1QO3qa4WT0/OtLULyXULh7iXq3Cr2UelUWjr77C4b6vTt1PzbGYv61VutlsVmXPFVriL5a0DHgVVnX5a1nHQ5oS1PvX/gnl4zTVvhbq3h2SYvdaPfs6xsfuwyjcuPbcJK+rK/Mn9iPx9/whPx4s7CaTZY6/C1g4J48z70R+u5dv8AwKv01r+e+IcL9VzCfaWv3n7xkWJ+s4GD6rT7haKTI9aOK+aPoRaSlr53/aF/a00r4Z2l1pXh2WDVfEKZWWTO6Cz6j5iPvPn+AdO/odadOdWXLBGVSpGmuaTNj9pr9oi0+D3h82GnOl14p1BGS2hVgfswx/rXHbGeB3PsDX57fbp7i4lnuJWmuZ3MssrnLOzHJJPqSaybrxJf+K9butX1S5ku726kMsk0zbmYnuTVtZBM3yn7o5r63B4dYbTqfMYqs8Rr0N/T7wqy810kMkF9CI7hdw7MOCK4y13KQSR+BzXS6XE82CcqtfVYaVtT5XFRvoUPEmmnT4TJE/nQt36Mv1rmllrvNWsGmt2CcgjlSa4S9tZLST51KjPGRX1mGrc0bM+DzDDcsuZLQC/y19F/sCyD/hbWvrkAnSDgf9to6+b2b5TXtn7D+sJpvx/gt3YL9u064t192G18fkhrzc/Tll9RLsd3DTUMzpN9z9G6Silr8JP6ECiiigAooooAKKMikoAWikzRmgBaKTdRuFAC0UmaN1AC0Um72o3UALR6U3NLuoAWim7qXdQAtFN3UZoAdRTd1GaAHUcU2igB1JuptFADt1JuNJRQAu73pOtLSUAFFFFABRRRQAUUfSigAopaSgBaKSigB9JS0UAFFFFABRRRQAdqKTIoyKAFopMijNAC0Um6jdQAtFN3e1G6gB1FN3UZNADqKbmigB1Jn3ptFADtw9aN1NpaAF3UbqbRQA7caQk0lFAC5NFJRQAtJRRQAUtJRQAUUUUAFFZniTxNpPg/RrnVta1CDTNOt13S3Fw4VVH49/avhH48/ttat4/NxoPw+M+i6E2Um1hhsublcEERj/lmp9fvcdq9DCYGtjJWgtO/Q48RiqeGjeb17Hv37QH7XWhfCnztF0Iw6/4tI2/Z42zBaHjmZh3weFHPrivhbWdc1v4geIZ9a16+k1TVrj788vRVHRVA4VR2ArH0bQWkJbk7jl5XOSSepJ7muh/dafCUjGf5mvvcHgqWBjaGsurPla+JqYp3louxHiLTYefmkPGe+fQVTkke9mCpk/yFNHmahcbEG4927D2FdNpOjJaxeZJ8qryWavVp0ZVZWRw1Kkaauxmm6XHZwmaYhUUZLNXPaxqjatcZxstozhE9feruua1/aDGGE7LRT+Ln/CsZvm7YHYV+gZdl6w8eea1PznNczeJl7Km/dIGTdzTRDuzUxGTgdaWQhFwK9rlW589zdiGGxa4Y5OFFOutC3RsYm+b+6at6Owe68o9GHH1rZktdua8fETcZWPoMLRjUp8zPO4NQu/DusWep2jGG+sbhLiJu6ujBh+or9fvhj42g+JHw+0DxLbhVTUrSOdkU8I5Hzr+DAj8K/JjxPYxyMHiZTL0ZR/OvvL9gHWXb4F3ltdz4h03VJ41aRgFjQqkmM9hlmP41+Z8XYX2lCGJS1Tt959/wviPZ154a+jVz6crH8VeL9H8EaPNqmuahBptlEMmSZgN3+yo6sT2A5NeB/Gj9tTw94FWXTvCqR+JdZ5TzVY/ZYm/3h98+y8e9fIHiv4geJfiFqL6t4p1J7+8Ylo4ycRW6/wB1F6KPpye5NfnOHwU62stEfe18ZClotWe2/G79r3VPF8N3pfhcy6FoGGWS8b5bq4XGDj/nmp9vm6cjpXx1rOvPrFwedlspyqZ5Pufeug1rXI2heJAHVhgsw4I9hXG3Ui8hFVF/2RivrsLgo046Kx8Jj84XtOT4mWodSKlYoBuduBXW6PatHB5krZQDJJ7n1rA8K6Gbh/tDqQv8Oa6q8T7RLDp8X8ZzIR2Uf49K0klzckTooTnKn7Wordka+jWomjWWReWyQO3sa6i1XaBxWbZw7FAA4AxWvbrXqUVY8+s7lll3JiuN8YbFCoOoOa7J2CRknpivO/E119ovCM9817+ETcrnzGYyUaTXcyHbiuh+D/ir/hCfjB4R1knEcGoRrKS20eW52Pk/7rGuakbFZuoAsh28Hsa7sZTVajKm+qPCwNV4evCqujTP2fByMg0ua83/AGd/Hp+JHwa8Ma3I+66e1EFyT/z2jOxz+JXP416PX8/VIOnNwe6P6RpzVWEZx2YUUUVmahRS0lAC0lFFAC0lFFAC0UlFABRRRQAUUUUAFFFFABRRRmgAoozRmgApaTdRuoAKWm7hRuoAWik3UbqAFopN1JuoAdRTdx9aM0AO/Sim5o5oAdRTaKBDqMim0UALmjdSUUALuopKKBjqXJo20Y96ADmkpaMe9ACUUuPejigBKKWigBKKWkoAKKKKACiijmgAoo/lRz60AFFJg+tLtoAWkzSbaMUALmjNJto20ALkUm4Ubfejb70CDdRuoox70AGaNxpKKAFzRk0lFAC5NJn3oooGFeH/AB6/a08JfBOGSxEo17xOQfL0m0cEoexlbog/X2rkP22/j5rHwx0LT/DXhmX7LretRyNLej71tAPlJT0ZiSAe2DXwLpOgzXl080pkurqVi8k0rFmZicksT1NfU5blKrxVev8AD0Xc8HG5g6cnSorXq+x1XxM+LHjH46a0L/xRfN9jRt1tpVvlbaD6L3P+0cnmo9I8OrFGsk67E7J3NX9P0iHTVDOA836CmXmpbmKRnODy3Ye3ua+yjGNOKhTVkfPayfNN3ZNdXiwqY4goIGQvQD3NULe3k1OQ7CSp4Z8dfYe1Tafpcl82XBEec89W9zXWWenw2MO99scaDk9hXbQw8qktDmq1401dsg0vSYrOHe4WNFGST296w9d13+0GMEBK2in8X/8ArUa5r76lmGLMdqD07v8AWsVpB6ZNfe4DL40Epz3PzzM80liG6VJ6Dvvew9KbJhRTWmY9OKascknQE17d+x85y9xU7t37Uxoyx61dt9LnuGCopZj0VRk12nh/4G+NPEu02HhvUp0bpI0BjT/vpsCsKtajRV601FebSN6dCrWdqUHJ+Suefwg28qyISHU5BqW4vLi64Z2Yeg4Fd94/+E+ofCy3g/4SSW0tNRuF3waXHL51y69NxC5CrnuxFebyRXN5/wAfLiGL/nhAev8AvN3/AArwMVnWW0Ic6mpPpbU97C5PmVaXs+VxXnoUriXfIYoh5so6hei/U9q1IfGOtaH4Tm0H+15odHlnNzLZQNsjkkIAy2OX4UcHj2qpNLFZw7YkVFHRVFctqU0l1J8xJGeFr87x+aVc0fI1aHY+9weW0srjz3vPuddpn2aO3F/JMspYfKf7vsPes/VdcebKj5I+y+v1rJSRbO3WJWyR1PvVGacyE85rnpYZR1keLjc1nWvTo6Lqxbm5MjHmreiaG+qzBnGIAef9qm6Po8mqTAkEQg8n1rv7O0i0+3GAFVRSxFfl92O5vluXc376rsNwmmWmQvIGAqjmrHhvT5FV7ucf6RPzj+6vYVBYwNql4ZW3LDGSAuMbveupt4doHFZ0adtWe3Wq822xNbx9OK0Y121BDHgVNJII1Jr2acDyKsypq935FuQOpFec6lMZLxz6cV1eq3XnOeeK5K4tJWunVVLbjnNe/hoqC1Pk8fJ1GkiozFuBzVS6U8g9feulstNjtWEs7ru7ZPAqhrNvFcTb4D1+9xxW7fM7JHnqn7OPNJn1f/wTr+IMjL4m8FXMzMsW3UrNGOQFJ2SgegzsP4mvtbdXwJ/wT70Ut8VPEF8FJS30ry2f0Z5UwP8Ax0/lX31X4vntONLHzUT904fqyrZdTlIXdRmkor58+iF3UmaKKBhk0ZNFFAg3Giij8aACjmiigYUUUUAFFFFABRRRQAUUUfyoAKKKKACikpeaACiik5oELRSc0vNAwopOaOaAFopOaMUALRSYNGD60ALRTdtGKBDs0ZpNtJtoAXNG6kxRigBd1FJRQBJmjNFFAw3UZo5o/CgAyKM0ZpPwoAXNG6k59KOaADdS7qTn0oyeaADdRuoo5oAN1G6jmg5oEGaM0lFAxc0mTRRQIMmiik/CgYu6jNJRz6UAG6jdRz6UfhQIM0bqOfSjmgA3UbqTJpeaADdSZo5o5oAXNG6kyaMmgD5h/aM+D8fxO+OHhCzuBJAmpaVdWltdD7i3MeZUV+OhGf8AIr5f1bwXfeE9Y1DR3ijFzZTvBMFP8Skg8+lfpTr2gQa9HaO7GG8sp1urS5T70MoBAYeoIJBHcEivmn43/CHV7zxBrOraP4Vv7u+v5FnE9rdRvAHPEmYyA/PUc8ZPpX6PkGOo4hwwuIaSStulrfz8n+B8Zm+Gq0FLEUVdt3016Hy7JossikTSrEDwfn5qCSy0zTUUsr3DjooOFFe2+A/hDq7at5nizwN4gv7UcrBYFIQ3sxbt9CK9gf4U6VJCq6J8F7eOc8ifxDqu5FP+4rsT+lfZV8VleBqcnLz+alG34yR8lThmONpuUXyesZX/ACPiuTxBKo228McI+m41QuLq5vDmSR5PYnivtO4/Zs8V+K7drfUdR8P+F9OkOWsdB04DI9C+AT+JNa2g/sW+C9P2tqN3qOquOqtIIkP4KM/rXXHirJ8LC7+LtHX8bJHmz4bzjFz307y0/BXPhAWsj4GMV2PhP4H+MvGjL/ZXh+9niY/694/Ki/76bAr9EPDfwi8G+EcHS/DlhbyAY81og8n/AH02TXXLhRgDAr53GcfXusJR+cn+i/zPcwnA6WuKrfJf5nxb4R/YV1q6Ecuv6za6Yh5aG1QzydOmTgA/nXtPhX9kX4feG9j3Flca1OpzuvpiVP8AwBcD869qozXw+L4nzXGaSquK7R0/I+ywvDuW4X4aSb7vX8zG0XwZoHhtQul6LYWAH/Pvboh/MCthm2qTjoKXNFfNyrVKkuacmz6CNKEFywVj8y/ipBrGt+ML7VdSdprrUmN2u8ncIyxCKM9AAuAPauButOuYwR5bD8K+8fjr8D08Wa/Z65HYahdCOD7PctpbRmXap/dsInxuIBIIDDIweowfnfxD4FsdJvpLaDXoEkTpa6zbS6fP1xjEi7P/AB+v0LCwwuNhGUNH27HweKqYrBzkp6o+d9Rt51z+6Y/QVgSEqxZlKkdMivdNQsba14u44kDHAkDKyk+zKSD+dUpNB027X5drD2INepHLalN80dTxMRj4YiDpuXKzw+Sbd3q/ouhvqkgdgRD/ADr1K48GaY3WKMj0MYoXQre2x5cyxr6BTTqYfEtWjE4cNTwlOfNVndGZY2EdlCAAFApreZqU/lx8Rr1avWfDH7OnjPxtottqmlaHd6hptwCYpkdFV8Eg/eI7ipfG3wC8XfCvwm+u61oSWGnrKsX7y7jZyzEgfKpPp615NKjF1fZua5m7Wutz6XEYhql7RRfIle9mcHY2awxqqrgD0rThirl38RXXSNY4h7Ln+dUptSvLjIe4kI9AcD9K+rpZVUXxOx8dWz2h9hNnbzX1vaqfMmRPqwrD1DxFAwKxsz/7orm9rM3TJrpPDnwz8VeL3xo+gahfj+/DA2wf8CPA/Ou/6vQw65qs7fgeW8ficU+WhTb+9mFNqDSN8qAfXmq7Tyt1Y/hxXvfhf9i3x9rnlPqC2Ohwsfm+1Tb5AP8AdTPP4ivYPCv7Cvhux2Sa9rV7qsg+9FbKII/6t+tefXzzLMLpz8z8tTuoZBm+M1cOVeen/BPiDYWOMZJr0b4d/s7+NfiZcRCx0qWysGPzahfIYoVHqMjLf8BBr788J/BDwN4K2NpfhqxjnTGLiaPzpc+u58kH6V3I+UYAwPSvlsZxc5JxwtO3m/8AI+rwXBcYyU8XUv5L/M85+B/wT0n4J+GGsLJjd6hckSXt8y4MzgcADso7CvR91FGTX57WrVMRUdSo7tn6VRo08PTVKkrRQbqM0ZoyaxNg3UbqOaTmgBd1G6k5o5oAXdRu9qTJo5oGLuo3UnNHNAC7qN1JzRzQIXdRuo5pMmgBc+1Juo5o5oAXdSbqXmk5oAXdRupOaM0ALu9qN1JmjJoGLuo3UlFAgyaNxoooAMmjcaKM0AG40ZozRQAZNFJ+FFAC5NJRRQAZoo/Ck/CmAuaM0UnPpQAu6ikooAlzRSUUgD86KKKBhRRSZoELRSZozQMWkzRRQIWko/z1oyaAFpKSjNAC5/GjNJRmgBc0UmaKADNGfeikoAWkozRTAWkJpKKAFozSUZpALmikozQAtFJmkpgOzSZpM0UALS03PSimA78aTPvSUUALmjNJn3opWAWlpvNFADqSkoosA7NJmkopgOqnqWj6frVu8OoWVvewsNrR3ESupHpgirWaM04ycdU7EyipaNHmPiL9mf4c+JN7S+HYbOViT5li7QnJHXAOP0rzjW/2GfDdwxfStd1DTz2WZFmH/spr6WzRmvXo5zj8PpTqv8/zPHr5LgMRrUoq/wB35HxpqX7EHia2z/Z/iaxuQOgmEkR/TdWXp/7J/jzRdQWa60rSvEFuOsDag8YP4jaa+380V6seKMw5eWTT+X+VjyXwrl3MpQTXz/zueX+C/FfxH8G+HrPRbL4ZaVa2VqmyKOHWwFXkn+JWPU+tcL8WPAPxi+O1vHp+tXOg6BoiSiUWVvK8hLDOGZtuSQD7DmvorNFeVTzOVGr7enTip99X+bZ61XK4VqXsKtSTh20X5JHyXo/7BsXXVPFbN/sWdoB+rN/SvQPD/wCxr8PNH2m7hvtYkH/P1cFVP4IFr3TNHNbVs9zGt8VV/LT8jChw/lmH+Civnr+ZyugfCfwb4X2/2X4a0y1dekgtlZ/++iCf1rqkVY1CqoVR0AGBRzRXizq1KrvOTfqe5To06StTil6C0UmaM1kai0UlFAC5opOaM0ALRmk9qMmkAtFJmimAtGaTNHNAC0ZpM0ZoGLRmkzRQIWikzRmgBaKTdSZoAdmim5ooAdmim0cUAOozSZozQAuaSkpc0ALmjNNooAdmkzSUUAOpM+9JRTAXNFJRQAv86M0lFAC5ozSUUgFzSUUmaYC0ZpKKAF+tFJRQBJRmjNJk1IC0UnNHNMBc0UlFABRRzRQAUUc+lJzQAtFJnpRmgBaSjdSZoAXvRSZozQAtH8qTNGTTsAtJSUc0ALRSc0c0AFLSZpOaAHUmaTmjNAC0ZpM0u6gQUUlFAxaSkpc0wCijNFAgooooGHFFJRQA6kz2pM0tABmiij2oAWikpKAFooo/WkAcfhS5pMmjdQAtGaTNGaAFzRmkzRQAtLTc0vNAC0UnNGTQAuaKbmigBeKKSl5oAWim8+lLk+lAC0maSigQ6kzSbqM0DFzS03NGaAFzRmkzRmgBaM0maN1AC0lGc0UALSUZpKBi0v40lFAheKSijdQAUCijNAC0UmaKAFpKM9KKYC8etJRSUAL+NFJS5pAFFJS0wDP50UUlAC5ozRmkoAWiko5pAFFGTR+FMQbqKTn0ooAmoxSbqNxpALtFG0Um6jdQAuKMUmaTdQAu2jbSZ96T8aAFNFJxRxQMWimnFFADqKbRxQA6im0UxC0YFIaSgB2KMUn40maAFbik/CiigYfhRzRRmgA5oyfSk3Cjd7UAL+FH4UbqM0CD8KOfSjdRmgA+oo/CjdSZoAPwo/CjJozQAv4Un4UbqN1AB+FL+FJuo3GgBfwo/Ck3UbqAD8KX8KM0m6gBfwo/CjPtSbqAF/Ck59KN1G6gA/Cl/CjdSZ9qBi5PpR+FJmjdQAvPpRzRmk3UALzRk0m6lzQAc0Z9qMijIoAOaOaM0m4UALz6Uc+lGeKM0AH4UZPpRmk3UALk0c+lJuozQAvPpRz6UbqTdQAv4UUmaXdQAZ9qMn0pN1GaAF/Cjn0pN1GaAFz7Uc+lJmjPtQAv4Uc0ZpN1AC80Um6jdQAufajPtRuo3UAFHPpSZo3UAL+FH4Um6jNAC5NGTRRmgA59KPwpN1LuoEH4Un4UuaTNAB+FL+FJn2pd1ACfhR+FG6jdQAfhR+FG6jd7UAGPajFG6jdQAm2jbS7qNx9cUDDFFG6igRJRScUcetIAzRmj+VFMYUZoooEFFJRQMWiko/GgQtJzRRQAZozRSZFAC0lGRRkUDCij2o4oEGaKSigApaSj8aAFpKT8aKAFopPxooAWik/GigAzRR+NH40AFFFFABR+lFFABRSUtABRSUvNABmiij8aACjNFFAwoo/GigQtHakooAWikooAWiko/GgBaKT8aX8aAClzTfxpfxoGLSUn40fjQA6kpPxooAWij8aKBBRSfjS/jQAc0ZpPxo/GgYvNFJ+NFAC5oo/HFJ+NAhaM0lHNAxaKKT8aAFpOlHNFAC0Un40fjQIWiko/GgYtFJR+NAC+9FJRQAtHNJR+NAhaKT8aWgYUUlH40ALRR370n40ALSZoooAKWkooAKKKKBBRRRQMKKKOaACiiigQ/n0ox7UUUFB+FGD6fpRRQAY9qMe1FFIA2n0o2+1FFMAx7UYPpRRQIMH0pNvtRRQINtLt9qKKADb7UY9qKKAEx7UfhRRSANp9KTj0oooGH4UY9jRRTGH50fhRRQIPwo2/WiigQbfaj8DRRQIMe1GPaiigBMUYoooGLijHsc0UUAGPrRiiigAwe2aMe1FFABRtoooAMUY9jRRQAY9qMe1FFABx6Gj8DRRQMMe1G32NFFIAx7UbaKKAD8DRt9qKKADHtR36UUUxh+FH4UUUgD8KPwoopgB+lH4UUUgDFH4GiigQfhRj2NFFMAx7GjHsaKKADHsaKKKQBt9qO3Q0UUwD86PzoooAPwNGPaiigAxR+FFFAB+FGKKKBhR+BoooEH4UfgaKKBh68UfhRRQIPwNH50UUAH4UY9qKKAD8KKKKACj86KKAD8KPwoooAOPSjAoooAKMUUUCE/OloooGJRRRQI//2Q==;connectable=0;strokeWidth=7;" parent="1" vertex="1">
                    <mxGeometry x="21" y="3" width="808" height="1064" as="geometry"/>
                </mxCell>
                <mxCell id="3" value="&lt;font style=&quot;background-color: rgb(54, 93, 231);&quot; color=&quot;#000000&quot;&gt;&lt;span style=&quot;font-size: 36px; font-style: italic; border-color: var(--border-color); font-family: sans-serif; text-align: start;&quot;&gt;&amp;nbsp;&lt;/span&gt;&lt;span style=&quot;border-color: var(--border-color); font-family: sans-serif; text-align: start;&quot;&gt;&lt;font style=&quot;border-color: var(--border-color);&quot;&gt;&lt;i style=&quot;font-size: 36px;&quot;&gt;θ&lt;/i&gt;&lt;sub style=&quot;border-color: var(--border-color);&quot;&gt;&lt;font style=&quot;font-size: 18px;&quot;&gt;1&lt;/font&gt;&lt;/sub&gt;&lt;/font&gt;&lt;/span&gt;&lt;/font&gt;" style="text;html=1;strokeColor=none;fillColor=none;align=center;verticalAlign=middle;whiteSpace=wrap;rounded=0;fontSize=26;fontColor=#FF0000;strokeWidth=7;" parent="1" vertex="1">
                    <mxGeometry x="531" y="291" width="78" height="44" as="geometry"/>
                </mxCell>
                <mxCell id="4" value="" style="curved=1;endArrow=classic;html=1;strokeColor=#000000;fontSize=26;fontColor=#000099;strokeWidth=7;" parent="1" edge="1">
                    <mxGeometry width="50" height="50" relative="1" as="geometry">
                        <mxPoint x="682" y="322" as="sourcePoint"/>
                        <mxPoint x="605" y="316" as="targetPoint"/>
                        <Array as="points">
                            <mxPoint x="678" y="336"/>
                            <mxPoint x="638" y="340"/>
                        </Array>
                    </mxGeometry>
                </mxCell>
                <mxCell id="5" value="" style="curved=1;endArrow=classic;html=1;strokeColor=#000000;fontSize=26;fontColor=#000099;strokeWidth=7;" parent="1" edge="1">
                    <mxGeometry width="50" height="50" relative="1" as="geometry">
                        <mxPoint x="676" y="347" as="sourcePoint"/>
                        <mxPoint x="605" y="331" as="targetPoint"/>
                        <Array as="points">
                            <mxPoint x="660" y="391"/>
                            <mxPoint x="616" y="381"/>
                        </Array>
                    </mxGeometry>
                </mxCell>
                <mxCell id="7" value="" style="curved=1;endArrow=classic;html=1;strokeColor=#000000;fontSize=26;fontColor=#000099;strokeWidth=7;" parent="1" edge="1">
                    <mxGeometry width="50" height="50" relative="1" as="geometry">
                        <mxPoint x="673" y="359" as="sourcePoint"/>
                        <mxPoint x="643" y="306" as="targetPoint"/>
                        <Array as="points">
                            <mxPoint x="686" y="362"/>
                            <mxPoint x="697" y="356"/>
                            <mxPoint x="705" y="325"/>
                            <mxPoint x="691" y="291"/>
                            <mxPoint x="659" y="283"/>
                        </Array>
                    </mxGeometry>
                </mxCell>
                <mxCell id="8" value="&lt;font style=&quot;background-color: rgb(212, 212, 212);&quot; color=&quot;#000000&quot;&gt;&lt;span style=&quot;font-size: 36px; font-style: italic; border-color: var(--border-color); font-family: sans-serif; text-align: start;&quot;&gt;&amp;nbsp;&lt;/span&gt;&lt;span style=&quot;border-color: var(--border-color); font-family: sans-serif; text-align: start;&quot;&gt;&lt;font style=&quot;border-color: var(--border-color);&quot;&gt;&lt;i style=&quot;font-size: 36px;&quot;&gt;θ&lt;/i&gt;&lt;sub style=&quot;border-color: var(--border-color);&quot;&gt;&lt;font style=&quot;font-size: 18px;&quot;&gt;3&lt;/font&gt;&lt;/sub&gt;&lt;/font&gt;&lt;/span&gt;&lt;/font&gt;" style="text;html=1;strokeColor=none;fillColor=none;align=center;verticalAlign=middle;whiteSpace=wrap;rounded=0;fontSize=26;fontColor=#FF0000;strokeWidth=7;" parent="1" vertex="1">
                    <mxGeometry x="686" y="284" width="79" height="51" as="geometry"/>
                </mxCell>
                <mxCell id="9" value="&lt;font style=&quot;background-color: rgb(212, 212, 212);&quot; color=&quot;#000000&quot;&gt;&lt;span style=&quot;font-size: 36px; font-style: italic; border-color: var(--border-color); font-family: sans-serif; text-align: start;&quot;&gt;&amp;nbsp;&lt;/span&gt;&lt;span style=&quot;border-color: var(--border-color); font-family: sans-serif; text-align: start;&quot;&gt;&lt;font style=&quot;border-color: var(--border-color);&quot;&gt;&lt;i style=&quot;font-size: 36px;&quot;&gt;θ&lt;/i&gt;&lt;sub style=&quot;border-color: var(--border-color);&quot;&gt;&lt;font style=&quot;font-size: 18px;&quot;&gt;2&lt;/font&gt;&lt;/sub&gt;&lt;/font&gt;&lt;/span&gt;&lt;/font&gt;" style="text;html=1;strokeColor=none;fillColor=none;align=center;verticalAlign=middle;whiteSpace=wrap;rounded=0;fontSize=26;fontColor=#FF0000;strokeWidth=7;" parent="1" vertex="1">
                    <mxGeometry x="656" y="385" width="60" height="30" as="geometry"/>
                </mxCell>
                <mxCell id="10" value="" style="curved=1;endArrow=classic;html=1;strokeColor=#000000;fontSize=26;fontColor=#000099;strokeWidth=7;" parent="1" edge="1">
                    <mxGeometry width="50" height="50" relative="1" as="geometry">
                        <mxPoint x="569" y="479" as="sourcePoint"/>
                        <mxPoint x="536" y="475" as="targetPoint"/>
                        <Array as="points">
                            <mxPoint x="586" y="501"/>
                            <mxPoint x="573" y="524"/>
                            <mxPoint x="546" y="529"/>
                            <mxPoint x="517" y="517"/>
                        </Array>
                    </mxGeometry>
                </mxCell>
                <mxCell id="11" value="&lt;font style=&quot;background-color: rgb(46, 79, 196);&quot; color=&quot;#000000&quot;&gt;&lt;span style=&quot;font-size: 36px; font-style: italic; border-color: var(--border-color); font-family: sans-serif; text-align: start;&quot;&gt;&amp;nbsp;&lt;/span&gt;&lt;span style=&quot;border-color: var(--border-color); font-family: sans-serif; text-align: start;&quot;&gt;&lt;font style=&quot;border-color: var(--border-color);&quot;&gt;&lt;i style=&quot;font-size: 36px;&quot;&gt;θ&lt;/i&gt;&lt;sub style=&quot;border-color: var(--border-color);&quot;&gt;&lt;font style=&quot;font-size: 18px;&quot;&gt;4&lt;/font&gt;&lt;/sub&gt;&lt;/font&gt;&lt;/span&gt;&lt;/font&gt;" style="text;html=1;strokeColor=none;fillColor=none;align=center;verticalAlign=middle;whiteSpace=wrap;rounded=0;fontSize=26;fontColor=#FF0000;strokeWidth=7;" parent="1" vertex="1">
                    <mxGeometry x="485" y="415" width="78" height="44" as="geometry"/>
                </mxCell>
                <mxCell id="12" value="" style="curved=1;endArrow=classic;html=1;strokeColor=#000000;fontSize=26;fontColor=#000099;strokeWidth=7;" parent="1" edge="1">
                    <mxGeometry width="50" height="50" relative="1" as="geometry">
                        <mxPoint x="453" y="463.5" as="sourcePoint"/>
                        <mxPoint x="382" y="463.5" as="targetPoint"/>
                        <Array as="points">
                            <mxPoint x="437" y="523.5"/>
                            <mxPoint x="393" y="513.5"/>
                        </Array>
                    </mxGeometry>
                </mxCell>
                <mxCell id="13" value="" style="curved=1;endArrow=classic;html=1;strokeColor=#000000;fontSize=26;fontColor=#000099;strokeWidth=7;" parent="1" edge="1">
                    <mxGeometry width="50" height="50" relative="1" as="geometry">
                        <mxPoint x="448" y="454" as="sourcePoint"/>
                        <mxPoint x="371" y="448" as="targetPoint"/>
                        <Array as="points">
                            <mxPoint x="444" y="468"/>
                            <mxPoint x="404" y="472"/>
                        </Array>
                    </mxGeometry>
                </mxCell>
                <mxCell id="14" value="" style="curved=1;endArrow=classic;html=1;strokeColor=#000000;fontSize=26;fontColor=#000099;strokeWidth=7;" parent="1" edge="1">
                    <mxGeometry width="50" height="50" relative="1" as="geometry">
                        <mxPoint x="348" y="492" as="sourcePoint"/>
                        <mxPoint x="326" y="460" as="targetPoint"/>
                        <Array as="points">
                            <mxPoint x="369" y="492"/>
                            <mxPoint x="375" y="464"/>
                            <mxPoint x="351" y="437"/>
                        </Array>
                    </mxGeometry>
                </mxCell>
                <mxCell id="15" value="&lt;font style=&quot;background-color: rgb(212, 212, 212);&quot; color=&quot;#000000&quot;&gt;&lt;span style=&quot;font-size: 36px; font-style: italic; border-color: var(--border-color); font-family: sans-serif; text-align: start;&quot;&gt;&amp;nbsp;&lt;/span&gt;&lt;span style=&quot;border-color: var(--border-color); font-family: sans-serif; text-align: start;&quot;&gt;&lt;font style=&quot;border-color: var(--border-color);&quot;&gt;&lt;i style=&quot;font-size: 36px;&quot;&gt;θ&lt;/i&gt;&lt;sub style=&quot;border-color: var(--border-color);&quot;&gt;&lt;font style=&quot;font-size: 18px;&quot;&gt;7&lt;/font&gt;&lt;/sub&gt;&lt;/font&gt;&lt;/span&gt;&lt;/font&gt;" style="text;html=1;strokeColor=none;fillColor=none;align=center;verticalAlign=middle;whiteSpace=wrap;rounded=0;fontSize=26;fontColor=#FF0000;strokeWidth=7;" parent="1" vertex="1">
                    <mxGeometry x="294" y="383" width="60" height="30" as="geometry"/>
                </mxCell>
                <mxCell id="16" value="&lt;font style=&quot;background-color: rgb(212, 212, 212);&quot; color=&quot;#000000&quot;&gt;&lt;span style=&quot;font-size: 36px; font-style: italic; border-color: var(--border-color); font-family: sans-serif; text-align: start;&quot;&gt;&amp;nbsp;&lt;/span&gt;&lt;span style=&quot;border-color: var(--border-color); font-family: sans-serif; text-align: start;&quot;&gt;&lt;font style=&quot;border-color: var(--border-color);&quot;&gt;&lt;i style=&quot;font-size: 36px;&quot;&gt;θ&lt;/i&gt;&lt;sub style=&quot;border-color: var(--border-color);&quot;&gt;&lt;font style=&quot;font-size: 18px;&quot;&gt;5&lt;/font&gt;&lt;/sub&gt;&lt;/font&gt;&lt;/span&gt;&lt;/font&gt;" style="text;html=1;strokeColor=none;fillColor=none;align=center;verticalAlign=middle;whiteSpace=wrap;rounded=0;fontSize=26;fontColor=#FF0000;strokeWidth=7;" parent="1" vertex="1">
                    <mxGeometry x="435" y="412.5" width="60" height="49" as="geometry"/>
                </mxCell>
                <mxCell id="17" value="&lt;font style=&quot;background-color: rgb(212, 212, 212);&quot; color=&quot;#000000&quot;&gt;&lt;span style=&quot;font-size: 36px; font-style: italic; border-color: var(--border-color); font-family: sans-serif; text-align: start;&quot;&gt;&amp;nbsp;&lt;/span&gt;&lt;span style=&quot;border-color: var(--border-color); font-family: sans-serif; text-align: start;&quot;&gt;&lt;font style=&quot;border-color: var(--border-color);&quot;&gt;&lt;i style=&quot;font-size: 36px;&quot;&gt;θ&lt;/i&gt;&lt;sub style=&quot;border-color: var(--border-color);&quot;&gt;&lt;font style=&quot;font-size: 18px;&quot;&gt;6&lt;/font&gt;&lt;/sub&gt;&lt;/font&gt;&lt;/span&gt;&lt;/font&gt;" style="text;html=1;strokeColor=none;fillColor=none;align=center;verticalAlign=middle;whiteSpace=wrap;rounded=0;fontSize=26;fontColor=#FF0000;strokeWidth=7;" parent="1" vertex="1">
                    <mxGeometry x="365" y="534" width="60" height="49" as="geometry"/>
                </mxCell>
            </root>
        </mxGraphModel>
    </diagram>
</mxfile>